<svg width="24" height="24" viewBox="0 0 24 24" fill="none" xmlns="http://www.w3.org/2000/svg">
<path d="M2 2H21.9503V12.7966L20.9628 14.3434L21.9503 15.72V22H2V11.8221L2.61718 11.1106L2 10.43V2Z" fill="#016FD0"/>
<path d="M5.87282 15.9364V12.7964H9.18922L9.54504 13.2614L9.91262 12.7964H21.9504V15.7198C21.9504 15.7198 21.6355 15.9332 21.2715 15.9364H14.6059L14.2047 15.4414V15.9364H12.8902V15.0914C12.8902 15.0914 12.7106 15.2094 12.3223 15.2094H11.8749V15.9364H9.88449L9.52918 15.4614L9.16842 15.9364H5.87282Z" fill="white"/>
<path d="M2 10.4298L2.74786 8.68188H4.04121L4.46563 9.66097V8.68188H6.07339L6.32604 9.38954L6.57099 8.68188H13.7881V9.03765C13.7881 9.03765 14.1675 8.68188 14.7911 8.68188L17.1327 8.69009L17.5498 9.65636V8.68188H18.8953L19.2656 9.23693V8.68188H20.6234V11.8219H19.2656L18.9107 11.265V11.8219H16.934L16.7352 11.3269H16.2037L16.0082 11.8219H14.6676C14.1311 11.8219 13.7881 11.4734 13.7881 11.4734V11.8219H11.7669L11.3657 11.3269V11.8219H3.84961L3.65096 11.3269H3.12123L2.92398 11.8219H2V10.4298Z" fill="white"/>
<path d="M3.01256 9.06909L2.00385 11.4202H2.66057L2.84669 10.9494H3.92868L4.11384 11.4202H4.78502L3.77728 9.06909H3.01256ZM3.38576 9.61627L3.71556 10.439H3.05499L3.38576 9.61627Z" fill="#016FD0"/>
<path d="M4.85445 11.4197V9.0686L5.78767 9.07208L6.33047 10.5879L6.86027 9.0686H7.78604V11.4197H7.19972V9.68732L6.57821 11.4197H6.06401L5.44076 9.68732V11.4197H4.85445Z" fill="#016FD0"/>
<path d="M8.18726 11.4197V9.0686H10.1005V9.59451H8.77975V9.99668H10.0697V10.4917H8.77975V10.9093H10.1005V11.4197H8.18726Z" fill="#016FD0"/>
<path d="M10.4399 9.06909V11.4202H11.0262V10.5849H11.2731L11.9761 11.4202H12.6926L11.9212 10.554C12.2378 10.5272 12.5644 10.2548 12.5644 9.83185C12.5644 9.3371 12.177 9.06909 11.7447 9.06909H10.4399ZM11.0262 9.595H11.6965C11.8572 9.595 11.9742 9.72108 11.9742 9.84249C11.9742 9.99868 11.8227 10.09 11.7051 10.09H11.0262V9.595Z" fill="#016FD0"/>
<path d="M13.4024 11.4197H12.8037V9.0686H13.4024V11.4197Z" fill="#016FD0"/>
<path d="M14.8219 11.4197H14.6927C14.0674 11.4197 13.6878 10.9259 13.6878 10.2538C13.6878 9.56515 14.0632 9.0686 14.8528 9.0686H15.5008V9.62545H14.8291C14.5085 9.62545 14.2819 9.8762 14.2819 10.2596C14.2819 10.715 14.5411 10.9062 14.9145 10.9062H15.0688L14.8219 11.4197Z" fill="#016FD0"/>
<path d="M16.0977 9.06909L15.089 11.4202H15.7458L15.9319 10.9494H17.0139L17.199 11.4202H17.8702L16.8625 9.06909H16.0977ZM16.4709 9.61627L16.8007 10.439H16.1402L16.4709 9.61627Z" fill="#016FD0"/>
<path d="M17.9387 11.4197V9.0686H18.6841L19.6359 10.5458V9.0686H20.2222V11.4197H19.5009L18.525 9.90387V11.4197H17.9387Z" fill="#016FD0"/>
<path d="M6.27397 15.5342V13.1831H8.18723V13.709H6.86646V14.1112H8.15637V14.6062H6.86646V15.0238H8.18723V15.5342H6.27397Z" fill="#016FD0"/>
<path d="M15.6489 15.5342V13.1831H17.5622V13.709H16.2414V14.1112H17.5252V14.6062H16.2414V15.0238H17.5622V15.5342H15.6489Z" fill="#016FD0"/>
<path d="M8.26148 15.5342L9.19304 14.3732L8.2393 13.1831H8.97799L9.54599 13.9188L10.1159 13.1831H10.8257L9.88447 14.3587L10.8177 15.5342H10.0792L9.52767 14.8101L8.98956 15.5342H8.26148Z" fill="#016FD0"/>
<path d="M10.8874 13.1835V15.5346H11.4891V14.7921H12.1063C12.6285 14.7921 13.0244 14.5144 13.0244 13.9743C13.0244 13.5268 12.7139 13.1835 12.1825 13.1835H10.8874ZM11.4891 13.7152H12.1391C12.3078 13.7152 12.4284 13.8188 12.4284 13.9859C12.4284 14.1428 12.3084 14.2566 12.1372 14.2566H11.4891V13.7152Z" fill="#016FD0"/>
<path d="M13.279 13.1831V15.5342H13.8653V14.699H14.1122L14.8152 15.5342H15.5317L14.7602 14.668C15.0768 14.6412 15.4034 14.3688 15.4034 13.9459C15.4034 13.4511 15.016 13.1831 14.5837 13.1831H13.279ZM13.8653 13.709H14.5355C14.6963 13.709 14.8132 13.8351 14.8132 13.9565C14.8132 14.1127 14.6617 14.204 14.5442 14.204H13.8653V13.709Z" fill="#016FD0"/>
<path d="M17.8338 15.5342V15.0238H19.0072C19.1808 15.0238 19.256 14.9297 19.256 14.8266C19.256 14.7277 19.181 14.6278 19.0072 14.6278H18.4769C18.016 14.6278 17.7593 14.3463 17.7593 13.9236C17.7593 13.5467 17.9944 13.1831 18.6793 13.1831H19.8211L19.5742 13.7121H18.5867C18.398 13.7121 18.3398 13.8114 18.3398 13.9062C18.3398 14.0037 18.4116 14.1112 18.5559 14.1112H19.1113C19.6251 14.1112 19.8481 14.4034 19.8481 14.786C19.8481 15.1973 19.5996 15.5342 19.0833 15.5342H17.8338Z" fill="#016FD0"/>
<path d="M19.9857 15.5342V15.0238H21.1591C21.3328 15.0238 21.4079 14.9297 21.4079 14.8266C21.4079 14.7277 21.333 14.6278 21.1591 14.6278H20.6289C20.168 14.6278 19.9113 14.3463 19.9113 13.9236C19.9113 13.5467 20.1464 13.1831 20.8313 13.1831H21.9731L21.7262 13.7121H20.7387C20.5499 13.7121 20.4918 13.8114 20.4918 13.9062C20.4918 14.0037 20.5636 14.1112 20.7078 14.1112H21.2633C21.7771 14.1112 22.0001 14.4034 22.0001 14.786C22.0001 15.1973 21.7516 15.5342 21.2353 15.5342H19.9857Z" fill="#016FD0"/>
</svg>
