<svg width="24" height="24" viewBox="0 0 24 24" fill="none" xmlns="http://www.w3.org/2000/svg">
<path fill-rule="evenodd" clip-rule="evenodd" d="M2 5H21.9785L22 11.2261C19.5882 10.3088 11.9144 8.11341 2 10.8492V5Z" fill="#2C328C"/>
<path fill-rule="evenodd" clip-rule="evenodd" d="M2 18.2066H21.9785V13.2256C18.3754 12.0197 11.9704 10.2128 2 12.7728V18.2066Z" fill="#FFF200"/>
<path fill-rule="evenodd" clip-rule="evenodd" d="M21.9785 13.2257C18.3754 12.0198 11.9704 10.2128 2 12.7728V10.8492C11.9144 8.11343 19.5882 10.3119 22 11.2261L21.9785 13.2257Z" fill="#ED1C24"/>
<path fill-rule="evenodd" clip-rule="evenodd" d="M8.36423 9.67628C8.85857 8.30994 9.99002 7.13012 11.9559 7.14317C13.9217 7.15622 15.2328 8.27923 15.5866 9.74843C13.0535 9.48514 11.3648 9.43909 8.36423 9.67628Z" fill="#FFF200"/>
<path d="M6.46364 15.6836L7.80158 13.6878H8.29438L9.71983 15.6836H9.19786L8.79179 15.0795H7.33334L6.94954 15.6836H6.46364ZM7.46844 14.8645H8.64978L8.28594 14.3126C8.19586 14.1796 8.11358 14.0415 8.03954 13.8989C7.99231 14.0338 7.92918 14.1627 7.85147 14.2827L7.46767 14.8668L7.46844 14.8645ZM12.0633 15.6836V15.4717C11.8663 15.635 11.5992 15.7166 11.262 15.7166C11.1216 15.7177 10.9816 15.7014 10.8451 15.6682C10.7421 15.6471 10.6445 15.6053 10.5581 15.5454C10.4974 15.4991 10.4516 15.4362 10.426 15.3643C10.4053 15.2893 10.3965 15.2116 10.3999 15.134V14.2397H10.8275V15.0403C10.8228 15.1274 10.8316 15.2146 10.8536 15.299C10.8881 15.3708 10.9496 15.426 11.0248 15.4525C11.1281 15.4918 11.2382 15.5104 11.3487 15.507C11.4712 15.508 11.593 15.4891 11.7095 15.451C11.8032 15.4262 11.8868 15.3725 11.9482 15.2975C12.0006 15.213 12.0253 15.1142 12.0188 15.015V14.2397H12.4464V15.6836H12.0633ZM13.4834 15.6836V14.2397H13.8672V14.4585C13.9427 14.3725 14.0356 14.3034 14.1397 14.2558C14.2272 14.2224 14.3201 14.2057 14.4137 14.2067C14.5637 14.2071 14.7124 14.2331 14.8536 14.2835L14.7062 14.5138C14.6055 14.4785 14.4997 14.4603 14.393 14.46C14.3064 14.4587 14.2205 14.4751 14.1405 14.5084C14.0739 14.534 14.0179 14.5813 13.9816 14.6427C13.9336 14.7302 13.9091 14.8285 13.9102 14.9283V15.6844L13.4834 15.6836ZM17.1272 15.5055C16.9807 15.578 16.8261 15.6329 16.6667 15.669C16.5114 15.7015 16.3532 15.7175 16.1946 15.7166C15.9175 15.7166 15.7049 15.6782 15.5552 15.6007C15.4055 15.5232 15.3318 15.4241 15.3318 15.3036C15.3322 15.2672 15.3398 15.2313 15.3543 15.198C15.3688 15.1646 15.3899 15.1345 15.4162 15.1094C15.4785 15.047 15.5537 14.999 15.6365 14.9689C15.7359 14.9327 15.8388 14.907 15.9436 14.8922C16.0273 14.8799 16.1539 14.8668 16.3228 14.8553C16.5786 14.8422 16.8333 14.814 17.0858 14.7709C17.0858 14.7371 17.0858 14.7164 17.0858 14.7072C17.089 14.664 17.0792 14.6209 17.0575 14.5833C17.0359 14.5458 17.0035 14.5157 16.9645 14.4969C16.8106 14.4329 16.6442 14.4046 16.4778 14.414C16.3267 14.4065 16.1755 14.4271 16.0319 14.4746C15.9357 14.5154 15.8594 14.5923 15.8192 14.6888L15.4017 14.6558C15.4377 14.5561 15.503 14.4697 15.589 14.4078C15.7034 14.3336 15.832 14.284 15.9666 14.262C16.1553 14.2259 16.3472 14.2089 16.5392 14.2113C16.7153 14.208 16.8912 14.2226 17.0643 14.2551C17.1695 14.273 17.2705 14.3102 17.3621 14.3648C17.4224 14.4055 17.4687 14.4636 17.4949 14.5314C17.5122 14.6053 17.5192 14.6813 17.5156 14.7571V15.0833C17.5089 15.2277 17.5181 15.3724 17.5433 15.5147C17.5647 15.5805 17.6019 15.64 17.6515 15.6882H17.2048C17.1606 15.6377 17.1311 15.5761 17.1196 15.5101L17.1272 15.5055ZM17.0912 14.959C16.8607 15.0058 16.6273 15.0369 16.3926 15.0518C16.2673 15.0591 16.1426 15.0752 16.0196 15.1002C15.9579 15.1118 15.9 15.1381 15.8507 15.177C15.8328 15.1907 15.8182 15.2082 15.8078 15.2282C15.7975 15.2483 15.7917 15.2703 15.7908 15.2929C15.7908 15.3581 15.8346 15.4126 15.9206 15.4564C16.0403 15.506 16.1696 15.5283 16.299 15.5216C16.4479 15.5241 16.5963 15.5034 16.7388 15.4602C16.8472 15.4312 16.9453 15.3724 17.0221 15.2906C17.0731 15.2196 17.0975 15.1329 17.0912 15.0457V14.959Z" fill="#2C328C" stroke="#2C328C" stroke-width="0.22" stroke-miterlimit="22.93"/>
</svg>
