<svg width="38" height="15" viewBox="0 0 38 15" fill="none" xmlns="http://www.w3.org/2000/svg">
<path d="M31.231 8.38597C31.231 7.65198 31.5524 6.99312 32.0582 6.54618L30.7005 5.0127C29.7802 5.83723 29.2002 7.04128 29.2002 8.38211C29.1983 9.72487 29.7783 10.9309 30.6967 11.7554L32.0525 10.2219C31.5486 9.77303 31.231 9.11803 31.231 8.38597Z" fill="black"/>
<path d="M33.6418 10.8305C33.3756 10.8305 33.117 10.7843 32.8774 10.7033L32.229 12.6568C32.6721 12.8071 33.1455 12.8899 33.6399 12.8899C35.7887 12.8918 37.5818 11.3468 37.9982 9.29508L36.0054 8.88281C35.7792 9.99632 34.8075 10.8324 33.6418 10.8305Z" fill="black"/>
<path d="M33.6473 3.88379C33.1548 3.88379 32.6813 3.9647 32.2383 4.11304L32.881 6.06649C33.1225 5.98558 33.3792 5.94127 33.6454 5.94127C34.8129 5.9432 35.7865 6.78315 36.0071 7.90051L37.9999 7.49209C37.591 5.43653 35.7979 3.88572 33.6473 3.88379Z" fill="black"/>
<path d="M5.92347 3.25961C6.35132 3.11512 6.80769 3.03806 7.28117 3.03806C9.35384 3.03806 11.0842 4.52916 11.4798 6.51151L14.4176 5.90467C13.7445 2.53525 10.8066 0 7.28307 0C6.47492 0 5.70099 0.132927 4.97461 0.379517L5.92347 3.25961Z" fill="#FFCB05"/>
<path d="M2.45678 12.9036L4.44388 10.6284C3.55776 9.83277 2.99871 8.6711 2.99871 7.3765C2.99871 6.08383 3.55776 4.92216 4.44388 4.12845L2.45678 1.85327C0.950765 3.20374 0 5.17838 0 7.3765C0 9.57654 0.950765 11.5512 2.45678 12.9036Z" fill="#00A4E0"/>
<path d="M11.4797 8.24731C11.0823 10.2297 9.35378 11.7169 7.28302 11.7169C6.80763 11.7169 6.34936 11.6399 5.92342 11.4934L4.97266 14.3755C5.69904 14.6201 6.47486 14.7531 7.28302 14.7531C10.8027 14.7531 13.7406 12.2217 14.4176 8.85801L11.4797 8.24731Z" fill="#EF4123"/>
<path d="M16.9863 10.7245C16.8893 10.5665 16.76 10.3142 16.6802 10.1273C16.2143 9.03306 16.1934 7.90029 16.5851 6.81376C17.0167 5.62126 17.842 4.71004 18.9088 4.24383C20.2493 3.6601 21.7306 3.77376 23.0161 4.54628C23.8318 5.0202 24.4099 5.75226 24.8491 6.78871C24.9043 6.92164 24.9537 7.06227 25.0032 7.18364L16.9863 10.7245ZM19.6637 6.00078C18.711 6.41497 18.2204 7.32042 18.3212 8.37999L22.3524 6.62111C21.6603 5.7985 20.759 5.52494 19.6637 6.00078ZM22.8563 9.82677C22.8544 9.82677 22.8544 9.8287 22.8544 9.8287L22.7708 9.77091C22.5293 10.1658 22.1547 10.4876 21.6812 10.6956C20.7799 11.0925 19.9451 10.9904 19.3442 10.4567L19.2891 10.5415C19.2891 10.5415 19.2891 10.5396 19.2872 10.5396L18.2642 12.0904C18.519 12.2696 18.7909 12.4198 19.0761 12.5412C20.2056 13.017 21.3617 12.9939 22.5008 12.493C23.3241 12.1308 23.9706 11.5799 24.4118 10.8806L22.8563 9.82677Z" fill="black"/>
<path d="M27.8042 1.96313V10.5822L29.1277 11.1255L28.3766 12.9017L26.9162 12.2852C26.5892 12.1407 26.3648 11.9211 26.1974 11.6726C26.0358 11.4202 25.916 11.0715 25.916 10.6053V1.96313H27.8042Z" fill="black"/>
</svg>
