<svg width="42" height="18" viewBox="0 0 42 18" fill="none" xmlns="http://www.w3.org/2000/svg">
<path fill-rule="evenodd" clip-rule="evenodd" d="M17.2535 17.9736L0 17.9798V17.9382C0 17.9154 0.0275179 17.7673 0.0611499 17.6092C0.0947819 17.451 0.14707 17.1995 0.177344 17.0502C0.207616 16.9009 0.259377 16.6472 0.292366 16.4864L0.414167 15.8913C0.448169 15.7247 0.501434 15.4616 0.532533 15.3066C0.563632 15.1515 0.615552 14.8978 0.647914 14.7428C0.680275 14.5877 0.735446 14.3199 0.770519 14.1476C0.80559 13.9754 0.858903 13.7122 0.888991 13.5629C0.919082 13.4136 0.966899 13.1834 0.995252 13.0513C1.0236 12.9193 1.05975 12.7407 1.07558 12.6546C1.0914 12.5685 1.14261 12.3147 1.18937 12.0908C1.23614 11.8668 1.28776 11.6131 1.3041 11.527C1.32043 11.4408 1.37229 11.1871 1.41934 10.9632C1.46638 10.7392 1.51806 10.4855 1.53418 10.3994C1.55031 10.3132 1.60228 10.0595 1.64967 9.83557C1.69707 9.61161 1.74823 9.3626 1.76335 9.2822C1.77848 9.20181 1.81991 8.99508 1.85542 8.82281C1.89093 8.65053 1.95813 8.32634 2.00474 8.10239C2.05136 7.87843 2.13109 7.48847 2.18192 7.2358C2.23276 6.98313 2.2935 6.68243 2.31692 6.56758C2.34033 6.45274 2.38266 6.24601 2.411 6.10819C2.43933 5.97037 2.49078 5.72136 2.52532 5.55482C2.55987 5.38829 2.61608 5.11579 2.65023 4.94925C2.68439 4.78272 2.73702 4.52431 2.76719 4.37501C2.79736 4.2257 2.84886 3.97669 2.88162 3.82164C2.91439 3.6666 2.97075 3.39409 3.00687 3.21608C3.04299 3.03806 3.10349 2.76555 3.14133 2.61051C3.17916 2.45546 3.23265 2.26753 3.26018 2.19287C3.28773 2.11822 3.36376 1.95639 3.42915 1.83326L3.54803 1.60937L3.65611 1.46783C3.71556 1.38998 3.82169 1.26696 3.89196 1.19446C3.96223 1.12195 4.0808 1.01285 4.15545 0.952012C4.2301 0.891172 4.33817 0.809064 4.39559 0.76955C4.45302 0.730036 4.56578 0.660859 4.64617 0.615823C4.72657 0.570787 4.83933 0.511811 4.89675 0.484767C4.95418 0.457722 5.07164 0.408363 5.15777 0.375081C5.24391 0.341798 5.40835 0.28601 5.5232 0.251108C5.63805 0.216205 5.85364 0.163597 6.00228 0.1342C6.15092 0.104804 6.38584 0.0655403 6.52432 0.0469483L6.7761 0.0131448L24.04 0.0065723L41.3039 0V0.0414998C41.3039 0.0643247 41.2762 0.212391 41.2424 0.370535C41.2085 0.52868 41.152 0.799023 41.1167 0.971296C41.0814 1.14357 41.0299 1.39258 41.0022 1.52466C40.9746 1.65674 40.9222 1.91045 40.8859 2.08847C40.8495 2.26648 40.7936 2.53899 40.7616 2.69403C40.7296 2.84908 40.6778 3.10279 40.6465 3.25784C40.6152 3.41289 40.5631 3.6666 40.5307 3.82164C40.4983 3.97669 40.4481 4.22101 40.4191 4.36457C40.3901 4.50813 40.3377 4.76654 40.3025 4.93881C40.2674 5.11109 40.211 5.38359 40.1771 5.54438C40.1433 5.70517 40.0917 5.95419 40.0625 6.09775L39.9459 6.67199C39.9109 6.84427 39.8546 7.11677 39.8207 7.27756C39.7869 7.43835 39.7365 7.68267 39.7087 7.82049L39.5924 8.39473C39.5563 8.57275 39.5036 8.83116 39.4754 8.96898C39.4471 9.1068 39.3967 9.35111 39.3633 9.5119C39.3299 9.67269 39.2727 9.94989 39.2363 10.1279C39.1999 10.3059 39.1478 10.5596 39.1205 10.6917C39.0933 10.8238 39.0422 11.0728 39.0071 11.2451C38.972 11.4174 38.9161 11.6899 38.8829 11.8506C38.8497 12.0114 38.7977 12.2651 38.7672 12.4145C38.7368 12.5638 38.6839 12.8222 38.6497 12.9887L38.5256 13.5943L38.412 14.1476C38.3837 14.2854 38.3319 14.5392 38.2969 14.7114C38.2619 14.8837 38.205 15.1552 38.1704 15.3147L38.1075 15.6048L38.0326 15.8054C37.9914 15.9158 37.9295 16.0625 37.895 16.1314C37.8605 16.2003 37.7902 16.3219 37.7388 16.4016C37.6874 16.4813 37.6158 16.5834 37.5797 16.6285C37.5435 16.6736 37.4347 16.79 37.3378 16.8873L37.1617 17.064L36.9922 17.1845C36.899 17.2507 36.7986 17.3181 36.7691 17.3342C36.7396 17.3502 36.6273 17.4076 36.5196 17.4615C36.4118 17.5155 36.2596 17.5842 36.1813 17.6141C36.103 17.6441 35.948 17.6951 35.8368 17.7275C35.7256 17.7599 35.6064 17.7918 35.5719 17.7984C35.5375 17.805 35.4179 17.8298 35.3061 17.8534C35.1944 17.8771 34.9689 17.9124 34.805 17.9319L34.507 17.9675L17.2535 17.9736ZM11.115 13.5107H11.564L11.5767 13.4777C11.5836 13.4595 11.5893 13.4168 11.5893 13.3828C11.5893 13.3488 11.6041 13.225 11.6222 13.1078C11.6403 12.9906 11.6828 12.7209 11.7165 12.5084C11.7503 12.2959 11.8009 11.9765 11.829 11.7984C11.8571 11.6204 11.8913 11.3926 11.9051 11.2921C11.9189 11.1916 11.9357 11.1093 11.9425 11.1093C11.9493 11.1093 11.9783 11.1538 12.007 11.208L12.0592 11.3067L12.1749 11.4233L12.2907 11.54L12.4332 11.597L12.5757 11.6541L12.7455 11.6761L12.9153 11.6981L13.1309 11.6849L13.3464 11.6716L13.5798 11.6112L13.8132 11.5508L13.9385 11.4936C14.0074 11.4622 14.1296 11.3936 14.21 11.3413L14.3561 11.246L14.4924 11.1098C14.5674 11.0349 14.6731 10.9148 14.7274 10.8429C14.7816 10.771 14.826 10.7069 14.826 10.7005C14.826 10.694 14.8526 10.6495 14.8852 10.6015C14.9178 10.5535 14.9845 10.4203 15.0334 10.3054C15.0823 10.1906 15.1587 9.98383 15.2032 9.84601L15.2841 9.59543L15.326 9.37837C15.349 9.25899 15.3786 9.06166 15.3917 8.93986L15.4157 8.7184L15.4019 8.53046L15.388 8.34253L15.3445 8.15459L15.3009 7.96666L15.2303 7.82595L15.1598 7.68524L15.0236 7.54081L14.8873 7.39638L14.7261 7.31307L14.565 7.22976L14.3875 7.18727L14.21 7.14477L14.0325 7.13174L13.855 7.11871L13.6573 7.14143L13.4595 7.16415L13.2982 7.20536L13.1368 7.24656L12.9966 7.31145C12.9195 7.34714 12.8073 7.40776 12.7473 7.44615C12.6872 7.48455 12.6253 7.52873 12.6097 7.54432C12.594 7.55992 12.5565 7.58882 12.5264 7.60853L12.4716 7.64438L12.5099 7.46097C12.531 7.36009 12.5486 7.26582 12.5491 7.25146L12.5499 7.22536H12.167H11.7842L11.7171 7.64821C11.6802 7.88078 11.6219 8.24021 11.5875 8.44693C11.5532 8.65366 11.5014 8.96376 11.4725 9.13603C11.4436 9.3083 11.3919 9.6137 11.3578 9.81468C11.3236 10.0157 11.2672 10.3352 11.2323 10.5247L11.1189 11.1407L11.0037 11.7671C10.9679 11.9624 10.9103 12.2725 10.8758 12.4562C10.8413 12.64 10.7851 12.9313 10.7509 13.1035C10.7168 13.2758 10.6837 13.4379 10.6774 13.4638L10.666 13.5107H11.115ZM12.8735 11.1069L13.0479 11.0964L13.2222 11.086L13.3995 11.0257L13.5767 10.9654L13.6532 10.9083C13.6953 10.8769 13.7626 10.8229 13.8028 10.7884C13.843 10.7539 13.9106 10.6772 13.953 10.618C13.9954 10.5588 14.0693 10.4361 14.1172 10.3453L14.2043 10.1801L14.2754 9.97611C14.3146 9.86391 14.3707 9.66658 14.4002 9.53759L14.4539 9.30308L14.4646 8.90633L14.4753 8.50958L14.4403 8.37534C14.421 8.30151 14.3833 8.19771 14.3564 8.14469L14.3076 8.04828L14.217 7.95723L14.1264 7.86619L14.0185 7.81645L13.9105 7.76672L13.7574 7.7341L13.6044 7.70148L13.4165 7.71252L13.2285 7.72355L13.0824 7.7688L12.9362 7.81405L12.8241 7.87761C12.7625 7.91257 12.6582 7.986 12.5924 8.04079L12.4727 8.14041L12.418 8.4294C12.388 8.58835 12.3344 8.88284 12.2991 9.08383C12.2637 9.28481 12.2106 9.57611 12.181 9.73116L12.1272 10.0131L12.1165 10.193L12.1059 10.373L12.1325 10.4854C12.1471 10.5472 12.1801 10.6447 12.2058 10.7022L12.2524 10.8066L12.3333 10.8838L12.4142 10.961L12.5299 11.0138L12.6456 11.0667L12.7596 11.0868L12.8735 11.1069ZM17.384 11.6705L17.6137 11.6731L17.8434 11.6522C17.9697 11.6406 18.1764 11.6167 18.3028 11.5989C18.4291 11.5811 18.6474 11.5412 18.7878 11.5103L19.043 11.4542L19.0558 11.3601C19.0628 11.3083 19.0914 11.1542 19.1195 11.0177L19.1705 10.7694L19.1592 10.7581L19.148 10.7469L19.0699 10.7846C19.027 10.8053 18.8933 10.8547 18.7728 10.8945L18.5538 10.9666L18.3239 11.0112L18.094 11.0557L17.7285 11.0564L17.3631 11.0571L17.2378 11.0171C17.1689 10.9951 17.0676 10.9548 17.0126 10.9276L16.9127 10.8782L16.8302 10.8037L16.7477 10.7291L16.6833 10.6167L16.619 10.5042L16.5786 10.3631L16.5383 10.222L16.538 9.96091L16.5377 9.69983L16.5735 9.46691L16.6093 9.23399L16.9236 9.21931L17.2378 9.20463L18.3994 9.21209L19.561 9.21955L19.596 9.07077C19.6153 8.98894 19.6448 8.8198 19.6616 8.6949L19.692 8.46781L19.6927 8.27678L19.6933 8.08575L19.6602 7.94314L19.6272 7.80052L19.5725 7.70609C19.5424 7.65415 19.4894 7.57888 19.4547 7.53883C19.42 7.49877 19.3581 7.44229 19.317 7.41332C19.276 7.38435 19.1955 7.33567 19.1381 7.30514L19.0336 7.24963L18.8512 7.20566L18.6688 7.1617L18.444 7.14021L18.2193 7.11872L18.0104 7.13231L17.8016 7.14591L17.551 7.19403L17.3005 7.24215L17.1439 7.30476C17.0577 7.3392 16.9262 7.40201 16.8515 7.44433C16.7769 7.48665 16.6735 7.55554 16.6218 7.59742C16.5701 7.63929 16.4806 7.72071 16.423 7.77834C16.3653 7.83597 16.2799 7.9395 16.2333 8.00841C16.1867 8.07732 16.1153 8.19948 16.0746 8.27987C16.0339 8.36027 15.9808 8.47303 15.9567 8.53045C15.9325 8.58788 15.8887 8.70534 15.8592 8.79147C15.8298 8.87761 15.7835 9.04205 15.7563 9.1569C15.7292 9.27175 15.692 9.46081 15.6737 9.57703L15.6404 9.78834L15.6407 10.0991L15.641 10.4098L15.6727 10.5455C15.6902 10.6202 15.7236 10.733 15.7469 10.7961C15.7702 10.8593 15.8134 10.9533 15.8428 11.0049C15.8722 11.0566 15.935 11.1398 15.9824 11.1899C16.0297 11.2399 16.1154 11.3158 16.1729 11.3585C16.2303 11.4013 16.3325 11.4614 16.4 11.4921L16.5228 11.548L16.694 11.5894C16.7881 11.6122 16.9302 11.6391 17.0097 11.6493C17.0892 11.6595 17.2577 11.669 17.384 11.6705ZM16.7262 8.71964C16.7262 8.7247 17.1992 8.72884 17.7773 8.72884H18.8284L18.8505 8.52524L18.8725 8.32164L18.8532 8.19928L18.834 8.07692L18.8048 8.02179C18.7887 7.99147 18.7468 7.93564 18.7117 7.89773L18.6478 7.82881L18.5312 7.77546L18.4147 7.7221L18.2543 7.70149L18.094 7.68089L17.8852 7.69423C17.7703 7.70157 17.6387 7.71724 17.5928 7.72904C17.5469 7.74085 17.4482 7.77972 17.3735 7.81542L17.2378 7.88032L17.0997 8.01771L16.9615 8.15509L16.8987 8.28013C16.8641 8.3489 16.8112 8.47386 16.781 8.55781C16.7509 8.64176 16.7262 8.71458 16.7262 8.71964ZM24.0248 11.6706L24.2543 11.6732L24.5152 11.6422C24.6587 11.6252 24.8497 11.597 24.9397 11.5796C25.0296 11.5622 25.1753 11.5276 25.2633 11.5027C25.3514 11.4778 25.4311 11.4509 25.4404 11.4429C25.4497 11.4349 25.4746 11.3402 25.4957 11.2323C25.5168 11.1245 25.5433 10.9799 25.5547 10.911C25.5661 10.8421 25.572 10.782 25.5678 10.7775C25.5636 10.773 25.5482 10.7788 25.5336 10.7904C25.5189 10.802 25.4165 10.8452 25.3059 10.8862L25.1048 10.9609L24.8185 11.0164L24.5321 11.0719L24.2887 11.0636L24.0452 11.0553L23.907 11.0073L23.7687 10.9593L23.6618 10.8659L23.555 10.7724L23.4841 10.6433L23.4132 10.5142L23.3795 10.3415L23.3457 10.1688L23.3459 9.94477L23.3461 9.72072L23.3871 9.44925L23.4282 9.17779L23.4716 9.03162C23.4954 8.95123 23.5225 8.85726 23.5316 8.82281C23.5407 8.78835 23.579 8.68968 23.6167 8.60355C23.6544 8.51741 23.7216 8.38428 23.766 8.3077L23.8468 8.16847L23.9461 8.06561L24.0454 7.96276L24.1505 7.89755L24.2556 7.83235L24.3907 7.79076C24.4649 7.76789 24.5961 7.7382 24.6823 7.72477L24.8389 7.70037L25.0686 7.71189L25.2983 7.72342L25.5697 7.77776L25.8412 7.83209L25.9516 7.87327C26.0123 7.89592 26.0647 7.91445 26.0679 7.91445C26.0712 7.91445 26.0857 7.83693 26.1003 7.74218C26.1149 7.64743 26.1408 7.49154 26.1579 7.39576C26.175 7.29999 26.1849 7.2175 26.1798 7.21247C26.1748 7.20743 26.0932 7.19447 25.9985 7.18367C25.9038 7.17287 25.6464 7.1537 25.4266 7.14106L25.0268 7.11808L24.7449 7.13972L24.463 7.16135L24.2542 7.20523L24.0454 7.24911L23.9109 7.3029C23.8369 7.33248 23.7286 7.38587 23.6702 7.42153C23.6117 7.4572 23.5373 7.50517 23.5048 7.52814C23.4723 7.55111 23.3738 7.64073 23.2858 7.72729L23.1259 7.88468L23.0366 8.01548C22.9875 8.08741 22.9026 8.23741 22.8478 8.34881L22.7484 8.55134L22.6721 8.7706C22.6302 8.89119 22.5716 9.08852 22.542 9.20912L22.4881 9.42837L22.4686 9.62675L22.449 9.82513L22.4492 10.0861L22.4494 10.3472L22.4692 10.499L22.4889 10.6509L22.5514 10.8071L22.614 10.9633L22.6862 11.0762L22.7584 11.1891L22.8733 11.3022L22.9882 11.4152L23.1097 11.4794L23.2312 11.5437L23.3909 11.588C23.4787 11.6124 23.6055 11.6404 23.6728 11.6502C23.74 11.66 23.8984 11.6692 24.0248 11.6706ZM27.4595 11.6629L27.4594 11.6629L27.1776 11.671L27.0547 11.6516C26.987 11.6409 26.8673 11.6139 26.7887 11.5917L26.6458 11.5512L26.5209 11.4754L26.396 11.3995L26.3257 11.3174C26.287 11.2722 26.23 11.1885 26.1989 11.1314L26.1423 11.0275L26.1118 10.8682L26.0814 10.7089V10.5176V10.3263L26.1133 10.1439L26.1452 9.96153L26.2147 9.79936C26.2529 9.71016 26.3159 9.5902 26.3547 9.53277C26.3935 9.47535 26.4817 9.37197 26.5508 9.30303L26.6763 9.1777L26.8358 9.07855C26.9235 9.02402 27.004 8.97941 27.0146 8.97941C27.0252 8.97941 27.073 8.96052 27.1208 8.93742C27.1686 8.91433 27.3184 8.8651 27.4536 8.82801L27.6996 8.76059L28.4509 8.75788L29.2023 8.75517L29.2382 8.58016L29.2742 8.40516L29.2752 8.24569L29.2761 8.08622L29.2083 7.98507L29.1404 7.88391L29.0192 7.8241L28.898 7.76427L28.7164 7.73245L28.5348 7.70062L28.2529 7.71223L27.971 7.72385L27.6578 7.77719C27.4855 7.80653 27.2563 7.8543 27.1484 7.88335C27.0404 7.91239 26.9491 7.93312 26.9454 7.92941C26.9417 7.9257 26.9654 7.8198 26.9982 7.69408C27.0309 7.56835 27.0689 7.41146 27.0826 7.34542L27.1074 7.22535L27.2782 7.2247L27.449 7.22405L27.6996 7.19362C27.8374 7.17688 28.1067 7.1535 28.2981 7.14166L28.6461 7.12013L28.9163 7.14069L29.1865 7.16125L29.3827 7.20489L29.5789 7.24854L29.7106 7.31525L29.8422 7.38197L29.9224 7.45895L30.0026 7.53594L30.0618 7.65681L30.1209 7.77769L30.119 8.03922L30.1171 8.30076L30.0611 8.60355C30.0302 8.77008 29.978 9.05668 29.9451 9.24044C29.9121 9.4242 29.8612 9.7155 29.8319 9.88777C29.8026 10.06 29.754 10.3748 29.724 10.5873L29.6693 10.9736L29.6576 11.2712L29.6458 11.5687H29.2626H28.8794L28.8798 11.4382C28.88 11.3665 28.8935 11.2139 28.9097 11.0993C28.9259 10.9846 28.9365 10.888 28.9331 10.8847C28.9297 10.8813 28.8895 10.9281 28.8438 10.9887C28.798 11.0493 28.7144 11.1446 28.6581 11.2004C28.6018 11.2563 28.504 11.3365 28.4408 11.3787C28.3777 11.4208 28.2743 11.4798 28.2111 11.5097L28.0963 11.564L27.9188 11.6094L27.7413 11.6548L27.4595 11.6629ZM27.7204 11.079L27.5534 11.0877L27.4427 11.0595C27.3819 11.044 27.2895 11.0095 27.2375 10.9827L27.143 10.9341L27.0914 10.8728C27.063 10.839 27.0196 10.7727 26.995 10.7255L26.9503 10.6395L26.9415 10.4388L26.9327 10.238L26.9681 10.1163C26.9876 10.0493 27.0333 9.9331 27.0696 9.85804L27.1357 9.72156L27.2623 9.59585L27.3889 9.47014L27.5233 9.40541L27.6578 9.34068L27.8248 9.301L27.9919 9.26132H28.5139H29.036L29.069 9.27498L29.102 9.28863L29.0742 9.45247C29.0589 9.54258 29.0225 9.70558 28.9932 9.81468C28.9639 9.92379 28.9122 10.0842 28.8783 10.1711C28.8444 10.258 28.8167 10.3349 28.8167 10.3419C28.8167 10.3489 28.7824 10.4122 28.7404 10.4826L28.6642 10.6106L28.539 10.7347C28.4701 10.8029 28.4062 10.8588 28.3969 10.8588C28.3876 10.8588 28.3454 10.8823 28.3031 10.911L28.2261 10.9632L28.0568 11.0168L27.8875 11.0703L27.7204 11.079ZM34.7158 11.6729L34.5174 11.6704H34.5174C34.4083 11.669 34.2607 11.6603 34.1896 11.651C34.1184 11.6417 34.0009 11.6179 33.9285 11.5981C33.8562 11.5783 33.7406 11.5341 33.6717 11.4998L33.5464 11.4376L33.4546 11.3625L33.3628 11.2873L33.2824 11.1785L33.202 11.0696L33.1579 10.959C33.1337 10.8981 33.1013 10.806 33.0859 10.7544L33.0579 10.6604L33.0343 10.3994L33.0106 10.1384L33.0421 9.81396L33.0736 9.48957L33.1375 9.23971C33.1727 9.10229 33.2263 8.92408 33.2568 8.84369C33.2872 8.76329 33.3632 8.59123 33.4256 8.46133L33.5391 8.22514L33.6358 8.08687C33.6889 8.01082 33.7892 7.8877 33.8586 7.81326L33.9849 7.67791L34.1311 7.56969L34.2772 7.46147L34.4756 7.36472L34.674 7.26796L34.8828 7.21518L35.0916 7.1624L35.3213 7.14099L35.551 7.11959L35.8225 7.14073L36.0939 7.16187L36.2923 7.21168C36.4014 7.23908 36.5066 7.26824 36.5259 7.27649L36.5612 7.29149L36.5723 7.22188C36.5784 7.1836 36.6115 6.98313 36.6458 6.7764C36.6801 6.56967 36.7364 6.22199 36.771 6.00378C36.8055 5.78557 36.8398 5.5483 36.847 5.47652L36.8602 5.34601H37.3071H37.754V5.36167C37.7541 5.37028 37.7314 5.48539 37.7036 5.61747C37.6758 5.74955 37.6242 6.00796 37.5888 6.19171C37.5535 6.37547 37.5002 6.65738 37.4705 6.81816L37.3564 7.43417C37.3234 7.61219 37.2681 7.91289 37.2335 8.10239C37.199 8.29189 37.1473 8.58319 37.1187 8.74972C37.0901 8.91625 37.0466 9.16526 37.022 9.30308C36.9974 9.4409 36.9547 9.70401 36.9269 9.88777C36.8992 10.0715 36.8485 10.4615 36.8141 10.7544L36.7517 11.2868V11.4278V11.5687H36.3421H35.9325L35.9463 11.4278C35.9539 11.3503 35.9684 11.2399 35.9784 11.1824C35.9885 11.125 36.0015 11.031 36.0073 10.9736L36.0179 10.8692L36.0058 10.9005C35.9991 10.9178 35.9426 11 35.8801 11.0832L35.7666 11.2346L35.6588 11.3295L35.551 11.4244L35.4258 11.4886C35.3568 11.5239 35.2535 11.566 35.1961 11.5823C35.1386 11.5986 35.0071 11.6256 34.9037 11.6424L34.7158 11.6729ZM34.8734 11.0779L34.7158 11.0863L34.6094 11.0671C34.5508 11.0566 34.4572 11.0283 34.4012 11.0044L34.2995 10.9608L34.2139 10.8906L34.1283 10.8205L34.0647 10.6987L34.0011 10.5769L33.9721 10.4411L33.9432 10.3054L33.9456 10.0339L33.9481 9.76248L33.9817 9.52234L34.0154 9.2822L34.0677 9.11515C34.0965 9.02327 34.1202 8.93658 34.1203 8.92251C34.1205 8.90845 34.1489 8.83327 34.1835 8.75546C34.218 8.67765 34.2757 8.55761 34.3117 8.4887C34.3478 8.41979 34.415 8.31236 34.4613 8.24998C34.5075 8.18759 34.5899 8.09362 34.6444 8.04116C34.6988 7.9887 34.7854 7.91989 34.8368 7.88825L34.9303 7.83072L35.0945 7.77391L35.2587 7.71709L35.6032 7.71688H35.9478L36.1462 7.77192C36.2553 7.80219 36.3711 7.83729 36.4036 7.84993L36.4627 7.8729L36.4511 7.93022C36.4448 7.96175 36.42 8.1003 36.396 8.23812C36.372 8.37594 36.3247 8.63905 36.2909 8.82281C36.2572 9.00656 36.2052 9.28377 36.1756 9.43881C36.1459 9.59386 36.103 9.79119 36.0801 9.87733C36.0573 9.96347 36.025 10.0828 36.0085 10.1425C35.9919 10.2021 35.9525 10.3055 35.9209 10.3722C35.8893 10.4388 35.834 10.5356 35.798 10.5873C35.762 10.639 35.7011 10.7106 35.6627 10.7464C35.6242 10.7822 35.5411 10.8459 35.478 10.8879L35.3631 10.9642L35.1971 11.0169L35.0311 11.0695L34.8734 11.0779ZM4.1408 11.5687H4.14078H3.63343V11.5348C3.63343 11.5162 3.65762 11.3823 3.6872 11.2373C3.71677 11.0923 3.74909 10.9266 3.75902 10.8692C3.76895 10.8118 3.80022 10.652 3.8285 10.5142C3.85678 10.3764 3.90947 10.1086 3.94558 9.91909C3.9817 9.72959 4.03348 9.45709 4.06065 9.31352C4.08783 9.16996 4.13895 8.89276 4.17426 8.69751C4.20957 8.50227 4.26688 8.16399 4.30161 7.94578L4.41628 7.22536C4.44462 7.04734 4.49663 6.72315 4.53186 6.50494C4.56709 6.28673 4.6052 6.04711 4.61655 5.97246C4.6279 5.8978 4.65193 5.7545 4.66996 5.65401L4.70273 5.4713H5.2144H5.72606L5.71336 5.50439C5.70638 5.5226 5.68175 5.64475 5.65864 5.77586C5.63552 5.90696 5.60228 6.08235 5.58476 6.16561C5.56725 6.24888 5.54374 6.38278 5.53252 6.46318C5.5213 6.54357 5.48825 6.7362 5.45907 6.89125C5.42989 7.0463 5.38788 7.26242 5.36573 7.37153C5.34357 7.48064 5.31163 7.64941 5.29474 7.74658C5.27786 7.84376 5.26598 7.92491 5.26834 7.92691C5.2707 7.92892 5.55805 7.93734 5.90688 7.94562L6.54112 7.96067L7.29834 7.94534L8.05556 7.93002L8.09035 7.69776C8.10949 7.57001 8.15322 7.29635 8.18753 7.08963C8.22185 6.8829 8.27269 6.5869 8.3005 6.43185C8.32832 6.27681 8.36969 6.04189 8.39243 5.90981C8.41517 5.77774 8.44009 5.62504 8.44781 5.57048L8.46184 5.4713H8.97766H9.49349L9.4583 5.62269C9.43894 5.70595 9.39396 5.93383 9.35833 6.12907C9.32271 6.32431 9.26983 6.61561 9.24083 6.7764C9.21183 6.93719 9.15956 7.22379 9.12466 7.41329C9.08977 7.60279 9.03366 7.90349 8.99997 8.08151C8.96628 8.25952 8.91532 8.54142 8.88672 8.70796C8.85812 8.87449 8.80594 9.18458 8.77077 9.39705C8.73559 9.60952 8.6793 9.94311 8.64567 10.1383C8.61204 10.3336 8.56543 10.6061 8.54211 10.7439C8.51879 10.8817 8.4899 11.065 8.47792 11.1511C8.46593 11.2372 8.44598 11.3665 8.43359 11.4382L8.41104 11.5687H7.90158H7.39213L7.39192 11.5426C7.39182 11.5283 7.42492 11.3333 7.4655 11.1093C7.50607 10.8854 7.5618 10.5847 7.58933 10.4411C7.61687 10.2976 7.66877 10.0204 7.70466 9.82512C7.74055 9.62988 7.79775 9.31979 7.83178 9.13603C7.86581 8.95227 7.90429 8.74766 7.9173 8.68134L7.94096 8.56075L7.92581 8.5456L7.91066 8.53046H6.5464H5.18213L5.17042 8.54217C5.16398 8.54861 5.13601 8.68016 5.10826 8.83451C5.08051 8.98886 5.0337 9.2561 5.00424 9.42837C4.97478 9.60065 4.92171 9.91544 4.88631 10.1279L4.77145 10.817C4.74368 10.9835 4.70457 11.2208 4.68455 11.3443L4.64815 11.5687H4.1408ZM9.75751 11.5687H10.2067L10.2193 11.5357C10.2263 11.5175 10.232 11.4699 10.232 11.4298C10.232 11.3897 10.2603 11.1814 10.2948 10.9669C10.3293 10.7524 10.3863 10.403 10.4215 10.1906C10.4567 9.97808 10.5087 9.66799 10.537 9.50146C10.5654 9.33493 10.6157 9.05772 10.649 8.88545C10.6822 8.71318 10.7333 8.44537 10.7624 8.29032C10.7915 8.13528 10.8488 7.8403 10.8897 7.63481C10.9306 7.42933 10.9692 7.25296 10.9754 7.24287L10.9867 7.22453L10.5325 7.23017L10.0783 7.2358L10.0405 7.50726C10.0197 7.65656 9.97418 7.95256 9.93939 8.16503C9.9046 8.3775 9.85197 8.70169 9.82244 8.88545C9.79292 9.06921 9.74142 9.36521 9.70801 9.54322L9.59424 10.1488C9.56507 10.3038 9.51274 10.5763 9.47794 10.7544C9.44314 10.9324 9.39644 11.1673 9.37417 11.2764C9.3519 11.3855 9.32798 11.4959 9.32101 11.5218L9.30835 11.5687H9.75751ZM20.7084 11.5687H20.2625V11.5687H19.8167V11.5504C19.8167 11.5403 19.83 11.4675 19.8463 11.3886C19.8625 11.3096 19.9046 11.0994 19.9397 10.9214C19.9749 10.7434 20.0316 10.4521 20.0657 10.2741C20.0999 10.0961 20.1517 9.82354 20.1809 9.6685C20.2101 9.51345 20.2618 9.21745 20.2959 9.01073C20.33 8.804 20.3818 8.48451 20.411 8.30075C20.4401 8.11699 20.4875 7.8225 20.5162 7.64633C20.5449 7.47016 20.5684 7.30336 20.5684 7.27568V7.22534H20.9666H21.3648L21.3537 7.26189C21.3476 7.28198 21.3229 7.41119 21.2989 7.54901C21.2749 7.68683 21.2471 7.83718 21.2371 7.88312L21.219 7.96664L21.2489 7.92488C21.2653 7.90191 21.3271 7.81734 21.3862 7.73694C21.4453 7.65655 21.5395 7.54585 21.5955 7.49094C21.6514 7.43604 21.7481 7.35861 21.8102 7.31887C21.8723 7.27913 21.9731 7.22828 22.0341 7.20585C22.0951 7.18343 22.2061 7.15428 22.2807 7.14108L22.4165 7.11707L22.5209 7.12997C22.5783 7.13706 22.6934 7.16358 22.7767 7.1889C22.8599 7.21421 22.9281 7.24088 22.9281 7.24815C22.9281 7.25542 22.9046 7.37671 22.8759 7.51769C22.8472 7.65866 22.8237 7.79621 22.8237 7.82334C22.8237 7.85047 22.8181 7.87267 22.8112 7.87267C22.8044 7.87267 22.7456 7.8568 22.6807 7.83739L22.5626 7.80211L22.3225 7.80086L22.0824 7.7996L21.9253 7.87464L21.7682 7.94967L21.6407 8.06762L21.5133 8.18557L21.4182 8.3267C21.3658 8.40431 21.2895 8.54068 21.2485 8.62974C21.2075 8.71879 21.174 8.80453 21.174 8.82027C21.174 8.836 21.16 8.88856 21.1429 8.93706C21.1258 8.98556 21.0751 9.20991 21.0303 9.43562C20.9854 9.66133 20.9199 10.0245 20.8846 10.2428C20.8493 10.461 20.8013 10.7637 20.7778 10.9155C20.7543 11.0673 20.7291 11.2763 20.7218 11.3801L20.7084 11.5687ZM30.8458 11.5687H31.3016V11.4292V11.2897L31.3542 10.9437C31.383 10.7534 31.4307 10.4521 31.4601 10.2741C31.4894 10.0961 31.526 9.87054 31.5414 9.77292C31.5568 9.6753 31.5975 9.46387 31.6319 9.30308C31.6663 9.14229 31.7093 8.96845 31.7275 8.91677C31.7456 8.86509 31.7605 8.81087 31.7607 8.79628C31.7609 8.78169 31.7997 8.68786 31.8471 8.58777L31.9331 8.4058L32.0466 8.25497L32.1602 8.10414L32.2844 8.01074C32.3527 7.95938 32.4626 7.89121 32.5286 7.85927L32.6485 7.80118L32.9095 7.80298L33.1705 7.80477L33.2733 7.83777L33.376 7.87076L33.3934 7.86006L33.4107 7.84936L33.4115 7.78272C33.412 7.74608 33.4344 7.60971 33.4612 7.47969L33.51 7.24329L33.4551 7.22181C33.4249 7.20999 33.3533 7.18552 33.2958 7.16744L33.1914 7.13456L33.0035 7.13504L32.8156 7.13552L32.6624 7.18941L32.5092 7.24329L32.3942 7.31263L32.2792 7.38198L32.1297 7.53859L31.9802 7.6952L31.8999 7.81669C31.8557 7.88351 31.8168 7.93519 31.8134 7.93154C31.8101 7.92789 31.8341 7.78865 31.8668 7.62212C31.8995 7.45558 31.9267 7.29819 31.9272 7.27235L31.9281 7.22537H31.5418H31.1555V7.23867C31.1555 7.24599 31.1362 7.37989 31.1127 7.53624C31.0891 7.69258 31.0419 7.99433 31.0076 8.2068C30.9734 8.41928 30.9172 8.76226 30.8828 8.96899C30.8484 9.17571 30.7965 9.47171 30.7676 9.62676C30.7386 9.7818 30.6871 10.0543 30.6531 10.2323C30.6192 10.4103 30.5634 10.6969 30.5292 10.8692L30.4284 11.3756L30.3899 11.5688L30.8458 11.5687ZM10.7675 6.47362L10.6407 6.47316L10.5139 6.4727L10.4264 6.43296L10.3389 6.39323L10.2935 6.30432L10.2482 6.2154L10.2574 6.03651L10.2666 5.85761L10.3153 5.74276L10.364 5.62791L10.4261 5.56143L10.4881 5.49496L10.595 5.44711L10.7019 5.39926L10.8588 5.39926H11.0158L11.0885 5.44428L11.1613 5.4893L11.203 5.5586L11.2448 5.62791L11.2431 5.8054L11.2414 5.9829L11.1944 6.10344L11.1475 6.22398L11.0583 6.31446L10.9691 6.40494L10.8683 6.43928L10.7675 6.47362Z" fill="#DE1818"/>
</svg>
