<svg width="38" height="13" viewBox="0 0 38 13" fill="none" xmlns="http://www.w3.org/2000/svg">
<path d="M37.9999 12.0823C37.0532 12.0823 36.0995 12.0823 35.1388 12.0823C35.0336 11.5774 34.9214 11.0865 34.8303 10.5886C34.7952 10.3853 34.7251 10.3011 34.5007 10.3081C33.3507 10.3222 32.2076 10.3222 31.0576 10.3081C30.8823 10.3081 30.8122 10.3642 30.7631 10.5255C30.6018 10.9953 30.4335 11.4652 30.2582 11.935C30.2372 11.9981 30.153 12.0823 30.0969 12.0823C29.0661 12.0893 28.0283 12.0893 26.9624 12.0893C27.1587 11.6194 27.3411 11.1777 27.5234 10.7289C28.8557 7.54526 30.1881 4.36866 31.5275 1.18505C31.822 0.497834 32.2567 0.210327 33 0.210327C33.8275 0.210327 34.662 0.210327 35.5105 0.210327C35.5946 0.596007 35.6788 0.981687 35.7559 1.36035C36.4151 4.50189 37.0672 7.65044 37.7264 10.792C37.8105 11.1917 37.9087 11.5914 37.9999 11.9981C37.9999 12.0262 37.9999 12.0542 37.9999 12.0823ZM34.2553 7.86082C33.9537 6.40224 33.6522 4.9577 33.3507 3.51315C33.3366 3.51315 33.3226 3.50614 33.3156 3.50614C32.7897 4.95069 32.2708 6.39523 31.7378 7.86082C32.5933 7.86082 33.4138 7.86082 34.2553 7.86082Z" fill="url(#paint0_linear)"/>
<path d="M25.539 0C25.9177 0.0701236 26.2964 0.126223 26.668 0.217383C27.0116 0.294519 27.3412 0.406717 27.7058 0.511903C27.5235 1.36741 27.3482 2.20188 27.1729 3.01532C26.6961 2.87507 26.2403 2.71378 25.7704 2.6086C25.1253 2.46835 24.4661 2.41225 23.828 2.59457C23.5685 2.6647 23.3021 2.80495 23.0987 2.98025C22.7481 3.28179 22.7411 3.71655 23.0777 4.03211C23.3091 4.24949 23.5826 4.43181 23.8631 4.5931C24.4872 4.97177 25.1463 5.29433 25.7564 5.70105C26.4717 6.17789 26.9976 6.82303 27.1028 7.70659C27.2991 9.26333 26.7241 10.4905 25.4128 11.36C24.5923 11.907 23.6597 12.1524 22.692 12.2366C21.3386 12.3628 20.0133 12.2085 18.716 11.7878C18.6318 11.7597 18.5477 11.7247 18.4635 11.6896C18.4355 11.6826 18.4145 11.6616 18.3794 11.6335C18.5617 10.778 18.744 9.92249 18.9334 9.03894C19.1508 9.13711 19.3611 9.22827 19.5715 9.31943C20.5813 9.72615 21.6261 9.91548 22.706 9.71212C22.9865 9.65602 23.274 9.53681 23.5124 9.37553C24.0314 9.03192 24.0804 8.37977 23.6106 7.96604C23.3021 7.69957 22.9304 7.50323 22.5728 7.28585C22.0188 6.94925 21.4368 6.66175 20.9109 6.29009C20.2447 5.80624 19.7608 5.16811 19.6627 4.3126C19.5224 3.03635 19.9993 1.99852 20.981 1.1921C21.8365 0.490865 22.8463 0.175309 23.9262 0.0490865C23.9893 0.0420742 24.0454 0.0210371 24.1015 0.00701236C24.5783 0 25.0622 0 25.539 0Z" fill="url(#paint1_linear)"/>
<path d="M14.4174 0.224513C14.2561 0.610193 14.1019 0.981848 13.9476 1.34649C12.475 4.85968 11.0024 8.37288 9.53681 11.8861C9.46669 12.0544 9.38254 12.0964 9.21424 12.0964C8.2816 12.0894 7.35597 12.0824 6.42333 12.0964C6.22698 12.0964 6.16387 12.0333 6.11478 11.851C5.3294 8.7796 4.52297 5.71519 3.7446 2.64378C3.60435 2.08279 3.31685 1.69711 2.7769 1.45869C1.91438 1.08002 1.02381 0.813551 0.112198 0.596168C0.077136 0.589156 0.0350618 0.575131 0 0.568119C0.00701236 0.210488 0.00701236 0.210488 0.343606 0.210488C1.97047 0.210488 3.59734 0.210488 5.22421 0.210488C5.99557 0.210488 6.54955 0.659279 6.69681 1.42363C7.11054 3.58343 7.51024 5.75026 7.92397 7.91006C7.94501 8.00122 7.95903 8.0994 7.98708 8.23263C8.02916 8.1555 8.05721 8.10641 8.07824 8.05732C9.08802 5.50482 10.0978 2.95232 11.1006 0.392809C11.1567 0.252562 11.2198 0.203476 11.3741 0.210488C12.3207 0.2175 13.2604 0.210488 14.207 0.210488C14.2702 0.210488 14.3263 0.2175 14.4174 0.224513Z" fill="url(#paint2_linear)"/>
<path d="M13.1831 12.0893C14.0316 8.12029 14.8731 4.17934 15.7216 0.224365C16.7524 0.224365 17.7692 0.224365 18.8 0.224365C18.6738 0.827429 18.5476 1.41647 18.4213 2.00551C17.7201 5.27327 17.0259 8.53402 16.3317 11.8018C16.2826 12.0262 16.2054 12.1033 15.967 12.0963C15.1255 12.0823 14.277 12.0893 13.4356 12.0893C13.3584 12.0893 13.2813 12.0893 13.1831 12.0893Z" fill="url(#paint3_linear)"/>
<defs>
<linearGradient id="paint0_linear" x1="2.12715" y1="6.36649" x2="37.8023" y2="6.13179" gradientUnits="userSpaceOnUse">
<stop stop-color="#262A5E"/>
<stop offset="1" stop-color="#3E4598"/>
</linearGradient>
<linearGradient id="paint1_linear" x1="2.12669" y1="6.27703" x2="37.8018" y2="6.04233" gradientUnits="userSpaceOnUse">
<stop stop-color="#262A5E"/>
<stop offset="1" stop-color="#3E4598"/>
</linearGradient>
<linearGradient id="paint2_linear" x1="2.12597" y1="6.16971" x2="37.8011" y2="5.935" gradientUnits="userSpaceOnUse">
<stop stop-color="#262A5E"/>
<stop offset="1" stop-color="#3E4598"/>
</linearGradient>
<linearGradient id="paint3_linear" x1="2.12635" y1="6.25037" x2="37.8015" y2="6.01567" gradientUnits="userSpaceOnUse">
<stop stop-color="#262A5E"/>
<stop offset="1" stop-color="#3E4598"/>
</linearGradient>
</defs>
</svg>
