<svg width="161" height="161" viewBox="0 0 161 161" fill="none" xmlns="http://www.w3.org/2000/svg">
<mask id="mask0_461_1073" style="mask-type:alpha" maskUnits="userSpaceOnUse" x="0" y="0" width="161" height="161">
<circle cx="80.224" cy="80.224" r="80.224" fill="#1250DA"/>
</mask>
<g mask="url(#mask0_461_1073)">
<path d="M73.1904 67.816C73.1904 68.664 72.9184 69.352 72.3744 69.88C71.8464 70.408 70.9584 70.672 69.7104 70.672H60.1584L58.9104 77.92C60.4784 77.6 61.9104 77.44 63.2064 77.44C65.0304 77.44 66.6304 77.712 68.0064 78.256C69.3984 78.8 70.5664 79.552 71.5104 80.512C72.4544 81.472 73.1664 82.6 73.6464 83.896C74.1264 85.176 74.3664 86.56 74.3664 88.048C74.3664 89.888 74.0384 91.568 73.3824 93.088C72.7424 94.608 71.8464 95.912 70.6944 97C69.5424 98.072 68.1744 98.904 66.5904 99.496C65.0224 100.088 63.3104 100.384 61.4544 100.384C60.3664 100.384 59.3344 100.272 58.3584 100.048C57.3824 99.824 56.4624 99.528 55.5984 99.16C54.7504 98.776 53.9584 98.344 53.2224 97.864C52.5024 97.368 51.8544 96.848 51.2784 96.304L53.1024 93.784C53.4864 93.24 53.9984 92.968 54.6384 92.968C55.0384 92.968 55.4384 93.096 55.8384 93.352C56.2544 93.608 56.7344 93.888 57.2784 94.192C57.8224 94.496 58.4544 94.776 59.1744 95.032C59.8944 95.288 60.7664 95.416 61.7904 95.416C62.8784 95.416 63.8384 95.24 64.6704 94.888C65.5024 94.536 66.1904 94.048 66.7344 93.424C67.2944 92.784 67.7104 92.032 67.9824 91.168C68.2704 90.288 68.4144 89.336 68.4144 88.312C68.4144 86.424 67.8624 84.952 66.7584 83.896C65.6704 82.824 64.0624 82.288 61.9344 82.288C60.2544 82.288 58.5664 82.592 56.8704 83.2L53.1744 82.144L56.0544 65.296H73.1904V67.816ZM95.2981 95.248C96.7541 95.248 98.0181 95.12 99.0901 94.864C100.178 94.592 101.21 94.224 102.186 93.76V87.448H97.8421C97.4261 87.448 97.0981 87.336 96.8581 87.112C96.6181 86.872 96.4981 86.584 96.4981 86.248V82.6H108.042V96.64C107.162 97.28 106.242 97.84 105.282 98.32C104.338 98.784 103.322 99.168 102.234 99.472C101.162 99.776 100.01 100 98.7781 100.144C97.5461 100.304 96.2181 100.384 94.7941 100.384C92.2661 100.384 89.9381 99.944 87.8101 99.064C85.6821 98.184 83.8421 96.96 82.2901 95.392C80.7381 93.824 79.5221 91.952 78.6421 89.776C77.7781 87.6 77.3461 85.224 77.3461 82.648C77.3461 80.04 77.7701 77.648 78.6181 75.472C79.4661 73.296 80.6661 71.424 82.2181 69.856C83.7861 68.288 85.6821 67.072 87.9061 66.208C90.1301 65.344 92.6261 64.912 95.3941 64.912C98.2261 64.912 100.674 65.336 102.738 66.184C104.818 67.016 106.578 68.104 108.018 69.448L106.146 72.376C105.778 72.968 105.29 73.264 104.682 73.264C104.298 73.264 103.906 73.136 103.506 72.88C102.994 72.576 102.466 72.272 101.922 71.968C101.394 71.664 100.802 71.4 100.146 71.176C99.5061 70.952 98.7781 70.768 97.9621 70.624C97.1621 70.48 96.2341 70.408 95.1781 70.408C93.4661 70.408 91.9141 70.696 90.5221 71.272C89.1461 71.848 87.9701 72.672 86.9941 73.744C86.0181 74.816 85.2661 76.104 84.7381 77.608C84.2101 79.112 83.9461 80.792 83.9461 82.648C83.9461 84.648 84.2261 86.432 84.7861 88C85.3461 89.552 86.1301 90.864 87.1381 91.936C88.1461 93.008 89.3461 93.832 90.7381 94.408C92.1301 94.968 93.6501 95.248 95.2981 95.248Z" fill="white"/>
<mask id="mask1_461_1073" style="mask-type:alpha" maskUnits="userSpaceOnUse" x="56" y="34" width="51" height="97">
<path d="M56.5 34H106.5V62H56.5V34Z" fill="#D9D9D9"/>
<path d="M56.5 103H106.5V131H56.5V103Z" fill="#D9D9D9"/>
</mask>
<g mask="url(#mask1_461_1073)">
<path d="M95.4152 122.567H66.4542C64.3302 122.567 62.3301 121.708 60.8229 120.148C59.3242 118.597 58.5 116.544 58.5 114.368V46.2023C58.5 44.0232 59.3242 41.9697 60.8257 40.4186C62.333 38.8588 64.3302 38 66.4542 38H95.4152C97.5392 38 99.5393 38.8588 101.047 40.4186C102.545 41.9697 103.372 44.0232 103.372 46.2023V114.368C103.372 116.547 102.548 118.6 101.047 120.151C99.5393 121.708 97.5392 122.567 95.4152 122.567ZM66.4542 40.921C65.1112 40.921 63.8432 41.4673 62.8806 42.4633C61.9151 43.4623 61.382 44.7914 61.382 46.2023V114.368C61.382 115.778 61.9151 117.105 62.8835 118.107C63.8432 119.1 65.1112 119.646 66.4571 119.646H95.418C96.761 119.646 98.0291 119.1 98.9917 118.107C99.96 117.105 100.493 115.776 100.493 114.368V46.2023C100.493 44.7914 99.96 43.4653 98.9917 42.4633C98.032 41.4702 96.7639 40.924 95.418 40.924H66.4542V40.921Z" fill="white"/>
<path d="M81.143 56.6818C79.907 56.6818 78.692 56.8318 77.498 57.1318C76.304 57.4318 75.182 57.8608 74.132 58.4188C74.054 58.4608 73.982 58.4878 73.916 58.4998C73.85 58.5178 73.79 58.5268 73.736 58.5268C73.616 58.5268 73.52 58.4968 73.448 58.4368C73.37 58.3768 73.307 58.3048 73.259 58.2208L72.656 57.2308C73.34 56.7868 74.027 56.4088 74.717 56.0968C75.407 55.7848 76.103 55.5298 76.805 55.3318C77.507 55.1338 78.218 54.9868 78.938 54.8908C79.658 54.8008 80.393 54.7558 81.143 54.7558C81.893 54.7558 82.628 54.8008 83.348 54.8908C84.074 54.9868 84.788 55.1338 85.49 55.3318C86.192 55.5298 86.885 55.7848 87.569 56.0968C88.259 56.4088 88.946 56.7868 89.63 57.2308L89.036 58.2208C88.988 58.3048 88.925 58.3768 88.847 58.4368C88.775 58.4968 88.682 58.5268 88.568 58.5268C88.454 58.5268 88.319 58.4878 88.163 58.4098C87.113 57.8578 85.988 57.4318 84.788 57.1318C83.594 56.8318 82.379 56.6818 81.143 56.6818Z" fill="white"/>
<path d="M80.722 52.3556C79.0967 52.3556 77.5135 52.5588 75.9725 52.9651C74.4315 53.3715 72.971 53.9656 71.591 54.7476C71.338 54.878 71.1425 54.9125 71.0045 54.8511C70.8665 54.7898 70.7553 54.694 70.671 54.5636L70.0615 53.5631C70.9432 52.9881 71.821 52.4975 72.695 52.0911C73.5613 51.6925 74.4315 51.3666 75.3055 51.1136C76.1872 50.8683 77.0765 50.6881 77.9735 50.5731C78.8705 50.4581 79.7867 50.4006 80.722 50.4006C81.665 50.4006 82.585 50.4581 83.482 50.5731C84.379 50.6881 85.2645 50.8683 86.1385 51.1136C87.0202 51.3666 87.8942 51.6925 88.7605 52.0911C89.6345 52.4975 90.5123 52.9881 91.394 53.5631L90.7845 54.5636C90.7002 54.694 90.589 54.7898 90.451 54.8511C90.313 54.9125 90.1175 54.878 89.8645 54.7476C88.4845 53.9656 87.0202 53.3715 85.4715 52.9651C83.9305 52.5588 82.3473 52.3556 80.722 52.3556Z" fill="white"/>
<path d="M80.6205 48.3433C78.5518 48.3433 76.5412 48.6092 74.5885 49.1408C72.6455 49.6725 70.7895 50.441 69.0205 51.4463C68.9142 51.5043 68.8223 51.543 68.745 51.5623C68.6677 51.5817 68.5903 51.5913 68.513 51.5913C68.3777 51.5913 68.2665 51.5575 68.1795 51.4898C68.0925 51.4222 68.0152 51.3352 67.9475 51.2288L67.2515 50.0833C68.3632 49.3583 69.4652 48.7397 70.5575 48.2273C71.6498 47.7247 72.747 47.3138 73.849 46.9948C74.951 46.6855 76.0578 46.4583 77.1695 46.3133C78.2908 46.1683 79.4412 46.0958 80.6205 46.0958C81.7902 46.0958 82.9357 46.1683 84.057 46.3133C85.1783 46.4583 86.2852 46.6855 87.3775 46.9948C88.4795 47.3138 89.5767 47.7247 90.669 48.2273C91.7613 48.7397 92.8682 49.3583 93.9895 50.0833L93.279 51.2288C93.2113 51.3352 93.134 51.4222 93.047 51.4898C92.96 51.5575 92.8488 51.5913 92.7135 51.5913C92.5685 51.5913 92.4042 51.543 92.2205 51.4463C90.4612 50.4313 88.6052 49.658 86.6525 49.1263C84.6998 48.6043 82.6892 48.3433 80.6205 48.3433Z" fill="white"/>
</g>
</g>
</svg>
