<svg width="94" height="94" viewBox="0 0 94 94" fill="none" xmlns="http://www.w3.org/2000/svg">
<mask id="mask0" style="mask-type:alpha" maskUnits="userSpaceOnUse" x="0" y="0" width="94" height="94">
<rect width="94" height="94" fill="white"/>
</mask>
<g mask="url(#mask0)">
<mask id="mask1" style="mask-type:alpha" maskUnits="userSpaceOnUse" x="16" y="13" width="64" height="64">
<rect x="16" y="13" width="64" height="64" fill="white"/>
</mask>
<g mask="url(#mask1)">
<path d="M58.1033 63.448H51.1096V65.5283H58.1033V63.448Z" fill="white"/>
<path d="M43.8076 63.448H36.814V65.5283H43.8076V63.448Z" fill="white"/>
<path d="M40.9755 70.5173H39.6654C37.5268 70.5173 35.7736 68.7645 35.7736 66.6264V45.6312C35.7736 45.0726 35.5231 44.5718 35.0992 44.2251C34.6754 43.8783 34.1359 43.7628 33.6157 43.8783C32.3634 44.148 31.1496 44.3021 29.9937 44.3021C25.1964 44.3021 23 39.1014 23 34.2668C23 31.6857 23.578 29.2587 24.6376 27.4289C25.9092 25.233 27.7973 24.0195 29.9937 24.0195C34.7139 24.0195 38.5864 26.1383 41.2067 30.164C43.5186 33.7082 44.7517 38.5236 44.7517 44.0517C44.7517 52.0838 44.8673 66.4916 44.8673 66.6264C44.8673 68.7645 43.114 70.5173 40.9755 70.5173ZM33.9818 41.721C34.8488 41.721 35.6965 42.01 36.3901 42.5685C37.3149 43.3198 37.8543 44.4177 37.8543 45.6119V66.6071C37.8543 67.6088 38.6635 68.4178 39.6654 68.4178H40.9755C41.9773 68.4178 42.7865 67.6088 42.7865 66.6071C42.7865 66.4723 42.6709 52.0646 42.6709 44.0132C42.6709 38.9473 41.5342 34.4208 39.4727 31.2619C37.2185 27.8141 34.0396 26.0613 30.0129 26.0613C26.7955 26.0613 25.1193 30.164 25.1193 34.209C25.1193 38.042 26.6606 42.1448 30.0129 42.1448C31.0148 42.1448 32.0744 42.0292 33.1726 41.7788C33.4231 41.7596 33.6928 41.721 33.9818 41.721Z" fill="white"/>
<path d="M29.2423 38.1959C28.4331 38.1959 27.7588 37.541 27.7588 36.7128V31.4351C27.7588 30.6261 28.4138 29.9519 29.2423 29.9519C30.0707 29.9519 30.7258 30.6068 30.7258 31.4351V36.7128C30.7258 37.541 30.0707 38.1959 29.2423 38.1959Z" fill="white"/>
<path d="M55.2327 70.517H53.9226C51.784 70.517 50.0308 68.7642 50.0308 66.6261C50.0308 66.472 50.1464 52.0836 50.1464 44.0322C50.1464 38.5041 51.3794 33.6886 53.6914 30.1445C56.3116 26.1188 60.2034 24 64.9044 24C67.0815 24 68.9888 25.2135 70.2604 27.4093C71.32 29.2392 71.898 31.6662 71.898 34.2472C71.898 36.7898 71.32 39.1782 70.2797 40.9696C69.0273 43.1076 67.12 44.2826 64.9044 44.2826C63.7676 44.2826 62.5346 44.1477 61.2823 43.8588C60.7621 43.7432 60.2226 43.8781 59.7988 44.2055C59.3749 44.5522 59.1245 45.0723 59.1245 45.6116V66.6069C59.1245 68.7642 57.3905 70.517 55.2327 70.517ZM64.9236 26.0803C60.897 26.0803 57.718 27.8331 55.4639 31.2809C53.4024 34.4398 52.2656 38.9663 52.2656 44.0322C52.2656 52.0836 52.1501 66.4913 52.1501 66.6261C52.1501 67.6085 52.9592 68.4175 53.9611 68.4175H55.2712C56.2731 68.4175 57.0822 67.6085 57.0822 66.6069V45.6116C57.0822 44.4174 57.6217 43.3195 58.5465 42.5683C59.4713 41.8363 60.6465 41.5474 61.8025 41.7978C62.9007 42.0482 63.9796 42.1638 64.9622 42.1638C66.4457 42.1638 67.6402 41.3933 68.5264 39.8716C69.3741 38.427 69.8558 36.366 69.8558 34.2087C69.8173 30.183 68.1411 26.0803 64.9236 26.0803Z" fill="white"/>
<path d="M65.6556 38.1959C64.8464 38.1959 64.1721 37.541 64.1721 36.7128V31.4351C64.1721 30.6261 64.8272 29.9519 65.6556 29.9519C66.4648 29.9519 67.1391 30.6068 67.1391 31.4351V36.7128C67.1199 37.541 66.4648 38.1959 65.6556 38.1959Z" fill="white"/>
<path d="M36.3516 64.0643H43.7883V69.0724H40.07H36.814L36.3516 64.0643Z" fill="white"/>
<path d="M50.8782 64.0643H58.315V69.0724H54.5966H51.3406L50.8782 64.0643Z" fill="white"/>
</g>
</g>
</svg>
