<svg width="94" height="94" viewBox="0 0 94 94" fill="none" xmlns="http://www.w3.org/2000/svg">
<mask id="mask0" style="mask-type:alpha" maskUnits="userSpaceOnUse" x="0" y="0" width="94" height="94">
<rect width="94" height="94" fill="white"/>
</mask>
<g mask="url(#mask0)">
<path d="M59.9056 70.0001C59.0969 70.0001 58.2948 69.8676 57.5203 69.6076L57.0225 69.4407L57.5382 67.8902L58.0377 68.0587C58.6463 68.2631 59.2759 68.3678 59.9072 68.3678C60.8151 68.3678 61.6954 68.1584 62.5203 67.7446C63.9244 67.0413 64.9706 65.831 65.4685 64.3361L66.9654 59.8399C67.4632 58.3449 67.3526 56.7453 66.6514 55.3338C65.9517 53.9223 64.7477 52.8707 63.2606 52.3702L62.8278 52.2246L63.3436 50.6741L63.7763 50.8196C65.6751 51.4575 67.2143 52.802 68.1076 54.6044C69.0008 56.4068 69.144 58.4496 68.5078 60.36L67.0109 64.8562C66.3748 66.7649 65.0373 68.3122 63.2459 69.2101C62.1916 69.7335 61.0673 70.0001 59.9056 70.0001Z" fill="white"/>
<path d="M57.2081 68.6049C57.1935 68.6049 57.1788 68.6049 57.1642 68.6032L55.4395 68.492C54.5853 68.4364 53.8255 68.0341 53.3536 67.3864C52.7972 66.6226 52.6426 65.6314 52.942 64.7351L57.2016 51.9383C57.3659 51.4477 57.6556 51.0077 58.0428 50.6691C58.5407 50.2324 59.1915 49.9904 59.8732 49.9904C60.4394 49.9904 60.9943 50.1523 61.4775 50.4598L63.0346 51.4493C63.2949 51.6145 63.4088 51.94 63.3079 52.2327L57.8362 68.1535C57.745 68.425 57.4912 68.6049 57.2081 68.6049Z" fill="white"/>
<path d="M34.1059 70C32.9425 70 31.8198 69.7317 30.7671 69.2051C28.9741 68.3072 27.6383 66.7599 27.0021 64.8512L25.5053 60.355C24.8691 58.4462 25.0123 56.4018 25.9055 54.5994C26.7988 52.7969 28.338 51.4525 30.2367 50.8146L30.8631 50.6036L31.3789 52.1542L30.7525 52.3652C29.2654 52.8656 28.0614 53.9173 27.3617 55.3288C26.6621 56.7403 26.5515 58.3399 27.0477 59.8349L28.5446 64.3311C29.0425 65.826 30.0887 67.0363 31.4928 67.7396C32.3177 68.1534 33.198 68.3628 34.1059 68.3628C34.7388 68.3628 35.3668 68.2597 35.9753 68.0536L36.7563 67.7919L37.2721 69.3425L36.4927 69.6042C35.7166 69.8675 34.9145 70 34.1059 70Z" fill="white"/>
<path d="M36.8018 68.6048C36.5203 68.6048 36.2665 68.4249 36.1738 68.155L30.702 52.2343C30.6011 51.9416 30.715 51.6161 30.9753 51.4509L32.5324 50.4614C33.0157 50.1539 33.5705 49.9919 34.1367 49.9919C34.8184 49.9919 35.4693 50.2324 35.9671 50.6707C36.3544 51.0093 36.644 51.4492 36.8083 51.9399L41.0679 64.7367C41.3657 65.633 41.2128 66.6242 40.6563 67.388C40.1845 68.0357 39.4246 68.438 38.5704 68.4936L36.8457 68.6048C36.8311 68.6032 36.8165 68.6048 36.8018 68.6048Z" fill="white"/>
<path d="M68.4608 55.9258L66.9509 55.319C67.9076 52.9147 68.3729 50.1964 68.3729 47.0103C68.3729 40.975 66.2139 35.3552 62.2927 31.1861C58.3194 26.9614 52.8883 24.6356 47 24.6356C41.1117 24.6356 35.679 26.9614 31.7073 31.1861C27.7861 35.3535 25.6271 40.9734 25.6271 47.0087C25.6271 49.8317 26.1428 52.5811 27.1597 55.1833L25.6449 55.7819C24.5532 52.9883 24 50.0378 24 47.0087C24 40.553 26.3169 34.5341 30.5245 30.0608C34.8085 25.5073 40.6594 23 47 23C53.3406 23 59.1915 25.5073 63.4755 30.0624C67.6831 34.5357 70 40.5547 70 47.0103C70 50.4074 69.4956 53.3253 68.4608 55.9258Z" fill="white"/>
<path d="M64.315 51.904L62.7433 51.482C63.1289 50.0312 63.3241 48.5248 63.3241 47.0087C63.3241 37.1478 56.3067 29.7108 47.0016 29.7108C37.6964 29.7108 30.6773 37.1478 30.6773 47.0087C30.6773 48.4954 30.8661 49.9723 31.2354 51.3986L29.6621 51.8124C29.2569 50.252 29.0503 48.6361 29.0503 47.0087C29.0503 36.2155 36.7674 28.0752 46.9999 28.0752C57.2325 28.0752 64.9496 36.2155 64.9496 47.0087C64.9496 48.6688 64.7364 50.3158 64.315 51.904Z" fill="white"/>
<path d="M37.4914 37.2345C36.948 37.2345 36.4062 37.1053 35.9262 36.8599L33.3457 35.5433L34.0828 34.0844L36.6633 35.401C36.9171 35.5302 37.2034 35.5989 37.4914 35.5989C37.9145 35.5989 38.3294 35.455 38.6629 35.1917C41.0921 33.2748 43.9752 32.2623 46.9999 32.2623C50.0148 32.2623 52.8898 33.2698 55.3142 35.1737C55.8852 35.6218 56.6646 35.7052 57.3008 35.3847L59.9089 34.0729L60.6362 35.5351L58.0264 36.8469C56.8322 37.4471 55.3727 37.2966 54.3103 36.4609C52.1756 34.7828 49.6455 33.8963 46.9983 33.8963C44.3413 33.8963 41.8064 34.7893 39.6668 36.4772C39.0501 36.9663 38.2773 37.2345 37.4914 37.2345Z" fill="white"/>
</g>
</svg>
