<svg width="944" height="130" viewBox="0 0 944 130" fill="none" xmlns="http://www.w3.org/2000/svg">
<g filter="url(#filter0_f_14_13)">
<path d="M160.873 38.7C165.139 39.7 168.439 41.7667 170.773 44.9C173.173 47.9667 174.373 51.5333 174.373 55.6C174.373 61.8 172.306 66.6 168.173 70C164.106 73.3333 158.239 75 150.573 75H113.473V4.2H149.573C156.773 4.2 162.439 5.76667 166.573 8.9C170.706 12.0333 172.773 16.6 172.773 22.6C172.773 26.7333 171.673 30.2333 169.473 33.1C167.339 35.9 164.473 37.7667 160.873 38.7ZM135.673 31.8H144.273C146.273 31.8 147.739 31.4 148.673 30.6C149.673 29.8 150.173 28.5667 150.173 26.9C150.173 25.1667 149.673 23.9 148.673 23.1C147.739 22.2333 146.273 21.8 144.273 21.8H135.673V31.8ZM145.773 57.2C147.773 57.2 149.239 56.8333 150.173 56.1C151.173 55.3 151.673 54.0333 151.673 52.3C151.673 48.9 149.706 47.2 145.773 47.2H135.673V57.2H145.773ZM277.232 64.3H253.632L250.132 75H226.832L252.732 4.2H278.332L304.132 75H280.732L277.232 64.3ZM271.832 47.6L265.432 27.9L259.032 47.6H271.832ZM427.076 75H404.876L381.376 39.4V75H359.176V4.2H381.376L404.876 40.4V4.2H427.076V75ZM555.006 75H532.806L509.306 39.4V75H487.106V4.2H509.306L532.806 40.4V4.2H555.006V75ZM637.235 21.9V30.6H659.235V47.3H637.235V57.3H662.235V75H615.035V4.2H662.235V21.9H637.235ZM756.202 75L742.902 49.6H742.802V75H720.602V4.2H753.602C759.335 4.2 764.235 5.23333 768.302 7.3C772.368 9.3 775.402 12.0667 777.402 15.6C779.468 19.0667 780.502 23 780.502 27.4C780.502 32.1333 779.168 36.3333 776.502 40C773.902 43.6667 770.135 46.3 765.202 47.9L780.602 75H756.202ZM742.802 34.8H751.602C753.735 34.8 755.335 34.3333 756.402 33.4C757.468 32.4 758.002 30.8667 758.002 28.8C758.002 26.9333 757.435 25.4667 756.302 24.4C755.235 23.3333 753.668 22.8 751.602 22.8H742.802V34.8ZM62.1931 78.5C62.1931 82.9667 61.1598 87.0333 59.0931 90.7C57.0264 94.3 53.9598 97.1667 49.8931 99.3C45.8931 101.433 41.0264 102.5 35.2931 102.5H26.4931V125H4.29309V54.2H35.2931C43.9598 54.2 50.5931 56.4 55.1931 60.8C59.8598 65.2 62.1931 71.1 62.1931 78.5ZM32.7931 85C37.3931 85 39.6931 82.8333 39.6931 78.5C39.6931 74.1667 37.3931 72 32.7931 72H26.4931V85H32.7931ZM154.834 125L141.534 99.6H141.434V125H119.234V54.2H152.234C157.968 54.2 162.868 55.2333 166.934 57.3C171.001 59.3 174.034 62.0667 176.035 65.6C178.101 69.0667 179.135 73 179.135 77.4C179.135 82.1333 177.801 86.3333 175.134 90C172.535 93.6667 168.768 96.3 163.834 97.9L179.235 125H154.834ZM141.434 84.8H150.234C152.368 84.8 153.968 84.3333 155.034 83.4C156.101 82.4 156.634 80.8667 156.634 78.8C156.634 76.9333 156.068 75.4667 154.934 74.4C153.868 73.3333 152.301 72.8 150.234 72.8H141.434V84.8ZM258.427 54.2V125H236.227V54.2H258.427ZM386.353 125H364.153L340.653 89.4V125H318.453V54.2H340.653L364.153 90.4V54.2H386.353V125ZM444.383 89.5C444.383 82.5 445.783 76.2667 448.583 70.8C451.45 65.3333 455.516 61.1 460.783 58.1C466.05 55.0333 472.25 53.5 479.383 53.5C485.516 53.5 490.983 54.6667 495.783 57C500.65 59.2667 504.583 62.5 507.583 66.7C510.65 70.9 512.683 75.8 513.683 81.4H490.283C489.216 79.0667 487.683 77.2667 485.683 76C483.75 74.6667 481.516 74 478.983 74C475.25 74 472.283 75.4 470.083 78.2C467.95 81 466.883 84.7667 466.883 89.5C466.883 94.2333 467.95 98 470.083 100.8C472.283 103.6 475.25 105 478.983 105C481.516 105 483.75 104.367 485.683 103.1C487.683 101.767 489.216 99.9333 490.283 97.6H513.683C512.683 103.2 510.65 108.1 507.583 112.3C504.583 116.5 500.65 119.767 495.783 122.1C490.983 124.367 485.516 125.5 479.383 125.5C472.25 125.5 466.05 124 460.783 121C455.516 117.933 451.45 113.667 448.583 108.2C445.783 102.733 444.383 96.5 444.383 89.5ZM593.876 54.2V125H571.676V54.2H593.876ZM711.802 78.5C711.802 82.9667 710.769 87.0333 708.702 90.7C706.636 94.3 703.569 97.1667 699.502 99.3C695.502 101.433 690.636 102.5 684.902 102.5H676.102V125H653.902V54.2H684.902C693.569 54.2 700.202 56.4 704.802 60.8C709.469 65.2 711.802 71.1 711.802 78.5ZM682.402 85C687.002 85 689.302 82.8333 689.302 78.5C689.302 74.1667 687.002 72 682.402 72H676.102V85H682.402ZM814.244 114.3H790.644L787.144 125H763.844L789.744 54.2H815.344L841.144 125H817.744L814.244 114.3ZM808.844 97.6L802.444 77.9L796.044 97.6H808.844ZM918.388 108.2H939.788V125H896.188V54.2H918.388V108.2Z" fill="black"/>
</g>
<defs>
<filter id="filter0_f_14_13" x="0.293091" y="0.200001" width="943.495" height="129.3" filterUnits="userSpaceOnUse" color-interpolation-filters="sRGB">
<feFlood flood-opacity="0" result="BackgroundImageFix"/>
<feBlend mode="normal" in="SourceGraphic" in2="BackgroundImageFix" result="shape"/>
<feGaussianBlur stdDeviation="2" result="effect1_foregroundBlur_14_13"/>
</filter>
</defs>
</svg>
