<svg width="25" height="17" viewBox="0 0 25 17" fill="none" xmlns="http://www.w3.org/2000/svg">
<g clip-path="url(#clip0)">
<path d="M4.47534 1.94971H2.28735V15.0776H4.47534V1.94971Z" fill="black"/>
<path d="M9.97852 1.94946H7.79053V15.0774H9.97852V1.94946Z" fill="black"/>
<path d="M13.2937 1.94946H11.1057V15.0774H13.2937V1.94946Z" fill="black"/>
<path d="M21.9793 1.94946H18.7305V15.0774H21.9793V1.94946Z" fill="black"/>
<path d="M6.66338 1.94946H5.60254V15.0774H6.66338V1.94946Z" fill="black"/>
<path d="M15.4153 1.94946H14.3545V15.0774H15.4153V1.94946Z" fill="black"/>
<path d="M17.6033 1.94946H16.5425V15.0774H17.6033V1.94946Z" fill="black"/>
<path d="M21.9992 17H2.33385C1.04758 17 0 15.9524 0 14.6661V2.33385C0 1.04758 1.04758 0 2.33385 0H22.0058C23.2855 0 24.3331 1.04758 24.3331 2.33385V14.6661C24.3331 15.9524 23.2855 17 21.9992 17ZM2.33385 0.596724C1.37246 0.596724 0.596724 1.37247 0.596724 2.33385V14.6661C0.596724 15.6209 1.37246 16.4033 2.33385 16.4033H22.0058C22.9606 16.4033 23.743 15.6275 23.743 14.6661V2.33385C23.7363 1.37247 22.9606 0.596724 21.9992 0.596724H2.33385Z" fill="black"/>
</g>
<defs>
<clipPath id="clip0">
<rect width="24.3331" height="17" fill="white"/>
</clipPath>
</defs>
</svg>
