<svg width="94" height="94" viewBox="0 0 94 94" fill="none" xmlns="http://www.w3.org/2000/svg">
<mask id="mask0" style="mask-type:alpha" maskUnits="userSpaceOnUse" x="0" y="0" width="94" height="94">
<rect width="94" height="94" fill="white"/>
</mask>
<g mask="url(#mask0)">
<path d="M64.272 72.3157H30.728C29.0082 72.3157 27.6011 70.909 27.6011 69.1896V45.3097H21.9033C21.4343 45.3097 21.0347 44.9277 21.0347 44.4414L21 40.4817C21 40.2038 21.139 39.9433 21.3648 39.7696L46.8659 21.1693C47.1613 20.9436 47.5782 20.9436 47.8909 21.1693L57.2193 27.9252V24.7296C57.2193 24.2433 57.6014 23.8612 58.0878 23.8612H64.1331C64.6195 23.8612 65.0016 24.2433 65.0016 24.7296V33.3437L73.6526 39.787C73.8784 39.9433 74 40.2038 74 40.4817L73.9826 44.4761C73.9826 44.9624 73.6005 45.3445 73.1141 45.3445H67.3815V69.1896C67.3815 70.909 65.9918 72.3157 64.272 72.3157ZM22.7545 43.573H28.4697C28.9561 43.573 29.3382 43.9551 29.3382 44.4414V69.1896C29.3382 69.9538 29.9636 70.579 30.728 70.579H64.272C65.0364 70.579 65.6618 69.9538 65.6618 69.1896V44.4587C65.6618 43.9725 66.0439 43.5904 66.5303 43.5904H72.2455L72.2629 40.8985L63.6119 34.4552C63.3861 34.2989 63.2645 34.0384 63.2645 33.7606V25.598H58.9564V29.6098C58.9564 29.9398 58.7653 30.235 58.4874 30.3913C58.1921 30.5476 57.8446 30.5129 57.5841 30.3218L47.3871 22.9408L22.7371 40.9158L22.7545 43.573Z" fill="white"/>
<path d="M60.7283 43.3473C60.6415 42.9305 60.1377 42.7742 59.825 43.0694L57.393 45.5008C57.1846 45.7092 56.8545 45.7092 56.646 45.5008L54.3878 43.2431C54.1793 43.0347 54.1793 42.7047 54.3878 42.4963L56.8198 40.0649C57.1151 39.7697 56.9587 39.2486 56.5418 39.1618C54.8568 38.8318 53.0675 39.3181 51.7647 40.6207C50.3055 42.0795 49.8712 44.1636 50.4618 45.9871C50.5313 46.1782 50.4792 46.3866 50.3402 46.5429L41.6372 55.2438C41.4982 55.3828 41.2724 55.4349 41.0813 55.3654C39.2573 54.7749 37.1554 55.2091 35.7136 56.6679C34.4107 57.9705 33.9243 59.7767 34.2544 61.4439C34.3412 61.8607 34.845 62.017 35.1577 61.7218L37.5897 59.2904C37.7981 59.082 38.1282 59.082 38.3366 59.2904L40.5949 61.5481C40.8034 61.7565 40.8034 62.0865 40.5949 62.2949L38.1629 64.7263C37.8676 65.0216 38.024 65.5426 38.4409 65.6294C40.1259 65.9594 41.9151 65.4731 43.218 64.1706C44.6772 62.7117 45.1115 60.6277 44.5208 58.8041C44.4514 58.6131 44.5035 58.4047 44.6424 58.2484L53.3455 49.5474C53.4845 49.4085 53.7103 49.3564 53.9014 49.4258C55.7254 50.0163 57.8273 49.5821 59.2691 48.1233C60.572 46.8207 61.0584 45.0146 60.7283 43.3473Z" fill="white"/>
</g>
</svg>
