<svg width="24" height="24" viewBox="0 0 24 24" fill="none" xmlns="http://www.w3.org/2000/svg">
<path d="M10.7071 20.1379C15.3156 20.1379 19.0516 16.402 19.0516 11.7935C19.0516 7.18493 15.3156 3.44897 10.7071 3.44897C6.09857 3.44897 2.36262 7.18493 2.36262 11.7935C2.36262 16.402 6.09857 20.1379 10.7071 20.1379Z" fill="white"/>
<path d="M10.7201 20.289C8.42855 20.3051 6.22409 19.4123 4.58961 17.8062C2.95514 16.2 2.02393 14.0115 2 11.7201C2 6.56572 5.93697 3 10.7201 3H12.9605C17.709 3 22 6.56141 22 11.7201C22 16.4341 17.6831 20.289 12.9605 20.289H10.7201ZM10.7201 3.7166C9.15616 3.72086 7.6286 4.18846 6.33028 5.06033C5.03196 5.93219 4.02112 7.16923 3.4254 8.61523C2.82968 10.0612 2.6758 11.6513 2.9832 13.1847C3.2906 14.7181 4.04549 16.126 5.15254 17.2307C6.25959 18.3353 7.66914 19.0871 9.2032 19.3912C10.7373 19.6952 12.327 19.5379 13.7717 18.939C15.2164 18.3402 16.4512 17.3266 17.3203 16.0264C18.1893 14.7262 18.6536 13.1976 18.6544 11.6337C18.6544 10.594 18.4497 9.56451 18.0518 8.60396C17.6539 7.64342 17.0707 6.77064 16.3356 6.03547C15.6004 5.3003 14.7276 4.71713 13.7671 4.31925C12.8065 3.92138 11.777 3.7166 10.7373 3.7166H10.7201ZM8.94151 16.3089V6.94992C7.9949 7.313 7.18066 7.95462 6.6063 8.79008C6.03194 9.62554 5.72446 10.6156 5.72446 11.6294C5.72446 12.6432 6.03194 13.6333 6.6063 14.4687C7.18066 15.3042 7.9949 15.9458 8.94151 16.3089ZM15.7535 11.6337C15.7538 10.6183 15.4462 9.62663 14.8712 8.78965C14.2963 7.95266 13.481 7.3097 12.5331 6.94561V16.3132C13.4797 15.9496 14.2939 15.308 14.8688 14.4727C15.4436 13.6374 15.7521 12.6477 15.7535 11.6337Z" fill="#004A98"/>
</svg>
