<svg width="24" height="24" viewBox="0 0 24 24" fill="none" xmlns="http://www.w3.org/2000/svg">
<path d="M5.11786 9.69304C5.34847 9.61629 5.58998 9.57732 5.83302 9.57765C6.92388 9.57765 7.8341 10.3523 8.04267 11.3819L9.58869 11.0666C9.23371 9.31684 7.68729 8 5.83302 8C5.41997 7.9996 5.00957 8.06608 4.61777 8.19686L5.11786 9.69304Z" fill="#FFCB05"/>
<path d="M3.29352 14.7032L4.33895 13.5213C4.09976 13.3098 3.90823 13.05 3.77702 12.7589C3.64581 12.4679 3.57793 12.1523 3.57786 11.833C3.5778 11.5138 3.64555 11.1982 3.77664 10.9071C3.90772 10.616 4.09915 10.356 4.33825 10.1445L3.29262 8.96246C2.5004 9.66452 2 10.6901 2 11.8322C1.99943 12.3752 2.11449 12.912 2.33753 13.407C2.56056 13.9021 2.88645 14.3439 3.29352 14.7032Z" fill="#00A4E0"/>
<path d="M8.04207 12.2847C7.8327 13.3142 6.92308 14.0869 5.83303 14.0869C5.58979 14.0874 5.34811 14.0482 5.11746 13.971L4.61707 15.4679C5.00915 15.5985 5.41976 15.6649 5.83303 15.6645C7.68569 15.6645 9.2318 14.3498 9.58799 12.602L8.04207 12.2847Z" fill="#EF4123"/>
<path d="M10.9402 13.5711C10.88 13.4712 10.8262 13.3676 10.7792 13.2609C10.5344 12.6925 10.5227 12.1044 10.7292 11.5395C10.9565 10.9203 11.3907 10.4462 11.9517 10.2049C12.6571 9.90131 13.4372 9.96115 14.1134 10.3623C14.543 10.6087 14.8473 10.9891 15.0785 11.527C15.1085 11.5958 15.1338 11.6694 15.1592 11.7319L10.9402 13.5711ZM12.349 11.1179C11.8486 11.3331 11.5899 11.803 11.643 12.3539L13.7647 11.4407C13.4001 11.0124 12.9252 10.8698 12.349 11.1179ZM14.0295 13.1048C14.029 13.1052 14.0286 13.1056 14.0282 13.106L13.9842 13.076C13.8576 13.2815 13.6601 13.4479 13.4107 13.5564C12.9364 13.7627 12.4969 13.7097 12.1812 13.4328L12.1522 13.4769C12.1522 13.4769 12.1522 13.476 12.1513 13.476L11.613 14.2814C11.7469 14.3744 11.8903 14.453 12.0408 14.5158C12.6354 14.7628 13.2438 14.7514 13.8432 14.4907C14.2768 14.3029 14.6169 14.0163 14.8494 13.6532L14.0295 13.1048Z" fill="white"/>
<path d="M16.6341 9.01941V13.4967L17.3301 13.7789L16.9346 14.7018L16.1662 14.3815C15.9939 14.3069 15.876 14.1927 15.7875 14.0636C15.7026 13.9321 15.639 13.7516 15.639 13.5087V9.01941H16.6341Z" fill="white"/>
<path d="M18.4372 12.3562C18.4372 12.1751 18.4761 11.996 18.5511 11.8312C18.6262 11.6664 18.7357 11.5196 18.8724 11.4007L18.1582 10.6044C17.9101 10.8237 17.7114 11.0933 17.5752 11.3952C17.4391 11.6971 17.3686 12.0245 17.3683 12.3557C17.3681 12.6869 17.4382 13.0143 17.574 13.3164C17.7098 13.6185 17.9082 13.8883 18.156 14.108L18.8693 13.3108C18.7333 13.1917 18.6245 13.0449 18.5499 12.8803C18.4754 12.7156 18.437 12.5369 18.4372 12.3562Z" fill="white"/>
<path d="M19.7063 13.627C19.5695 13.6267 19.4337 13.6045 19.304 13.5613L18.9628 14.5752C19.2021 14.6555 19.4528 14.6965 19.7052 14.6965C20.8361 14.6976 21.7802 13.8953 21.9989 12.8287L20.9506 12.6147C20.8913 12.9008 20.7351 13.1577 20.5085 13.3421C20.2818 13.5265 19.9985 13.6272 19.7063 13.627Z" fill="white"/>
<path d="M19.7093 10.0179C19.4573 10.0175 19.2068 10.0578 18.9677 10.1373L19.3057 11.1524C19.4355 11.1095 19.5714 11.0875 19.7082 11.0875C20.001 11.0877 20.2847 11.1891 20.5113 11.3745C20.7379 11.5599 20.8934 11.8179 20.9516 12.1049L22 11.8923C21.7843 10.824 20.841 10.0187 19.7093 10.0179Z" fill="white"/>
</svg>
