<svg width="94" height="94" viewBox="0 0 94 94" fill="none" xmlns="http://www.w3.org/2000/svg">
<mask id="mask0" style="mask-type:alpha" maskUnits="userSpaceOnUse" x="0" y="0" width="94" height="94">
<rect width="94" height="94" fill="white"/>
</mask>
<g mask="url(#mask0)">
<path d="M52.7451 56.8315L53.1444 56.4133L55.7873 53.657L58.6964 54.2843L66.492 62.7053L69.3441 64.3021L62.9745 70.8793L61.1492 67.4766L52.7451 59.2457V56.8315Z" fill="white"/>
<path d="M34.5873 55.71L39.8351 61.3367L30.062 70.8793L25.4797 70.423L24.9854 66.7353L34.5873 55.71Z" fill="white"/>
<path d="M53.335 48.3534C53.0878 48.3534 52.8406 48.2584 52.6695 48.0683C52.2892 47.6881 52.2892 47.0988 52.6695 46.7186L57.7842 41.6052C58.3546 41.0349 59.1722 40.8638 59.9518 41.1299C62.8799 42.1374 65.7129 41.5481 67.7664 39.5142C69.6107 37.6703 70.4473 35.028 69.972 32.4618C69.972 32.4427 69.953 32.3857 69.8579 32.3477C69.8009 32.3287 69.7438 32.3287 69.6868 32.3857L65.9411 36.1305C65.1425 36.9289 63.8306 36.9289 63.013 36.1305L59.8567 32.975C59.0581 32.1766 59.0581 30.865 59.8567 30.0476L63.6024 26.3028C63.6594 26.2458 63.6594 26.1697 63.6404 26.1317C63.6214 26.0367 63.5454 26.0367 63.5263 26.0177C60.9595 25.5614 58.3166 26.3788 56.4723 28.2227C54.4378 30.2567 53.8484 33.1081 54.8561 36.0355C55.1223 36.8149 54.9512 37.6513 54.3807 38.2025L49.2851 43.335C48.9048 43.7152 48.3154 43.7152 47.9351 43.335C47.5548 42.9548 47.5548 42.3655 47.9351 41.9853L53.0498 36.8719C53.1068 36.8149 53.1068 36.7388 53.0688 36.6628C51.8139 33.032 52.5554 29.4583 55.1413 26.8921C57.4229 24.611 60.6933 23.5845 63.8686 24.1548C64.6291 24.2878 65.2376 24.8201 65.4657 25.5614C65.6939 26.3028 65.5038 27.1012 64.9524 27.6524L61.2067 31.3972C61.1496 31.4543 61.1496 31.5683 61.2067 31.6254L64.3629 34.7809C64.42 34.8379 64.5341 34.8379 64.5911 34.7809L68.3368 31.0361C68.8882 30.4848 69.6868 30.2947 70.4283 30.5228C71.1698 30.7509 71.7022 31.3592 71.8353 32.1196C72.4057 35.2941 71.379 38.5637 69.0974 40.8448C66.5305 43.411 62.9559 44.1714 59.3243 42.9168C59.2673 42.8978 59.1722 42.8978 59.1152 42.9358L54.0005 48.0493C53.8293 48.2584 53.5822 48.3534 53.335 48.3534Z" fill="white"/>
<path d="M28.1413 72.1529C27.0005 72.1529 25.9167 71.6966 25.0991 70.8982C24.2815 70.0809 23.8442 69.0163 23.8442 67.8568C23.8442 66.7162 24.3006 65.6327 25.0991 64.8153L40.9375 48.9807C41.3178 48.6005 41.9072 48.6005 42.2875 48.9807C42.6678 49.3609 42.6678 49.9502 42.2875 50.3303L26.4491 66.165C25.9928 66.6212 25.7456 67.2105 25.7456 67.8568C25.7456 68.5031 25.9928 69.0924 26.4491 69.5486C26.9054 70.0048 27.4949 70.2519 28.1413 70.2519C28.7878 70.2519 29.3772 70.0048 29.8336 69.5486L45.5769 53.809C45.9572 53.4288 46.5466 53.4288 46.9269 53.809C47.3071 54.1892 47.3071 54.7785 46.9269 55.1587L31.1835 70.8982C30.3659 71.6966 29.2821 72.1529 28.1413 72.1529Z" fill="white"/>
<path d="M36.2683 39.9946L34.9238 41.3387L51.1514 57.5625L52.4959 56.2183L36.2683 39.9946Z" fill="white"/>
<path d="M63.0319 71.5825C62.7848 71.5825 62.5376 71.4875 62.3665 71.2974L61.739 70.6701C61.6439 70.5751 61.5489 70.442 61.5108 70.2899L60.9404 68.5981L52.4223 60.082C52.3462 60.006 52.2892 59.9299 52.2512 59.8349L50.9773 57.3067C50.7871 56.9455 50.8632 56.5083 51.1484 56.2041L54.2666 53.0676L38.7324 37.5372L40.0824 36.1875L56.206 52.3073L58.6017 53.5048C58.6968 53.5429 58.7729 53.6189 58.8489 53.6759L67.3671 62.192L69.0593 62.7623C69.1924 62.8003 69.3255 62.8954 69.4396 62.9904L70.067 63.6177C70.2381 63.7888 70.3522 64.0359 70.3522 64.283C70.3522 64.5302 70.2571 64.7773 70.067 64.9484L63.7354 71.2784C63.5263 71.4685 63.2791 71.5825 63.0319 71.5825ZM53.8673 58.8654L62.4235 67.4195C62.5186 67.5146 62.6136 67.6477 62.6517 67.7997L63.108 69.1874L67.8994 64.3971L66.5114 63.9409C66.3783 63.9028 66.2452 63.8078 66.1312 63.7128L57.575 55.1586L55.7687 54.2652L52.9547 57.0976L53.8673 58.8654Z" fill="white"/>
<path d="M28.0083 46.6806C27.7612 46.6806 27.514 46.5856 27.3429 46.3955L22.2852 41.339C21.9049 40.9589 21.9049 40.3696 22.2852 39.9894L24.1866 38.0885C24.9852 37.2901 25.9168 37.2331 26.6774 37.195C27.3238 37.157 27.6851 37.119 27.9893 36.8339C28.1985 36.6248 28.2555 36.0735 28.3316 35.5413C28.4266 34.7048 28.5597 33.7354 29.2632 33.032L33.066 29.2302C35.7469 26.5499 40.7475 24.0597 45.8432 24.535C46.2995 24.573 46.6418 24.9341 46.6988 25.3714C46.8129 26.3218 46.6988 27.9946 46.6988 28.0707C46.6608 28.5649 46.2615 28.9451 45.7671 28.9641C44.3981 29.0021 41.9834 30.5799 39.4546 33.1081C38.5229 34.0395 40.1581 36.2636 40.1581 36.2826C40.4433 36.6628 40.4243 37.195 40.082 37.5372L36.2793 41.339C35.899 41.7192 35.3096 41.7192 34.9293 41.339C34.2638 40.6737 33.5793 40.3316 32.9329 40.3125C32.4195 40.3125 32.0392 40.5026 31.8491 40.6927C31.5449 40.9969 31.5829 41.6052 31.6209 42.1374C31.659 42.7457 31.697 43.392 31.2216 43.8483L28.6928 46.3765C28.4837 46.5856 28.2365 46.6806 28.0083 46.6806ZM24.2816 40.6737L28.0083 44.3995L29.7196 42.6887C29.7196 42.5746 29.7196 42.4036 29.7005 42.2705C29.6625 41.4721 29.5865 40.2745 30.4991 39.3811C31.0886 38.7918 31.9822 38.4306 32.9139 38.4306C32.9329 38.4306 32.9519 38.4306 32.9709 38.4306C33.6174 38.4497 34.549 38.6207 35.5568 39.3811L38.1807 36.7578C37.325 35.3512 36.6596 33.2221 38.1046 31.7774C39.6447 30.2377 42.4207 27.7665 44.8164 27.1962C44.8164 26.9491 44.8355 26.664 44.8164 26.3978C40.6334 26.3028 36.5265 28.4508 34.3779 30.5989L30.5752 34.4007C30.328 34.6478 30.2519 35.2371 30.1949 35.7884C30.0998 36.6058 29.9858 37.5182 29.3203 38.1835C28.5027 39.0009 27.552 39.0579 26.7915 39.096C26.164 39.134 25.8027 39.172 25.5175 39.4381L24.2816 40.6737Z" fill="white"/>
</g>
</svg>
