<svg width="94" height="94" viewBox="0 0 94 94" fill="none" xmlns="http://www.w3.org/2000/svg">
<mask id="mask0_2_1129" style="mask-type:alpha" maskUnits="userSpaceOnUse" x="0" y="0" width="94" height="94">
<rect width="94" height="94" fill="white"/>
</mask>
<g mask="url(#mask0_2_1129)">
<path d="M72.1707 56.5255V57.6579C72.1707 57.9576 72.1707 58.2574 72.1541 58.5238C72.0546 63.1366 71.192 64.552 71.0096 64.8351C70.8271 65.1349 69.9314 66.9999 67.7751 66.9999C65.6188 66.9999 64.4909 65.8509 64.4909 65.8509C64.4909 65.8509 59.0836 60.4222 58.0552 59.3898C57.9225 59.2565 57.7898 59.14 57.6571 59.0401C56.9107 58.4572 55.9984 58.1741 55.053 58.1741H38.9305C37.985 58.1741 37.0727 58.4739 36.3263 59.0401C36.1936 59.14 36.0609 59.2565 35.9282 59.3898C34.8999 60.4222 29.4925 65.8509 29.4925 65.8509C29.4925 65.8509 28.3646 66.9999 26.2083 66.9999C24.052 66.9999 23.1563 65.1349 22.9739 64.8351C22.808 64.552 21.9289 63.1366 21.8294 58.5238C21.8294 58.2407 21.8128 57.9576 21.8128 57.6579V56.5255C21.8128 55.7429 21.8294 54.9602 21.8791 54.1942C21.9952 52.2458 22.2772 50.3142 22.7085 48.4158C22.6587 49.1818 22.6421 49.9311 22.6421 50.6972V51.8295C22.6421 56.409 23.3554 58.0742 23.6705 58.5738C23.6871 58.6071 23.7037 58.6404 23.7369 58.6904C23.9691 59.1067 24.6823 60.3556 26.2083 60.3556C27.9665 60.3556 28.8954 59.4564 28.8954 59.4564L35.3311 52.9952C35.4804 52.8453 35.6463 52.6955 35.8121 52.5789C36.6912 51.9128 37.786 51.5298 38.9139 51.5298H55.0364C56.1643 51.5298 57.2756 51.8961 58.1381 52.5789C58.304 52.7121 58.4699 52.8453 58.6192 52.9952L65.0549 59.4564C65.0881 59.4897 66.0003 60.3723 67.7585 60.3723C69.2845 60.3723 69.9978 59.1233 70.23 58.707C70.2632 58.657 70.2798 58.6237 70.2963 58.5904C70.6115 58.0909 71.3247 56.4256 71.3247 51.8462V50.7138C71.3247 49.9478 71.3081 49.1984 71.2584 48.4324C71.6896 50.3308 71.9716 52.2625 72.0877 54.2108C72.1541 54.9602 72.1707 55.7429 72.1707 56.5255Z" fill="white"/>
<path d="M70.8603 40.9557C69.3343 35.4437 66.0998 28.8327 59.3655 28.8327C59.3655 28.8327 55.733 28.7328 52.482 30.6312C50.8565 31.5804 49.0153 32.0966 47.1244 32.1132H46.8756C45.0013 32.0966 43.1435 31.597 41.518 30.6312C38.267 28.7328 34.6344 28.8327 34.6344 28.8327C27.9002 28.8327 24.6657 35.4437 23.1397 40.9557C22.2606 44.1197 21.8293 47.4002 21.8293 50.6974V51.8298C21.8293 52.729 21.8625 53.5117 21.8957 54.1944C22.1279 57.6248 22.8246 58.7572 22.9738 59.007C23.1563 59.3067 24.052 61.1718 26.2083 61.1718C28.3646 61.1718 29.4925 60.0228 29.4925 60.0228C29.4925 60.0228 34.8998 54.5941 35.9282 53.5616C36.0609 53.4284 36.1936 53.3118 36.3263 53.2119C37.0727 52.6291 37.985 52.346 38.9305 52.346H55.0529C55.9984 52.346 56.9107 52.6457 57.6571 53.2119C57.7898 53.3118 57.9225 53.4284 58.0552 53.5616C59.0836 54.5941 64.4909 60.0228 64.4909 60.0228C64.4909 60.0228 65.6188 61.1718 67.7751 61.1718C69.9314 61.1718 70.8271 59.3067 71.0096 59.007C71.1588 58.7572 71.8555 57.6248 72.0877 54.1944C72.1375 53.495 72.1541 52.7124 72.1541 51.8298V50.6974C72.1706 47.4002 71.7394 44.1197 70.8603 40.9557ZM71.3413 50.6974V51.8298C71.3413 56.4092 70.6281 58.0745 70.3129 58.574C70.2963 58.6073 70.2797 58.6406 70.2466 58.6906C70.0143 59.1069 69.3011 60.3558 67.7751 60.3558C66.0169 60.3558 65.1212 59.4899 65.0714 59.44L58.6523 52.9621C58.503 52.8123 58.3372 52.6624 58.1713 52.5458C57.2922 51.8797 56.1974 51.4967 55.0695 51.4967H38.947C37.8191 51.4967 36.7078 51.8631 35.8453 52.5458C35.6794 52.679 35.5136 52.8123 35.3643 52.9621L28.9285 59.4233C28.9285 59.4233 27.9997 60.3225 26.2415 60.3225C24.7155 60.3225 24.0022 59.0736 23.77 58.6573C23.7534 58.6073 23.7203 58.574 23.7037 58.5407C23.3885 58.0411 22.6753 56.3759 22.6753 51.7965V50.6641C22.6753 49.8981 22.6919 49.1321 22.7416 48.3827C22.8909 45.9181 23.3056 43.5035 23.9525 41.1555C25.3955 35.9267 28.4309 29.6653 34.6344 29.6653H34.651C34.6842 29.6653 38.1011 29.5987 41.0868 31.3472C42.8284 32.363 44.8188 32.9126 46.859 32.9292H47.141C49.1646 32.9126 51.1716 32.363 52.9132 31.3472C55.6667 29.7319 58.8182 29.6653 59.2826 29.6653H59.3655C65.5691 29.6653 68.6045 35.9267 70.0641 41.1722C70.711 43.5202 71.1257 45.9348 71.275 48.3994C71.3247 49.1654 71.3413 49.9314 71.3413 50.6974Z" fill="white"/>
<path d="M71.6565 40.7393C69.3509 32.413 65.1046 28.0168 59.3821 28.0001C59.0836 28.0001 55.4179 27.9502 52.0673 29.9152C50.5745 30.7977 48.866 31.264 47.1244 31.2807H46.8756C45.134 31.264 43.4255 30.7977 41.9327 29.9152C38.5821 27.9502 34.9164 28.0001 34.6179 28.0001C28.8954 28.0001 24.6491 32.413 22.3435 40.7393C21.4478 43.9365 21 47.3003 21 50.6975V51.8298C21 54.7607 21.282 57.042 21.8459 58.5241C21.9786 58.8738 22.1113 59.1736 22.2772 59.44C22.2938 59.4567 22.2938 59.4733 22.3104 59.5066C23.488 61.5715 25.0804 62.0045 26.2249 62.0045C28.7129 62.0045 30.0399 60.6556 30.1062 60.6057L36.5254 54.1445C36.6249 54.0446 36.7244 53.9613 36.8405 53.8614C37.4211 53.4118 38.1675 53.162 38.9305 53.162H55.053C55.8159 53.162 56.5624 53.4118 57.1429 53.8614C57.259 53.9447 57.3585 54.0446 57.4581 54.1445L63.8938 60.6057C63.9435 60.6556 65.2871 62.0045 67.7751 62.0045C68.903 62.0045 70.512 61.5715 71.6896 59.5066C71.7062 59.4733 71.7228 59.4567 71.7228 59.44C71.8887 59.1736 72.0214 58.8738 72.1541 58.5241C72.7014 57.042 73 54.7607 73 51.8298V50.6975C73 47.3003 72.5522 43.9365 71.6565 40.7393ZM71.3413 50.6975V51.8298C71.3413 56.4093 70.6281 58.0745 70.3129 58.5741C70.2963 58.6074 70.2797 58.6407 70.2466 58.6906C70.0144 59.107 69.3011 60.3559 67.7751 60.3559C66.0169 60.3559 65.1212 59.49 65.0715 59.44L58.6523 52.9622C58.503 52.8123 58.3372 52.6624 58.1713 52.5459C57.2922 51.8798 56.1974 51.4968 55.0695 51.4968H38.947C37.8191 51.4968 36.7078 51.8631 35.8453 52.5459C35.6794 52.6791 35.5136 52.8123 35.3643 52.9622L28.9285 59.4234C28.9285 59.4234 27.9997 60.3226 26.2415 60.3226C24.7155 60.3226 24.0022 59.0737 23.77 58.6573C23.7534 58.6074 23.7203 58.5741 23.7037 58.5408C23.3885 58.0412 22.6753 56.3759 22.6753 51.7965V50.6641C22.6753 49.8981 22.6919 49.1321 22.7416 48.3828C22.8909 45.9182 23.3056 43.5036 23.9525 41.1556C25.3955 35.9267 28.4309 29.6654 34.6344 29.6654H34.651C34.6842 29.6654 38.1011 29.5988 41.0868 31.3473C42.8284 32.3631 44.8188 32.9126 46.859 32.9293H47.141C49.1646 32.9126 51.1716 32.3631 52.9132 31.3473C55.6667 29.732 58.8182 29.6654 59.2826 29.6654H59.3656C65.5691 29.6654 68.6045 35.9267 70.0641 41.1722C70.711 43.5202 71.1257 45.9348 71.275 48.3994C71.3247 49.1654 71.3413 49.9314 71.3413 50.6975Z" fill="white"/>
<path d="M39.3285 39.5569H35.9116V36.1265H32.926V39.5569H29.5091V42.571H32.926V45.9847H35.9116V42.571H39.3285V39.5569Z" fill="white"/>
<path d="M59.8466 39.457C60.7627 39.457 61.5053 38.7114 61.5053 37.7917C61.5053 36.872 60.7627 36.1265 59.8466 36.1265C58.9305 36.1265 58.1879 36.872 58.1879 37.7917C58.1879 38.7114 58.9305 39.457 59.8466 39.457Z" fill="white"/>
<path d="M59.8466 47.3835C60.7627 47.3835 61.5053 46.6379 61.5053 45.7182C61.5053 44.7985 60.7627 44.053 59.8466 44.053C58.9305 44.053 58.1879 44.7985 58.1879 45.7182C58.1879 46.6379 58.9305 47.3835 59.8466 47.3835Z" fill="white"/>
<path d="M63.9435 43.4201C64.8596 43.4201 65.6022 42.6745 65.6022 41.7548C65.6022 40.8352 64.8596 40.0896 63.9435 40.0896C63.0275 40.0896 62.2849 40.8352 62.2849 41.7548C62.2849 42.6745 63.0275 43.4201 63.9435 43.4201Z" fill="white"/>
<path d="M55.7496 43.4201C56.6657 43.4201 57.4083 42.6745 57.4083 41.7548C57.4083 40.8352 56.6657 40.0896 55.7496 40.0896C54.8336 40.0896 54.0909 40.8352 54.0909 41.7548C54.0909 42.6745 54.8336 43.4201 55.7496 43.4201Z" fill="white"/>
</g>
</svg>
