<svg width="94" height="94" viewBox="0 0 94 94" fill="none" xmlns="http://www.w3.org/2000/svg">
<mask id="mask0_229_913" style="mask-type:alpha" maskUnits="userSpaceOnUse" x="0" y="0" width="94" height="94">
<circle cx="47" cy="47" r="47" fill="#0D2586"/>
</mask>
<g mask="url(#mask0_229_913)">
<path d="M47.5 70.9984C34.5416 70.9984 24 60.4568 24 47.5C24 34.5432 34.5416 24 47.5 24C60.4584 24 71 34.5416 71 47.5C71 60.4584 60.4568 70.9984 47.5 70.9984ZM47.5 25.6166C35.4323 25.6166 25.6166 35.4323 25.6166 47.5C25.6166 59.566 35.4323 69.3834 47.5 69.3834C59.566 69.3834 69.3834 59.5677 69.3834 47.5C69.3818 35.4323 59.566 25.6166 47.5 25.6166Z" fill="white"/>
<path d="M47.5004 59.5294C40.8677 59.5294 35.4716 54.1333 35.4716 47.5005C35.4716 40.8678 40.8677 35.4717 47.5004 35.4717C54.1332 35.4717 59.5293 40.8678 59.5293 47.5005C59.5293 54.1333 54.1332 59.5294 47.5004 59.5294Z" fill="white"/>
<path d="M47.4999 51.603C45.2367 51.603 43.3954 49.7617 43.3954 47.4985C43.3954 45.2353 45.2367 43.394 47.4999 43.394C49.7631 43.394 51.6043 45.2353 51.6043 47.4985C51.6027 49.7617 49.7615 51.603 47.4999 51.603ZM47.4999 45.4552C46.3731 45.4552 45.4565 46.3718 45.4565 47.4985C45.4565 48.6252 46.3731 49.5418 47.4999 49.5418C48.6266 49.5418 49.5432 48.6252 49.5432 47.4985C49.5432 46.3718 48.6266 45.4552 47.4999 45.4552Z" fill="#0D2586"/>
<path d="M49.3461 40.1834C49.3461 41.2035 48.5201 42.0312 47.5 42.0312C46.48 42.0312 45.6523 41.2035 45.6523 40.1834C45.6523 39.1634 46.48 38.3357 47.5 38.3357C48.5201 38.3373 49.3461 39.1634 49.3461 40.1834Z" fill="#0D2586"/>
<path d="M49.3461 54.8148C49.3461 55.8348 48.5201 56.6625 47.5 56.6625C46.48 56.6625 45.6523 55.8348 45.6523 54.8148C45.6523 53.7947 46.48 52.967 47.5 52.967C48.5201 52.967 49.3461 53.7947 49.3461 54.8148Z" fill="#0D2586"/>
<path d="M42.0882 42.2415C42.9709 42.7523 43.2748 43.8807 42.764 44.7649C42.2531 45.6476 41.1248 45.9515 40.2405 45.4406C39.3579 44.9314 39.0539 43.8014 39.5648 42.9172C40.0756 42.0345 41.204 41.7322 42.0882 42.2415Z" fill="#0D2586"/>
<path d="M54.7584 49.558C55.641 50.0688 55.9449 51.1971 55.4341 52.0814C54.9232 52.964 53.7949 53.268 52.9106 52.7571C52.028 52.2479 51.7241 51.1179 52.2349 50.2337C52.7457 49.3494 53.8757 49.0471 54.7584 49.558Z" fill="#0D2586"/>
<path d="M40.2417 49.5583C41.1244 49.0491 42.2543 49.3514 42.7636 50.2341C43.2728 51.1183 42.9705 52.2467 42.0878 52.7575C41.2052 53.2684 40.0752 52.9645 39.5644 52.0818C39.0552 51.1975 39.3575 50.0676 40.2417 49.5583Z" fill="#0D2586"/>
<path d="M52.9108 42.2415C53.7935 41.7322 54.9235 42.0345 55.4343 42.9172C55.9435 43.7998 55.6412 44.9298 54.7586 45.4406C53.8759 45.9515 52.7459 45.6476 52.2351 44.7649C51.7259 43.8823 52.0282 42.7523 52.9108 42.2415Z" fill="#0D2586"/>
<path d="M47.4995 63.7466C38.5405 63.7466 31.2531 56.4575 31.2531 47.5001C31.2531 38.5428 38.5421 31.2537 47.4995 31.2537C56.4585 31.2537 63.746 38.5428 63.746 47.5001C63.746 56.4575 56.4585 63.7466 47.4995 63.7466ZM47.4995 32.8686C39.4329 32.8686 32.8696 39.4319 32.8696 47.4985C32.8696 55.5652 39.4329 62.1284 47.4995 62.1284C55.5662 62.1284 62.1294 55.5652 62.1294 47.4985C62.1294 39.4319 55.5662 32.8686 47.4995 32.8686Z" fill="white"/>
</g>
</svg>
