<svg width="94" height="94" viewBox="0 0 94 94" fill="none" xmlns="http://www.w3.org/2000/svg">
<mask id="mask0_231_364" style="mask-type:alpha" maskUnits="userSpaceOnUse" x="0" y="0" width="94" height="94">
<circle cx="47" cy="47" r="47" fill="#0D2586"/>
</mask>
<g mask="url(#mask0_231_364)">
<path d="M61.8448 68.6548H31.4546C28.9937 68.6548 27 66.7379 27 64.3718V29.283C27 26.9169 28.9937 25 31.4546 25H61.8448C64.3056 25 66.2993 26.9169 66.2993 29.283V64.3718C66.2993 66.7379 64.3056 68.6548 61.8448 68.6548ZM31.7559 66.9402H61.5434C63.1858 66.9402 64.5161 65.6611 64.5161 64.082V29.5745C64.5161 27.9954 63.1858 26.7163 61.5434 26.7163H31.7559C30.1136 26.7163 28.7833 27.9954 28.7833 29.5745V64.082C28.7833 65.6594 30.1153 66.9402 31.7559 66.9402Z" fill="white"/>
<path fill-rule="evenodd" clip-rule="evenodd" d="M54.3169 45.5171C56.9528 49.5899 55.6557 54.9461 51.4197 57.4804C47.1838 60.0148 41.6131 58.7676 38.9773 54.6948C36.3414 50.622 37.6385 45.2659 41.8745 42.7315C46.1104 40.1972 51.6811 41.4444 54.3169 45.5171ZM51.4841 48.8788C51.5411 49.1172 51.7605 49.2783 52.0048 49.2783C52.044 49.2783 52.0832 49.2732 52.1242 49.2663C52.4114 49.2029 52.5915 48.9251 52.5255 48.6491C51.9941 46.4236 50.1377 44.7364 47.7963 44.3524C47.5056 44.3044 47.2292 44.493 47.1793 44.7724C47.1294 45.0519 47.3255 45.3177 47.6162 45.3657C49.5314 45.6794 51.0489 47.058 51.4841 48.8788Z" fill="white"/>
<path d="M46.6496 62.9917C39.2616 62.9917 33.2521 57.2136 33.2521 50.1101C33.2521 43.0066 39.2616 37.2285 46.6496 37.2285C54.0359 37.2285 60.0472 43.0066 60.0472 50.1101C60.0472 57.2136 54.0377 62.9917 46.6496 62.9917ZM46.6496 38.9448C40.246 38.9448 35.0353 43.9548 35.0353 50.1118C35.0353 56.2689 40.246 61.2788 46.6496 61.2788C53.0533 61.2788 58.264 56.2689 58.264 50.1118C58.264 43.9548 53.0533 38.9448 46.6496 38.9448Z" fill="white"/>
<path d="M42.6177 33.6447H30.6878C30.1956 33.6447 29.7961 33.2607 29.7961 32.7874C29.7961 32.3142 30.1956 31.9302 30.6878 31.9302H41.7261V28.5953C41.7261 28.1221 42.1255 27.738 42.6177 27.738C43.1099 27.738 43.5094 28.1221 43.5094 28.5953V32.7874C43.5094 33.2607 43.1117 33.6447 42.6177 33.6447Z" fill="white"/>
<path d="M58.6188 33.981C57.005 33.981 55.6907 32.7191 55.6907 31.1657C55.6907 29.6123 57.005 28.3503 58.6188 28.3503C59.498 28.3503 60.3218 28.7241 60.88 29.3774C61.1921 29.7426 61.1386 30.2827 60.7587 30.5844C60.3789 30.8862 59.8172 30.833 59.5033 30.4678C59.284 30.2124 58.963 30.0666 58.6188 30.0666C57.9876 30.0666 57.474 30.5604 57.474 31.1674C57.474 31.7743 57.9876 32.2681 58.6188 32.2681C59.0005 32.2681 59.3553 32.0864 59.5693 31.7829C59.8457 31.3903 60.3985 31.2874 60.8069 31.5532C61.2153 31.8189 61.3222 32.3504 61.0458 32.7431C60.5002 33.5164 59.5925 33.981 58.6188 33.981Z" fill="white"/>
<path d="M53.8897 30.876H51.8746C51.3824 30.876 50.983 30.4919 50.983 30.0187C50.983 29.5454 51.3824 29.1614 51.8746 29.1614H53.8897C54.3818 29.1614 54.7813 29.5454 54.7813 30.0187C54.7813 30.4919 54.3818 30.876 53.8897 30.876Z" fill="white"/>
<path d="M48.4186 30.876H46.4036C45.9114 30.876 45.5119 30.4919 45.5119 30.0187C45.5119 29.5454 45.9114 29.1614 46.4036 29.1614H48.4186C48.9108 29.1614 49.3103 29.5454 49.3103 30.0187C49.3103 30.4919 48.9108 30.876 48.4186 30.876Z" fill="white"/>
</g>
</svg>
