<svg width="94" height="94" viewBox="0 0 94 94" fill="none" xmlns="http://www.w3.org/2000/svg">
<mask id="mask0" style="mask-type:alpha" maskUnits="userSpaceOnUse" x="0" y="0" width="94" height="94">
<rect width="94" height="94" fill="white"/>
</mask>
<g mask="url(#mask0)">
<path d="M55.3895 71H38.6089C37.3782 71 36.2193 70.5024 35.3459 69.5986C34.4776 68.6999 34 67.51 34 66.2491V26.7526C34 25.49 34.4776 24.3001 35.3476 23.4014C36.2209 22.4976 37.3782 22 38.6089 22H55.3895C56.6202 22 57.7791 22.4976 58.6524 23.4014C59.5207 24.3001 60 25.49 60 26.7526V66.2491C60 67.5117 59.5224 68.7016 58.6524 69.6003C57.7791 70.5024 56.6202 71 55.3895 71ZM38.6089 23.6925C37.8307 23.6925 37.096 24.009 36.5382 24.5862C35.9788 25.165 35.6699 25.9351 35.6699 26.7526V66.2491C35.6699 67.0666 35.9788 67.835 36.5399 68.4155C37.096 68.991 37.8307 69.3075 38.6105 69.3075H55.3911C56.1693 69.3075 56.904 68.991 57.4618 68.4155C58.0229 67.835 58.3318 67.0649 58.3318 66.2491V26.7526C58.3318 25.9351 58.0229 25.1667 57.4618 24.5862C56.9057 24.0107 56.171 23.6942 55.3911 23.6942H38.6089V23.6925Z" fill="white"/>
<path fill-rule="evenodd" clip-rule="evenodd" d="M49.8654 28.0658H43.8622C43.5032 28.0658 43.2109 27.7696 43.2109 27.4057C43.2109 27.0418 43.5032 26.7456 43.8622 26.7456H49.8654C50.2244 26.7456 50.5167 27.0418 50.5167 27.4057C50.5183 27.7713 50.2261 28.0658 49.8654 28.0658Z" fill="white"/>
<path d="M49.8654 28.2351H43.8622C43.4113 28.2351 43.0439 27.8627 43.0439 27.4057C43.0439 26.9488 43.4113 26.5764 43.8622 26.5764H49.8654C50.3163 26.5764 50.6836 26.9488 50.6836 27.4057C50.6853 27.8644 50.3179 28.2351 49.8654 28.2351ZM43.8622 26.9149C43.595 26.9149 43.3779 27.1349 43.3779 27.4057C43.3779 27.6766 43.595 27.8966 43.8622 27.8966H49.8654C50.1326 27.8966 50.3497 27.6766 50.3497 27.4057C50.3497 27.1349 50.1326 26.9149 49.8654 26.9149H43.8622Z" fill="white"/>
<path fill-rule="evenodd" clip-rule="evenodd" d="M48.1072 38.5104C49.1024 37.1818 50.4851 37.175 50.4851 37.175C50.4851 37.175 50.6905 38.4241 49.7019 39.6275C48.6465 40.9121 47.4476 40.7023 47.4476 40.7023C47.4476 40.7023 47.2221 39.6918 48.1072 38.5104Z" fill="white"/>
<path fill-rule="evenodd" clip-rule="evenodd" d="M47.5746 41.579C48.0856 41.579 49.0358 40.8665 50.2732 40.8665C52.4006 40.8665 53.2389 42.4016 53.2389 42.4016C53.2389 42.4016 51.6007 43.2495 51.6007 45.3093C51.6007 47.6314 53.6396 48.432 53.6396 48.432C53.6396 48.432 52.2136 52.4991 50.2882 52.4991C49.4032 52.4991 48.7152 51.8949 47.7834 51.8949C46.8332 51.8949 45.8914 52.5211 45.2769 52.5211C43.5185 52.5211 41.2959 48.6622 41.2959 45.5615C41.2959 42.5099 43.1762 40.9088 44.9396 40.9088C46.0884 40.9088 46.9785 41.579 47.5746 41.579Z" fill="white"/>
</g>
</svg>
