<svg width="269" height="97" viewBox="0 0 269 97" fill="none" xmlns="http://www.w3.org/2000/svg">
<path d="M36.838 46.512C34.918 46.512 33.3393 45.9573 32.102 44.848C30.9073 43.696 30.31 42.288 30.31 40.624C30.31 38.9173 30.9073 37.488 32.102 36.336C33.3393 35.184 34.918 34.608 36.838 34.608C38.7153 34.608 40.2513 35.184 41.446 36.336C42.6833 37.488 43.302 38.9173 43.302 40.624C43.302 42.288 42.6833 43.696 41.446 44.848C40.2513 45.9573 38.7153 46.512 36.838 46.512ZM103.029 46.448C98.8045 46.448 94.9218 45.4667 91.3805 43.504C87.8818 41.5413 85.0872 38.8107 82.9965 35.312C80.9485 31.7707 79.9245 27.8027 79.9245 23.408C79.9245 19.0133 80.9485 15.0667 82.9965 11.568C85.0872 8.06933 87.8818 5.33867 91.3805 3.376C94.9218 1.41333 98.8045 0.431999 103.029 0.431999C107.253 0.431999 111.114 1.41333 114.613 3.376C118.154 5.33867 120.927 8.06933 122.933 11.568C124.981 15.0667 126.005 19.0133 126.005 23.408C126.005 27.8027 124.981 31.7707 122.933 35.312C120.885 38.8107 118.111 41.5413 114.613 43.504C111.114 45.4667 107.253 46.448 103.029 46.448ZM103.029 36.464C106.613 36.464 109.471 35.2693 111.604 32.88C113.781 30.4907 114.869 27.3333 114.869 23.408C114.869 19.44 113.781 16.2827 111.604 13.936C109.471 11.5467 106.613 10.352 103.029 10.352C99.4018 10.352 96.5005 11.5253 94.3245 13.872C92.1912 16.2187 91.1245 19.3973 91.1245 23.408C91.1245 27.376 92.1912 30.5547 94.3245 32.944C96.5005 35.2907 99.4018 36.464 103.029 36.464ZM204.285 46H193.341L175.037 18.288V46H164.093V1.072H175.037L193.341 28.912V1.072H204.285V46ZM18.0053 96.448C14.7199 96.448 11.7759 95.9147 9.17325 94.848C6.57058 93.7813 4.47992 92.2027 2.90125 90.112C1.36525 88.0213 0.554584 85.504 0.46925 82.56H12.1173C12.2879 84.224 12.8639 85.504 13.8453 86.4C14.8266 87.2533 16.1066 87.68 17.6853 87.68C19.3066 87.68 20.5866 87.3173 21.5253 86.592C22.4639 85.824 22.9333 84.7787 22.9333 83.456C22.9333 82.3467 22.5493 81.4293 21.7813 80.704C21.0559 79.9787 20.1386 79.3813 19.0293 78.912C17.9626 78.4427 16.4266 77.9093 14.4213 77.312C11.5199 76.416 9.15192 75.52 7.31725 74.624C5.48258 73.728 3.90392 72.4053 2.58125 70.656C1.25858 68.9067 0.59725 66.624 0.59725 63.808C0.59725 59.6267 2.11192 56.3627 5.14125 54.016C8.17058 51.6267 12.1173 50.432 16.9813 50.432C21.9306 50.432 25.9199 51.6267 28.9493 54.016C31.9786 56.3627 33.5999 59.648 33.8133 63.872H21.9733C21.8879 62.4213 21.3546 61.2907 20.3733 60.48C19.3919 59.6267 18.1333 59.2 16.5972 59.2C15.2746 59.2 14.2079 59.5627 13.3973 60.288C12.5866 60.9707 12.1813 61.9733 12.1813 63.296C12.1813 64.7467 12.8639 65.8773 14.2292 66.688C15.5946 67.4987 17.7279 68.3733 20.6293 69.312C23.5306 70.2933 25.8773 71.232 27.6693 72.128C29.5039 73.024 31.0826 74.3253 32.4053 76.032C33.7279 77.7387 34.3893 79.936 34.3893 82.624C34.3893 85.184 33.7279 87.5093 32.4053 89.6C31.1253 91.6907 29.2479 93.3547 26.7733 94.592C24.2986 95.8293 21.3759 96.448 18.0053 96.448ZM112.036 51.072V96H101.092V77.504H84.0683V96H73.1243V51.072H84.0683V68.672H101.092V51.072H112.036ZM173.185 96.448C168.961 96.448 165.078 95.4667 161.537 93.504C158.038 91.5413 155.243 88.8107 153.153 85.312C151.105 81.7707 150.081 77.8027 150.081 73.408C150.081 69.0133 151.105 65.0667 153.153 61.568C155.243 58.0693 158.038 55.3387 161.537 53.376C165.078 51.4133 168.961 50.432 173.185 50.432C177.409 50.432 181.27 51.4133 184.769 53.376C188.31 55.3387 191.083 58.0693 193.089 61.568C195.137 65.0667 196.161 69.0133 196.161 73.408C196.161 77.8027 195.137 81.7707 193.089 85.312C191.041 88.8107 188.267 91.5413 184.769 93.504C181.27 95.4667 177.409 96.448 173.185 96.448ZM173.185 86.464C176.769 86.464 179.627 85.2693 181.761 82.88C183.937 80.4907 185.025 77.3333 185.025 73.408C185.025 69.44 183.937 66.2827 181.761 63.936C179.627 61.5467 176.769 60.352 173.185 60.352C169.558 60.352 166.657 61.5253 164.481 63.872C162.347 66.2187 161.281 69.3973 161.281 73.408C161.281 77.376 162.347 80.5547 164.481 82.944C166.657 85.2907 169.558 86.464 173.185 86.464ZM268.489 65.536C268.489 68.1387 267.892 70.528 266.697 72.704C265.503 74.8373 263.668 76.5653 261.193 77.888C258.719 79.2107 255.647 79.872 251.977 79.872H245.193V96H234.249V51.072H251.977C255.561 51.072 258.591 51.6907 261.065 52.928C263.54 54.1653 265.396 55.872 266.633 58.048C267.871 60.224 268.489 62.72 268.489 65.536ZM251.145 71.168C253.236 71.168 254.793 70.6773 255.817 69.696C256.841 68.7147 257.353 67.328 257.353 65.536C257.353 63.744 256.841 62.3573 255.817 61.376C254.793 60.3947 253.236 59.904 251.145 59.904H245.193V71.168H251.145Z" fill="white"/>
<path d="M32.102 44.848L31.4079 45.5678L31.4209 45.5804L31.4345 45.5926L32.102 44.848ZM32.102 36.336L31.4206 35.6041L31.4142 35.6101L31.4079 35.6162L32.102 36.336ZM41.446 36.336L40.7519 37.0558L40.7582 37.0619L40.7646 37.0679L41.446 36.336ZM41.446 44.848L42.1265 45.5808L42.1274 45.5799L41.446 44.848ZM36.838 45.512C35.1236 45.512 33.7952 45.023 32.7695 44.1034L31.4345 45.5926C32.8835 46.8917 34.7124 47.512 36.838 47.512V45.512ZM32.7961 44.1282C31.7975 43.1652 31.31 42.0173 31.31 40.624H29.31C29.31 42.5587 30.0172 44.2268 31.4079 45.5678L32.7961 44.1282ZM31.31 40.624C31.31 39.1802 31.8031 38.0134 32.7961 37.0558L31.4079 35.6162C30.0116 36.9626 29.31 38.6545 29.31 40.624H31.31ZM32.7834 37.0679C33.8103 36.1118 35.1339 35.608 36.838 35.608V33.608C34.7021 33.608 32.8684 34.2562 31.4206 35.6041L32.7834 37.0679ZM36.838 35.608C38.4932 35.608 39.7685 36.1076 40.7519 37.0558L42.1401 35.6162C40.7342 34.2604 38.9374 33.608 36.838 33.608V35.608ZM40.7646 37.0679C41.7965 38.0287 42.302 39.1919 42.302 40.624H44.302C44.302 38.6427 43.5701 36.9473 42.1274 35.6041L40.7646 37.0679ZM42.302 40.624C42.302 42.0054 41.8024 43.1498 40.7646 44.1161L42.1274 45.5799C43.5642 44.2422 44.302 42.5706 44.302 40.624H42.302ZM40.7656 44.1152C39.7838 45.0268 38.5039 45.512 36.838 45.512V47.512C38.9267 47.512 40.7188 46.8879 42.1265 45.5808L40.7656 44.1152ZM91.3805 43.504L90.8912 44.3762L90.8958 44.3787L91.3805 43.504ZM82.9965 35.312L82.1308 35.8126L82.1344 35.8188L82.1381 35.825L82.9965 35.312ZM82.9965 11.568L82.138 11.055L82.1335 11.0628L82.9965 11.568ZM91.3805 3.376L90.8957 2.50133L90.8912 2.50386L91.3805 3.376ZM114.613 3.376L114.123 4.24815L114.128 4.25065L114.613 3.376ZM122.933 11.568L122.065 12.0653L122.069 12.0732L122.933 11.568ZM122.933 35.312L123.796 35.8172L123.798 35.8126L122.933 35.312ZM114.613 43.504L115.102 44.3761L115.102 44.3761L114.613 43.504ZM111.604 32.88L110.865 32.2066L110.859 32.214L111.604 32.88ZM111.604 13.936L110.859 14.602L110.865 14.609L110.871 14.6159L111.604 13.936ZM94.3245 13.872L93.5912 13.192L93.5846 13.1993L94.3245 13.872ZM94.3245 32.944L93.5786 33.61L93.5848 33.617L93.5912 33.6239L94.3245 32.944ZM103.029 45.448C98.9665 45.448 95.2517 44.5062 91.8652 42.6293L90.8958 44.3787C94.592 46.4271 98.6425 47.448 103.029 47.448V45.448ZM91.8698 42.6319C88.5259 40.7561 85.8575 38.1503 83.8549 34.799L82.1381 35.825C84.3168 39.471 87.2377 42.3266 90.8912 44.3761L91.8698 42.6319ZM83.8622 34.8114C81.9087 31.4335 80.9245 27.6404 80.9245 23.408H78.9245C78.9245 27.9649 79.9883 32.1078 82.1308 35.8126L83.8622 34.8114ZM80.9245 23.408C80.9245 19.1755 81.9087 15.4058 83.8595 12.0732L82.1335 11.0628C79.9883 14.7275 78.9245 18.8512 78.9245 23.408H80.9245ZM83.8549 12.081C85.8575 8.72968 88.5259 6.12395 91.8698 4.24814L90.8912 2.50386C87.2377 4.55339 84.3168 7.40898 82.1381 11.055L83.8549 12.081ZM91.8652 4.25065C95.2517 2.37381 98.9665 1.432 103.029 1.432V-0.568001C98.6425 -0.568001 94.592 0.45285 90.8958 2.50135L91.8652 4.25065ZM103.029 1.432C107.091 1.432 110.782 2.37379 114.123 4.24814L115.102 2.50386C111.446 0.452873 107.414 -0.568001 103.029 -0.568001V1.432ZM114.128 4.25065C117.51 6.12521 120.151 8.72566 122.065 12.0653L123.8 11.0707C121.704 7.413 118.798 4.55213 115.097 2.50135L114.128 4.25065ZM122.069 12.0732C124.02 15.4058 125.005 19.1755 125.005 23.408H127.005C127.005 18.8512 125.941 14.7275 123.796 11.0628L122.069 12.0732ZM125.005 23.408C125.005 27.6404 124.02 31.4335 122.067 34.8114L123.798 35.8126C125.941 32.1078 127.005 27.9649 127.005 23.408H125.005ZM122.069 34.8068C120.11 38.1538 117.465 40.7571 114.123 42.6319L115.102 44.3761C118.757 42.3256 121.659 39.4675 123.796 35.8172L122.069 34.8068ZM114.123 42.6319C110.782 44.5062 107.091 45.448 103.029 45.448V47.448C107.414 47.448 111.446 46.4271 115.102 44.3761L114.123 42.6319ZM103.029 37.464C106.86 37.464 110.004 36.1744 112.35 33.546L110.859 32.214C108.939 34.3642 106.365 35.464 103.029 35.464V37.464ZM112.344 33.5533C114.722 30.9421 115.869 27.5262 115.869 23.408H113.869C113.869 27.1405 112.839 30.0392 110.865 32.2067L112.344 33.5533ZM115.869 23.408C115.869 19.2512 114.724 15.8294 112.338 13.2561L110.871 14.6159C112.837 16.736 113.869 19.6288 113.869 23.408H115.869ZM112.35 13.27C110.004 10.6416 106.86 9.352 103.029 9.352V11.352C106.365 11.352 108.939 12.4518 110.859 14.602L112.35 13.27ZM103.029 9.352C99.1644 9.352 95.9826 10.6132 93.5912 13.1921L95.0578 14.5519C97.0184 12.4375 99.6393 11.352 103.029 11.352V9.352ZM93.5846 13.1993C91.243 15.775 90.1245 19.2168 90.1245 23.408H92.1245C92.1245 19.5778 93.1393 16.6623 95.0644 14.5447L93.5846 13.1993ZM90.1245 23.408C90.1245 27.5606 91.245 30.9965 93.5786 33.61L95.0704 32.278C93.1373 30.1129 92.1245 27.1914 92.1245 23.408H90.1245ZM93.5912 33.6239C95.9826 36.2028 99.1644 37.464 103.029 37.464V35.464C99.6393 35.464 97.0184 34.3785 95.0578 32.2641L93.5912 33.6239ZM204.285 46V47H205.285V46H204.285ZM193.341 46L192.507 46.5511L192.803 47H193.341V46ZM175.037 18.288L175.871 17.7369L174.037 14.9596V18.288H175.037ZM175.037 46V47H176.037V46H175.037ZM164.093 46H163.093V47H164.093V46ZM164.093 1.072V0.0719986H163.093V1.072H164.093ZM175.037 1.072L175.873 0.522629L175.576 0.0719986H175.037V1.072ZM193.341 28.912L192.505 29.4614L194.341 32.2532V28.912H193.341ZM193.341 1.072V0.0719986H192.341V1.072H193.341ZM204.285 1.072H205.285V0.0719986H204.285V1.072ZM204.285 45H193.341V47H204.285V45ZM194.175 45.4489L175.871 17.7369L174.203 18.8391L192.507 46.5511L194.175 45.4489ZM174.037 18.288V46H176.037V18.288H174.037ZM175.037 45H164.093V47H175.037V45ZM165.093 46V1.072H163.093V46H165.093ZM164.093 2.072H175.037V0.0719986H164.093V2.072ZM174.201 1.62137L192.505 29.4614L194.177 28.3626L175.873 0.522629L174.201 1.62137ZM194.341 28.912V1.072H192.341V28.912H194.341ZM193.341 2.072H204.285V0.0719986H193.341V2.072ZM203.285 1.072V46H205.285V1.072H203.285ZM9.17325 94.848L8.79403 95.7733L8.79403 95.7733L9.17325 94.848ZM2.90125 90.112L2.0953 90.7041L2.10321 90.7146L2.90125 90.112ZM0.46925 82.56V81.56H-0.560155L-0.53033 82.589L0.46925 82.56ZM12.1173 82.56L13.112 82.458L13.0199 81.56H12.1173V82.56ZM13.8453 86.4L13.171 87.1385L13.1799 87.1467L13.1891 87.1546L13.8453 86.4ZM21.5253 86.592L22.1367 87.3833L22.1477 87.3748L22.1585 87.366L21.5253 86.592ZM21.7813 80.704L21.0741 81.4111L21.0842 81.4212L21.0946 81.431L21.7813 80.704ZM19.0293 78.912L18.6265 79.8273L18.633 79.8302L18.6396 79.833L19.0293 78.912ZM14.4213 77.312L14.1262 78.2675L14.1358 78.2704L14.4213 77.312ZM7.31725 74.624L6.87841 75.5226L7.31725 74.624ZM2.58125 70.656L3.37891 70.0529L3.37891 70.0529L2.58125 70.656ZM5.14125 54.016L5.75367 54.8066L5.76054 54.8012L5.14125 54.016ZM28.9493 54.016L28.3299 54.8012L28.3369 54.8065L28.9493 54.016ZM33.8133 63.872V64.872H34.865L34.812 63.8216L33.8133 63.872ZM21.9733 63.872L20.975 63.9307L21.0303 64.872H21.9733V63.872ZM20.3733 60.48L19.7171 61.2346L19.7266 61.2429L19.7364 61.251L20.3733 60.48ZM13.3973 60.288L14.0414 61.0529L14.0529 61.0432L14.064 61.0332L13.3973 60.288ZM14.2292 66.688L14.7398 65.8281L14.7398 65.8281L14.2292 66.688ZM20.6293 69.312L20.9497 68.3646L20.9371 68.3606L20.6293 69.312ZM27.6693 72.128L27.222 73.0225L27.2304 73.0266L27.6693 72.128ZM32.4053 76.032L31.6148 76.6446L31.6148 76.6446L32.4053 76.032ZM32.4053 89.6L31.5602 89.0654L31.5562 89.0716L31.5524 89.0778L32.4053 89.6ZM26.7733 94.592L26.326 93.6976L26.326 93.6976L26.7733 94.592ZM18.0053 95.448C14.8284 95.448 12.0163 94.9325 9.55247 93.9227L8.79403 95.7733C11.5355 96.8969 14.6114 97.448 18.0053 97.448V95.448ZM9.55247 93.9227C7.10316 92.9189 5.16186 91.4463 3.69929 89.5094L2.10321 90.7146C3.79797 92.959 6.03801 94.6438 8.79403 95.7733L9.55247 93.9227ZM3.70713 89.5199C2.3072 87.6145 1.5491 85.3005 1.46883 82.531L-0.53033 82.589C-0.439937 85.7075 0.423297 88.4282 2.09537 90.7041L3.70713 89.5199ZM0.46925 83.56H12.1173V81.56H0.46925V83.56ZM11.1225 82.662C11.3115 84.5048 11.9649 86.0373 13.171 87.1385L14.5195 85.6615C13.7629 84.9707 13.2644 83.9432 13.112 82.458L11.1225 82.662ZM13.1891 87.1546C14.3893 88.1983 15.9193 88.68 17.6853 88.68V86.68C16.2939 86.68 15.2639 86.3084 14.5014 85.6454L13.1891 87.1546ZM17.6853 88.68C19.4477 88.68 20.9686 88.2859 22.1367 87.3833L20.9138 85.8007C20.2046 86.3488 19.1655 86.68 17.6853 86.68V88.68ZM22.1585 87.366C23.3522 86.3893 23.9333 85.0477 23.9333 83.456H21.9333C21.9333 84.5097 21.5756 85.2587 20.892 85.818L22.1585 87.366ZM23.9333 83.456C23.9333 82.087 23.4469 80.9016 22.4679 79.977L21.0946 81.431C21.6516 81.9571 21.9333 82.6063 21.9333 83.456H23.9333ZM22.4884 79.9969C21.6576 79.1661 20.6265 78.5019 19.4189 77.991L18.6396 79.833C19.6507 80.2607 20.4543 80.7912 21.0741 81.4111L22.4884 79.9969ZM19.432 77.9967C18.3085 77.5023 16.726 76.9551 14.7067 76.3536L14.1358 78.2704C16.1272 78.8636 17.6167 79.383 18.6265 79.8273L19.432 77.9967ZM14.7163 76.3565C11.843 75.4692 9.52791 74.5907 7.75609 73.7254L6.87841 75.5226C8.77592 76.4493 11.1968 77.3628 14.1262 78.2675L14.7163 76.3565ZM7.75609 73.7254C6.0729 72.9034 4.61402 71.6864 3.37891 70.0529L1.78359 71.2591C3.19381 73.1242 4.89227 74.5526 6.87841 75.5226L7.75609 73.7254ZM3.37891 70.0529C2.2207 68.5211 1.59725 66.4686 1.59725 63.808H-0.40275C-0.40275 66.7794 0.296467 69.2923 1.78359 71.2591L3.37891 70.0529ZM1.59725 63.808C1.59725 59.9035 2.99336 56.9448 5.75365 54.8065L4.52885 53.2254C1.23048 55.7805 -0.40275 59.3498 -0.40275 63.808H1.59725ZM5.76054 54.8012C8.5717 52.5839 12.2823 51.432 16.9813 51.432V49.432C11.9522 49.432 7.76947 50.6694 4.52196 53.2308L5.76054 54.8012ZM16.9813 51.432C21.7702 51.432 25.5217 52.5862 28.33 54.8012L29.5685 53.2308C26.3181 50.6671 22.0909 49.432 16.9813 49.432V51.432ZM28.3369 54.8065C31.11 56.9548 32.6142 59.9557 32.8145 63.9224L34.812 63.8216C34.5857 59.3403 32.8471 55.7705 29.5616 53.2254L28.3369 54.8065ZM33.8133 62.872H21.9733V64.872H33.8133V62.872ZM22.9715 63.8133C22.8724 62.1285 22.2368 60.7224 21.0101 59.709L19.7364 61.251C20.4723 61.8589 20.9034 62.7142 20.975 63.9307L22.9715 63.8133ZM21.0294 59.7254C19.8342 58.686 18.3284 58.2 16.5972 58.2V60.2C17.9381 60.2 18.9497 60.5673 19.7171 61.2346L21.0294 59.7254ZM16.5972 58.2C15.0842 58.2 13.7621 58.6197 12.7305 59.5428L14.064 61.0332C14.6537 60.5056 15.4649 60.2 16.5972 60.2V58.2ZM12.7531 59.5231C11.6623 60.4416 11.1813 61.7579 11.1813 63.296H13.1813C13.1813 62.1888 13.5108 61.4997 14.0414 61.0529L12.7531 59.5231ZM11.1813 63.296C11.1813 65.1381 12.0846 66.5776 13.7187 67.5479L14.7398 65.8281C13.6432 65.1771 13.1813 64.3552 13.1813 63.296H11.1813ZM13.7187 67.5479C15.1823 68.4168 17.4014 69.3187 20.3214 70.2634L20.9371 68.3606C18.0544 67.4279 16.0069 66.5805 14.7398 65.8281L13.7187 67.5479ZM20.3088 70.2593C23.1869 71.2327 25.4865 72.1546 27.222 73.0224L28.1165 71.2336C26.268 70.3094 23.8743 69.3539 20.9497 68.3647L20.3088 70.2593ZM27.2304 73.0266C28.9197 73.8515 30.3804 75.0518 31.6148 76.6446L33.1957 75.4194C31.7848 73.5989 30.0882 72.1965 28.1081 71.2294L27.2304 73.0266ZM31.6148 76.6446C32.7712 78.1367 33.3893 80.1024 33.3893 82.624H35.3893C35.3893 79.7696 34.6846 77.3407 33.1957 75.4194L31.6148 76.6446ZM33.3893 82.624C33.3893 85.0017 32.778 87.1404 31.5602 89.0654L33.2503 90.1346C34.6778 87.8783 35.3893 85.3663 35.3893 82.624H33.3893ZM31.5524 89.0778C30.3823 90.9891 28.6554 92.5329 26.326 93.6976L27.2205 95.4864C29.8404 94.1765 31.8682 92.3923 33.2581 90.1222L31.5524 89.0778ZM26.326 93.6976C24.0173 94.852 21.2541 95.448 18.0053 95.448V97.448C21.4978 97.448 24.5799 96.8067 27.2205 95.4864L26.326 93.6976ZM112.036 51.072H113.036V50.072H112.036V51.072ZM112.036 96V97H113.036V96H112.036ZM101.092 96H100.092V97H101.092V96ZM101.092 77.504H102.092V76.504H101.092V77.504ZM84.0683 77.504V76.504H83.0683V77.504H84.0683ZM84.0683 96V97H85.0683V96H84.0683ZM73.1243 96H72.1243V97H73.1243V96ZM73.1243 51.072V50.072H72.1243V51.072H73.1243ZM84.0683 51.072H85.0683V50.072H84.0683V51.072ZM84.0683 68.672H83.0683V69.672H84.0683V68.672ZM101.092 68.672V69.672H102.092V68.672H101.092ZM101.092 51.072V50.072H100.092V51.072H101.092ZM111.036 51.072V96H113.036V51.072H111.036ZM112.036 95H101.092V97H112.036V95ZM102.092 96V77.504H100.092V96H102.092ZM101.092 76.504H84.0683V78.504H101.092V76.504ZM83.0683 77.504V96H85.0683V77.504H83.0683ZM84.0683 95H73.1243V97H84.0683V95ZM74.1243 96V51.072H72.1243V96H74.1243ZM73.1243 52.072H84.0683V50.072H73.1243V52.072ZM83.0683 51.072V68.672H85.0683V51.072H83.0683ZM84.0683 69.672H101.092V67.672H84.0683V69.672ZM102.092 68.672V51.072H100.092V68.672H102.092ZM101.092 52.072H112.036V50.072H101.092V52.072ZM161.537 93.504L161.047 94.3762L161.052 94.3787L161.537 93.504ZM153.153 85.312L152.287 85.8126L152.291 85.8188L152.294 85.825L153.153 85.312ZM153.153 61.568L152.294 61.055L152.29 61.0628L153.153 61.568ZM161.537 53.376L161.052 52.5013L161.047 52.5039L161.537 53.376ZM184.769 53.376L184.279 54.2482L184.284 54.2507L184.769 53.376ZM193.089 61.568L192.221 62.0653L192.226 62.0732L193.089 61.568ZM193.089 85.312L193.952 85.8172L193.954 85.8126L193.089 85.312ZM184.769 93.504L185.258 94.3761L185.258 94.3761L184.769 93.504ZM181.761 82.88L181.021 82.2066L181.015 82.214L181.761 82.88ZM181.761 63.936L181.015 64.602L181.021 64.609L181.027 64.6159L181.761 63.936ZM164.481 63.872L163.747 63.192L163.741 63.1993L164.481 63.872ZM164.481 82.944L163.735 83.61L163.741 83.617L163.747 83.6239L164.481 82.944ZM173.185 95.448C169.123 95.448 165.408 94.5062 162.021 92.6293L161.052 94.3787C164.748 96.4271 168.799 97.448 173.185 97.448V95.448ZM162.026 92.6319C158.682 90.7561 156.014 88.1503 154.011 84.799L152.294 85.825C154.473 89.471 157.394 92.3266 161.047 94.3761L162.026 92.6319ZM154.018 84.8114C152.065 81.4335 151.081 77.6404 151.081 73.408H149.081C149.081 77.9649 150.145 82.1078 152.287 85.8126L154.018 84.8114ZM151.081 73.408C151.081 69.1755 152.065 65.4058 154.016 62.0732L152.29 61.0628C150.145 64.7275 149.081 68.8512 149.081 73.408H151.081ZM154.011 62.081C156.014 58.7297 158.682 56.1239 162.026 54.2481L161.047 52.5039C157.394 54.5534 154.473 57.409 152.294 61.055L154.011 62.081ZM162.021 54.2507C165.408 52.3738 169.123 51.432 173.185 51.432V49.432C168.799 49.432 164.748 50.4529 161.052 52.5013L162.021 54.2507ZM173.185 51.432C177.247 51.432 180.938 52.3738 184.28 54.2481L185.258 52.5039C181.602 50.4529 177.571 49.432 173.185 49.432V51.432ZM184.284 54.2507C187.666 56.1252 190.307 58.7257 192.221 62.0653L193.956 61.0707C191.86 57.413 188.954 54.5521 185.254 52.5013L184.284 54.2507ZM192.226 62.0732C194.177 65.4058 195.161 69.1755 195.161 73.408H197.161C197.161 68.8512 196.097 64.7275 193.952 61.0628L192.226 62.0732ZM195.161 73.408C195.161 77.6404 194.177 81.4335 192.223 84.8114L193.954 85.8126C196.097 82.1078 197.161 77.9649 197.161 73.408H195.161ZM192.226 84.8068C190.267 88.1538 187.621 90.7571 184.28 92.6319L185.258 94.3761C188.913 92.3256 191.815 89.4675 193.952 85.8172L192.226 84.8068ZM184.28 92.6319C180.938 94.5062 177.247 95.448 173.185 95.448V97.448C177.571 97.448 181.602 96.4271 185.258 94.3761L184.28 92.6319ZM173.185 87.464C177.016 87.464 180.16 86.1744 182.507 83.546L181.015 82.214C179.095 84.3642 176.522 85.464 173.185 85.464V87.464ZM182.5 83.5533C184.878 80.9421 186.025 77.5262 186.025 73.408H184.025C184.025 77.1405 182.995 80.0392 181.021 82.2067L182.5 83.5533ZM186.025 73.408C186.025 69.2512 184.88 65.8294 182.494 63.2561L181.027 64.6159C182.993 66.736 184.025 69.6288 184.025 73.408H186.025ZM182.507 63.27C180.16 60.6416 177.016 59.352 173.185 59.352V61.352C176.522 61.352 179.095 62.4518 181.015 64.602L182.507 63.27ZM173.185 59.352C169.321 59.352 166.139 60.6132 163.747 63.1921L165.214 64.5519C167.175 62.4375 169.796 61.352 173.185 61.352V59.352ZM163.741 63.1993C161.399 65.775 160.281 69.2168 160.281 73.408H162.281C162.281 69.5778 163.296 66.6623 165.221 64.5447L163.741 63.1993ZM160.281 73.408C160.281 77.5606 161.401 80.9965 163.735 83.61L165.227 82.278C163.294 80.1129 162.281 77.1914 162.281 73.408H160.281ZM163.747 83.6239C166.139 86.2028 169.321 87.464 173.185 87.464V85.464C169.796 85.464 167.175 84.3785 165.214 82.2641L163.747 83.6239ZM266.697 72.704L267.57 73.1926L267.574 73.1853L266.697 72.704ZM261.193 77.888L260.722 77.0061L260.722 77.0061L261.193 77.888ZM245.193 79.872V78.872H244.193V79.872H245.193ZM245.193 96V97H246.193V96H245.193ZM234.249 96H233.249V97H234.249V96ZM234.249 51.072V50.072H233.249V51.072H234.249ZM261.065 52.928L261.512 52.0336L261.512 52.0336L261.065 52.928ZM245.193 59.904V58.904H244.193V59.904H245.193ZM245.193 71.168H244.193V72.168H245.193V71.168ZM267.489 65.536C267.489 67.9789 266.93 70.2015 265.821 72.2227L267.574 73.1853C268.853 70.8545 269.489 68.2985 269.489 65.536H267.489ZM265.825 72.2154C264.737 74.1584 263.053 75.7599 260.722 77.0061L261.665 78.7699C264.282 77.3708 266.269 75.5162 267.57 73.1926L265.825 72.2154ZM260.722 77.0061C258.43 78.231 255.531 78.872 251.977 78.872V80.872C255.762 80.872 259.007 80.1903 261.665 78.7699L260.722 77.0061ZM251.977 78.872H245.193V80.872H251.977V78.872ZM244.193 79.872V96H246.193V79.872H244.193ZM245.193 95H234.249V97H245.193V95ZM235.249 96V51.072H233.249V96H235.249ZM234.249 52.072H251.977V50.072H234.249V52.072ZM251.977 52.072C255.45 52.072 258.317 52.6719 260.618 53.8224L261.512 52.0336C258.864 50.7094 255.672 50.072 251.977 50.072V52.072ZM260.618 53.8224C262.935 54.9809 264.635 56.5565 265.764 58.5423L267.503 57.5537C266.157 55.1875 264.145 53.3498 261.512 52.0336L260.618 53.8224ZM265.764 58.5423C266.905 60.5495 267.489 62.8712 267.489 65.536H269.489C269.489 62.5688 268.836 59.8984 267.503 57.5537L265.764 58.5423ZM251.145 72.168C253.373 72.168 255.227 71.6467 256.509 70.418L255.125 68.974C254.36 69.7079 253.099 70.168 251.145 70.168V72.168ZM256.509 70.418C257.779 69.2012 258.353 67.5245 258.353 65.536H256.353C256.353 67.1315 255.904 68.2282 255.125 68.974L256.509 70.418ZM258.353 65.536C258.353 63.5475 257.779 61.8708 256.509 60.654L255.125 62.098C255.904 62.8438 256.353 63.9405 256.353 65.536H258.353ZM256.509 60.654C255.227 59.4252 253.373 58.904 251.145 58.904V60.904C253.099 60.904 254.36 61.3641 255.125 62.098L256.509 60.654ZM251.145 58.904H245.193V60.904H251.145V58.904ZM244.193 59.904V71.168H246.193V59.904H244.193ZM245.193 72.168H251.145V70.168H245.193V72.168Z" fill="white"/>
</svg>
