<svg width="274" height="148" viewBox="0 0 274 148" fill="none" xmlns="http://www.w3.org/2000/svg">
<path d="M38.365 47.512C35.8903 47.512 33.9063 46.8507 32.413 45.528C30.9197 44.2053 30.173 42.5413 30.173 40.536C30.173 38.488 30.9197 36.8027 32.413 35.48C33.9063 34.1147 35.8903 33.432 38.365 33.432C40.797 33.432 42.7597 34.1147 44.253 35.48C45.7463 36.8027 46.493 38.488 46.493 40.536C46.493 42.5413 45.7463 44.2053 44.253 45.528C42.7597 46.8507 40.797 47.512 38.365 47.512ZM105.843 47.448C101.576 47.448 97.6505 46.4453 94.0665 44.44C90.5252 42.4347 87.7092 39.6613 85.6185 36.12C83.5278 32.5787 82.4825 28.5893 82.4825 24.152C82.4825 19.7147 83.5278 15.7253 85.6185 12.184C87.7092 8.64266 90.5252 5.89066 94.0665 3.928C97.6505 1.92266 101.576 0.919998 105.843 0.919998C110.109 0.919998 114.013 1.92266 117.555 3.928C121.096 5.89066 123.891 8.64266 125.939 12.184C128.029 15.7253 129.075 19.7147 129.075 24.152C129.075 28.5893 128.029 32.5787 125.939 36.12C123.891 39.6613 121.075 42.4347 117.491 44.44C113.949 46.4453 110.067 47.448 105.843 47.448ZM105.843 34.2C108.659 34.2 110.835 33.304 112.371 31.512C113.907 29.6773 114.675 27.224 114.675 24.152C114.675 21.0373 113.907 18.584 112.371 16.792C110.835 14.9573 108.659 14.04 105.843 14.04C102.984 14.04 100.787 14.9573 99.2505 16.792C97.7145 18.584 96.9465 21.0373 96.9465 24.152C96.9465 27.224 97.7145 29.6773 99.2505 31.512C100.787 33.304 102.984 34.2 105.843 34.2ZM209.656 47H195.448L180.408 24.216V47H166.2V1.688H180.408L195.448 24.856V1.688H209.656V47ZM19.2718 97.448C13.8531 97.448 9.37308 96.1893 5.83175 93.672C2.33308 91.112 0.434417 87.3787 0.13575 82.472H15.2397C15.4531 85.0747 16.6051 86.376 18.6958 86.376C19.4638 86.376 20.1038 86.2053 20.6158 85.864C21.1704 85.48 21.4478 84.904 21.4478 84.136C21.4478 83.0693 20.8718 82.216 19.7198 81.576C18.5678 80.8933 16.7758 80.1253 14.3438 79.272C11.4424 78.248 9.03175 77.2453 7.11175 76.264C5.23442 75.2827 3.61308 73.8533 2.24775 71.976C0.882417 70.0987 0.221083 67.688 0.26375 64.744C0.26375 61.8 1.01042 59.304 2.50375 57.256C4.03975 55.1653 6.10908 53.5867 8.71175 52.52C11.3571 51.4533 14.3224 50.92 17.6078 50.92C23.1544 50.92 27.5491 52.2 30.7918 54.76C34.0771 57.32 35.8051 60.9253 35.9757 65.576H20.6798C20.6371 64.296 20.3171 63.3787 19.7198 62.824C19.1224 62.2693 18.3971 61.992 17.5438 61.992C16.9464 61.992 16.4558 62.2053 16.0718 62.632C15.6878 63.016 15.4958 63.5707 15.4958 64.296C15.4958 65.32 16.0504 66.1733 17.1597 66.856C18.3118 67.496 20.1251 68.2853 22.5998 69.224C25.4584 70.2907 27.8051 71.3147 29.6398 72.296C31.5171 73.2773 33.1384 74.6427 34.5037 76.392C35.8691 78.1413 36.5518 80.3387 36.5518 82.984C36.5518 85.7573 35.8691 88.2533 34.5037 90.472C33.1384 92.648 31.1544 94.3547 28.5518 95.592C25.9491 96.8293 22.8558 97.448 19.2718 97.448ZM115.464 51.688V97H101.256V79.336H87.7518V97H73.5438V51.688H87.7518V68.008H101.256V51.688H115.464ZM175.936 97.448C171.67 97.448 167.744 96.4453 164.16 94.44C160.619 92.4347 157.803 89.6613 155.712 86.12C153.622 82.5787 152.576 78.5893 152.576 74.152C152.576 69.7147 153.622 65.7253 155.712 62.184C157.803 58.6427 160.619 55.8907 164.16 53.928C167.744 51.9227 171.67 50.92 175.936 50.92C180.203 50.92 184.107 51.9227 187.648 53.928C191.19 55.8907 193.984 58.6427 196.032 62.184C198.123 65.7253 199.168 69.7147 199.168 74.152C199.168 78.5893 198.123 82.5787 196.032 86.12C193.984 89.6613 191.168 92.4347 187.584 94.44C184.043 96.4453 180.16 97.448 175.936 97.448ZM175.936 84.2C178.752 84.2 180.928 83.304 182.464 81.512C184 79.6773 184.768 77.224 184.768 74.152C184.768 71.0373 184 68.584 182.464 66.792C180.928 64.9573 178.752 64.04 175.936 64.04C173.078 64.04 170.88 64.9573 169.344 66.792C167.808 68.584 167.04 71.0373 167.04 74.152C167.04 77.224 167.808 79.6773 169.344 81.512C170.88 83.304 173.078 84.2 175.936 84.2ZM273.35 67.24C273.35 70.0987 272.688 72.7013 271.366 75.048C270.043 77.352 268.08 79.1867 265.478 80.552C262.918 81.9173 259.803 82.6 256.134 82.6H250.502V97H236.294V51.688H256.134C261.68 51.688 265.926 53.096 268.87 55.912C271.856 58.728 273.35 62.504 273.35 67.24ZM254.534 71.4C257.478 71.4 258.95 70.0133 258.95 67.24C258.95 64.4667 257.478 63.08 254.534 63.08H250.502V71.4H254.534ZM41.5159 132.84L36.7559 147H31.0159L26.2559 132.84H30.9759L33.8959 142.58L36.7959 132.84H41.5159ZM61.5898 144.86H56.8698L56.1698 147H51.5098L56.6898 132.84H61.8098L66.9698 147H62.2898L61.5898 144.86ZM60.5098 141.52L59.2298 137.58L57.9498 141.52H60.5098ZM85.0985 147L82.4385 141.92H82.4185V147H77.9785V132.84H84.5785C85.7252 132.84 86.7052 133.047 87.5185 133.46C88.3318 133.86 88.9385 134.413 89.3385 135.12C89.7518 135.813 89.9585 136.6 89.9585 137.48C89.9585 138.427 89.6918 139.267 89.1585 140C88.6385 140.733 87.8852 141.26 86.8985 141.58L89.9785 147H85.0985ZM82.4185 138.96H84.1785C84.6052 138.96 84.9252 138.867 85.1385 138.68C85.3518 138.48 85.4585 138.173 85.4585 137.76C85.4585 137.387 85.3452 137.093 85.1185 136.88C84.9052 136.667 84.5918 136.56 84.1785 136.56H82.4185V138.96ZM105.817 132.84V147H101.377V132.84H105.817ZM122.262 136.38V138.12H126.662V141.46H122.262V143.46H127.262V147H117.822V132.84H127.262V136.38H122.262ZM144.836 132.84C146.316 132.84 147.609 133.14 148.716 133.74C149.836 134.34 150.696 135.173 151.296 136.24C151.896 137.307 152.196 138.52 152.196 139.88C152.196 141.227 151.896 142.44 151.296 143.52C150.696 144.6 149.836 145.453 148.716 146.08C147.609 146.693 146.316 147 144.836 147H138.936V132.84H144.836ZM144.436 143.04C145.436 143.04 146.229 142.767 146.816 142.22C147.402 141.673 147.696 140.893 147.696 139.88C147.696 138.867 147.402 138.087 146.816 137.54C146.229 136.993 145.436 136.72 144.436 136.72H143.376V143.04H144.436ZM172.879 144.86H168.159L167.459 147H162.799L167.979 132.84H173.099L178.259 147H173.579L172.879 144.86ZM171.799 141.52L170.519 137.58L169.239 141.52H171.799ZM195.168 132.84C196.648 132.84 197.941 133.14 199.048 133.74C200.168 134.34 201.028 135.173 201.628 136.24C202.228 137.307 202.528 138.52 202.528 139.88C202.528 141.227 202.228 142.44 201.628 143.52C201.028 144.6 200.168 145.453 199.048 146.08C197.941 146.693 196.648 147 195.168 147H189.268V132.84H195.168ZM194.768 143.04C195.768 143.04 196.561 142.767 197.148 142.22C197.734 141.673 198.028 140.893 198.028 139.88C198.028 138.867 197.734 138.087 197.148 137.54C196.561 136.993 195.768 136.72 194.768 136.72H193.708V143.04H194.768ZM218.571 136.38V138.12H222.971V141.46H218.571V143.46H223.571V147H214.131V132.84H223.571V136.38H218.571ZM240.784 147.14C239.091 147.14 237.691 146.747 236.584 145.96C235.491 145.16 234.897 143.993 234.804 142.46H239.524C239.591 143.273 239.951 143.68 240.604 143.68C240.844 143.68 241.044 143.627 241.204 143.52C241.377 143.4 241.464 143.22 241.464 142.98C241.464 142.647 241.284 142.38 240.924 142.18C240.564 141.967 240.004 141.727 239.244 141.46C238.337 141.14 237.584 140.827 236.984 140.52C236.397 140.213 235.891 139.767 235.464 139.18C235.037 138.593 234.831 137.84 234.844 136.92C234.844 136 235.077 135.22 235.544 134.58C236.024 133.927 236.671 133.433 237.484 133.1C238.311 132.767 239.237 132.6 240.264 132.6C241.997 132.6 243.371 133 244.384 133.8C245.411 134.6 245.951 135.727 246.004 137.18H241.224C241.211 136.78 241.111 136.493 240.924 136.32C240.737 136.147 240.511 136.06 240.244 136.06C240.057 136.06 239.904 136.127 239.784 136.26C239.664 136.38 239.604 136.553 239.604 136.78C239.604 137.1 239.777 137.367 240.124 137.58C240.484 137.78 241.051 138.027 241.824 138.32C242.717 138.653 243.451 138.973 244.024 139.28C244.611 139.587 245.117 140.013 245.544 140.56C245.971 141.107 246.184 141.793 246.184 142.62C246.184 143.487 245.971 144.267 245.544 144.96C245.117 145.64 244.497 146.173 243.684 146.56C242.871 146.947 241.904 147.14 240.784 147.14Z" fill="white"/>
<path d="M32.413 45.528L31.75 46.2766L32.413 45.528ZM32.413 35.48L33.076 36.2286L33.0819 36.2234L33.0878 36.218L32.413 35.48ZM44.253 35.48L43.5782 36.218L43.5841 36.2234L43.59 36.2286L44.253 35.48ZM44.253 45.528L43.59 44.7794L43.59 44.7794L44.253 45.528ZM38.365 46.512C36.0735 46.512 34.3454 45.9037 33.076 44.7794L31.75 46.2766C33.4673 47.7976 35.7071 48.512 38.365 48.512V46.512ZM33.076 44.7794C31.7983 43.6477 31.173 42.2568 31.173 40.536H29.173C29.173 42.8259 30.0411 44.763 31.75 46.2766L33.076 44.7794ZM31.173 40.536C31.173 38.7655 31.8034 37.3558 33.076 36.2286L31.75 34.7314C30.0359 36.2496 29.173 38.2104 29.173 40.536H31.173ZM33.0878 36.218C34.3578 35.0569 36.0816 34.432 38.365 34.432V32.432C35.699 32.432 33.4549 33.1724 31.7382 34.742L33.0878 36.218ZM38.365 34.432C40.6005 34.432 42.3051 35.054 43.5782 36.218L44.9278 34.742C43.2143 33.1754 40.9935 32.432 38.365 32.432V34.432ZM43.59 36.2286C44.8626 37.3558 45.493 38.7655 45.493 40.536H47.493C47.493 38.2104 46.6301 36.2496 44.916 34.7314L43.59 36.2286ZM45.493 40.536C45.493 42.2568 44.8677 43.6477 43.59 44.7794L44.916 46.2766C46.6249 44.763 47.493 42.8259 47.493 40.536H45.493ZM43.59 44.7794C42.3175 45.9065 40.6087 46.512 38.365 46.512V48.512C40.9853 48.512 43.2019 47.7949 44.916 46.2766L43.59 44.7794ZM94.0665 44.44L93.5737 45.3102L93.5782 45.3127L94.0665 44.44ZM85.6185 36.12L84.7574 36.6284L84.7574 36.6284L85.6185 36.12ZM94.0665 3.928L94.5513 4.80266L94.5548 4.80068L94.0665 3.928ZM117.555 3.928L117.062 4.79821L117.07 4.80265L117.555 3.928ZM125.939 12.184L125.073 12.6846L125.077 12.6924L125.939 12.184ZM125.939 36.12L125.077 35.6116L125.073 35.6194L125.939 36.12ZM117.491 44.44L117.002 43.5673L116.998 43.5698L117.491 44.44ZM112.371 31.512L113.13 32.1628L113.137 32.1539L112.371 31.512ZM112.371 16.792L111.604 17.434L111.611 17.4428L112.371 16.792ZM99.2505 16.792L100.01 17.4428L100.017 17.4339L99.2505 16.792ZM99.2505 31.512L98.4837 32.154L98.4912 32.1628L99.2505 31.512ZM105.843 46.448C101.74 46.448 97.9837 45.4859 94.5548 43.5673L93.5782 45.3127C97.3173 47.4048 101.412 48.448 105.843 48.448V46.448ZM94.5592 43.5698C91.1719 41.6517 88.4823 39.0038 86.4796 35.6116L84.7574 36.6284C86.9361 40.3188 89.8784 43.2176 93.5738 45.3102L94.5592 43.5698ZM86.4796 35.6116C84.487 32.2364 83.4825 28.4251 83.4825 24.152H81.4825C81.4825 28.7535 82.5686 32.9209 84.7574 36.6284L86.4796 35.6116ZM83.4825 24.152C83.4825 19.8789 84.487 16.0676 86.4796 12.6924L84.7574 11.6756C82.5686 15.3831 81.4825 19.5505 81.4825 24.152H83.4825ZM86.4796 12.6924C88.4812 9.30196 91.1683 6.67753 94.5512 4.80265L93.5818 3.05334C89.882 5.1038 86.9371 7.98337 84.7574 11.6756L86.4796 12.6924ZM94.5548 4.80068C97.9837 2.88215 101.74 1.92 105.843 1.92V-0.0800018C101.412 -0.0800018 97.3173 0.963183 93.5782 3.05531L94.5548 4.80068ZM105.843 1.92C109.945 1.92 113.678 2.88212 117.062 4.79817L118.047 3.05783C114.348 0.963213 110.273 -0.0800018 105.843 -0.0800018V1.92ZM117.07 4.80265C120.451 6.67651 123.115 9.29846 125.073 12.6846L126.804 11.6834C124.666 7.98687 121.741 5.10482 118.039 3.05334L117.07 4.80265ZM125.077 12.6924C127.07 16.0676 128.075 19.8789 128.075 24.152H130.075C130.075 19.5505 128.988 15.3831 126.8 11.6756L125.077 12.6924ZM128.075 24.152C128.075 28.4251 127.07 32.2364 125.077 35.6116L126.8 36.6284C128.988 32.9209 130.075 28.7535 130.075 24.152H128.075ZM125.073 35.6194C123.115 39.0044 120.43 41.6494 117.002 43.5673L117.979 45.3127C121.719 43.2199 124.666 40.3183 126.804 36.6206L125.073 35.6194ZM116.998 43.5698C113.613 45.4868 109.901 46.448 105.843 46.448V48.448C110.232 48.448 114.286 47.4039 117.983 45.3102L116.998 43.5698ZM105.843 35.2C108.888 35.2 111.367 34.2195 113.13 32.1628L111.611 30.8612C110.302 32.3885 108.429 33.2 105.843 33.2V35.2ZM113.137 32.1539C114.862 30.0933 115.675 27.3907 115.675 24.152H113.675C113.675 27.0573 112.951 29.2614 111.604 30.8701L113.137 32.1539ZM115.675 24.152C115.675 20.876 114.865 18.1656 113.13 16.1412L111.611 17.4428C112.948 19.0024 113.675 21.1987 113.675 24.152H115.675ZM113.137 16.1501C111.377 14.0474 108.896 13.04 105.843 13.04V15.04C108.421 15.04 110.292 15.8673 111.604 17.4339L113.137 16.1501ZM105.843 13.04C102.751 13.04 100.247 14.0438 98.4837 16.1501L100.017 17.4339C101.326 15.8708 103.216 15.04 105.843 15.04V13.04ZM98.4912 16.1412C96.756 18.1656 95.9465 20.876 95.9465 24.152H97.9465C97.9465 21.1987 98.673 19.0024 100.01 17.4428L98.4912 16.1412ZM95.9465 24.152C95.9465 27.3907 96.7585 30.0933 98.4837 32.1539L100.017 30.8701C98.6705 29.2614 97.9465 27.0573 97.9465 24.152H95.9465ZM98.4912 32.1628C100.257 34.223 102.759 35.2 105.843 35.2V33.2C103.208 33.2 101.316 32.385 100.01 30.8612L98.4912 32.1628ZM209.656 47V48H210.656V47H209.656ZM195.448 47L194.613 47.5509L194.91 48H195.448V47ZM180.408 24.216L181.243 23.6651L179.408 20.8859V24.216H180.408ZM180.408 47V48H181.408V47H180.408ZM166.2 47H165.2V48H166.2V47ZM166.2 1.688V0.688H165.2V1.688H166.2ZM180.408 1.688L181.247 1.1435L180.951 0.688H180.408V1.688ZM195.448 24.856L194.609 25.4005L196.448 28.233V24.856H195.448ZM195.448 1.688V0.688H194.448V1.688H195.448ZM209.656 1.688H210.656V0.688H209.656V1.688ZM209.656 46H195.448V48H209.656V46ZM196.283 46.4491L181.243 23.6651L179.573 24.7669L194.613 47.5509L196.283 46.4491ZM179.408 24.216V47H181.408V24.216H179.408ZM180.408 46H166.2V48H180.408V46ZM167.2 47V1.688H165.2V47H167.2ZM166.2 2.688H180.408V0.688H166.2V2.688ZM179.569 2.2325L194.609 25.4005L196.287 24.3115L181.247 1.1435L179.569 2.2325ZM196.448 24.856V1.688H194.448V24.856H196.448ZM195.448 2.688H209.656V0.688H195.448V2.688ZM208.656 1.688V47H210.656V1.688H208.656ZM5.83175 93.672L5.24118 94.4791L5.25237 94.4871L5.83175 93.672ZM0.13575 82.472V81.472H-0.92697L-0.862403 82.5328L0.13575 82.472ZM15.2397 82.472L16.2364 82.3903L16.1611 81.472H15.2397V82.472ZM20.6158 85.864L21.1705 86.696L21.1777 86.6912L21.185 86.6862L20.6158 85.864ZM19.7198 81.576L19.2099 82.4363L19.2219 82.4434L19.2341 82.4502L19.7198 81.576ZM14.3438 79.272L14.0109 80.215L14.0127 80.2156L14.3438 79.272ZM7.11175 76.264L6.64848 77.1503L6.65664 77.1544L7.11175 76.264ZM2.24775 71.976L3.05649 71.3878L3.05649 71.3878L2.24775 71.976ZM0.26375 64.744L1.26365 64.7585L1.26375 64.7512V64.744H0.26375ZM2.50375 57.256L1.69786 56.6639L1.69574 56.6668L2.50375 57.256ZM8.71175 52.52L8.33778 51.5925L8.33253 51.5947L8.71175 52.52ZM30.7918 54.76L30.1721 55.5449L30.1771 55.5488L30.7918 54.76ZM35.9757 65.576V66.576H37.0131L36.9751 65.5393L35.9757 65.576ZM20.6798 65.576L19.6803 65.6093L19.7125 66.576H20.6798V65.576ZM16.0718 62.632L16.7789 63.3391L16.7975 63.3205L16.815 63.301L16.0718 62.632ZM17.1597 66.856L16.6357 67.7077L16.6546 67.7193L16.6741 67.7302L17.1597 66.856ZM22.5998 69.224L22.2451 70.159L22.2502 70.1609L22.5998 69.224ZM29.6398 72.296L29.1681 73.1778L29.1765 73.1822L29.6398 72.296ZM34.5037 76.392L33.7154 77.0073L33.7154 77.0073L34.5037 76.392ZM34.5037 90.472L35.3508 91.0035L35.3554 90.9961L34.5037 90.472ZM28.5518 95.592L28.1224 94.6889L28.5518 95.592ZM19.2718 96.448C14.0089 96.448 9.7454 95.2271 6.41113 92.8569L5.25237 94.4871C9.00077 97.1516 13.6972 98.448 19.2718 98.448V96.448ZM6.42226 92.865C3.19767 90.5055 1.41721 87.0656 1.1339 82.4112L-0.862403 82.5328C-0.548376 87.6918 1.4685 91.7185 5.24124 94.479L6.42226 92.865ZM0.13575 83.472H15.2397V81.472H0.13575V83.472ZM14.2431 82.5537C14.359 83.9676 14.7398 85.1872 15.515 86.0628C16.3191 86.9712 17.4275 87.376 18.6958 87.376V85.376C17.8734 85.376 17.3604 85.1301 17.0125 84.7372C16.6357 84.3115 16.3338 83.579 16.2364 82.3903L14.2431 82.5537ZM18.6958 87.376C19.6121 87.376 20.4576 87.1713 21.1705 86.696L20.0611 85.0319C19.7499 85.2394 19.3154 85.376 18.6958 85.376V87.376ZM21.185 86.6862C22.05 86.0873 22.4478 85.1795 22.4478 84.136H20.4478C20.4478 84.6285 20.2908 84.8727 20.0465 85.0418L21.185 86.6862ZM22.4478 84.136C22.4478 82.6155 21.5868 81.4693 20.2054 80.7018L19.2341 82.4502C20.1567 82.9627 20.4478 83.5232 20.4478 84.136H22.4478ZM20.2296 80.7157C18.9905 79.9814 17.1232 79.1875 14.6748 78.3284L14.0127 80.2156C16.4283 81.0632 18.145 81.8052 19.2099 82.4363L20.2296 80.7157ZM14.6766 78.329C11.801 77.3141 9.43458 76.3282 7.56686 75.3736L6.65664 77.1544C8.62892 78.1625 11.0838 79.1819 14.0109 80.215L14.6766 78.329ZM7.575 75.3778C5.84697 74.4745 4.33999 73.1526 3.05649 71.3878L1.43901 72.5642C2.88617 74.554 4.62187 76.0909 6.6485 77.1502L7.575 75.3778ZM3.05649 71.3878C1.84901 69.7275 1.22326 67.5448 1.26365 64.7585L-0.736145 64.7295C-0.781096 67.8312 -0.0841767 70.4698 1.43901 72.5642L3.05649 71.3878ZM1.26375 64.744C1.26375 61.9764 1.96255 59.6955 3.31176 57.8452L1.69574 56.6668C0.0582824 58.9125 -0.73625 61.6236 -0.73625 64.744H1.26375ZM3.30963 57.8481C4.72763 55.918 6.6436 54.4483 9.09097 53.4453L8.33253 51.5947C5.57456 52.725 3.35187 54.4126 1.69787 56.6639L3.30963 57.8481ZM9.08572 53.4474C11.5956 52.4354 14.4313 51.92 17.6078 51.92V49.92C14.2135 49.92 11.1186 50.4713 8.33778 51.5926L9.08572 53.4474ZM17.6078 51.92C23.0063 51.92 27.158 53.1653 30.1721 55.5449L31.4114 53.9751C27.9402 51.2347 23.3025 49.92 17.6078 49.92V51.92ZM30.1771 55.5488C33.2003 57.9045 34.8152 61.2182 34.9764 65.6127L36.9751 65.5393C36.795 60.6324 34.9539 56.7355 31.4064 53.9712L30.1771 55.5488ZM35.9757 64.576H20.6798V66.576H35.9757V64.576ZM21.6792 65.5427C21.6326 64.144 21.2795 62.9077 20.4002 62.0912L19.0393 63.5568C19.3547 63.8496 19.6416 64.448 19.6803 65.6093L21.6792 65.5427ZM20.4002 62.0912C19.6086 61.3561 18.6365 60.992 17.5438 60.992V62.992C18.1577 62.992 18.6363 63.1825 19.0393 63.5568L20.4002 62.0912ZM17.5438 60.992C16.676 60.992 15.9107 61.3161 15.3285 61.963L16.815 63.301C17.0008 63.0945 17.2168 62.992 17.5438 62.992V60.992ZM15.3646 61.9249C14.7368 62.5527 14.4958 63.3974 14.4958 64.296H16.4958C16.4958 63.744 16.6387 63.4793 16.7789 63.3391L15.3646 61.9249ZM14.4958 64.296C14.4958 65.7631 15.3226 66.8996 16.6357 67.7077L17.6838 66.0043C16.7782 65.447 16.4958 64.8769 16.4958 64.296H14.4958ZM16.6741 67.7302C17.8918 68.4067 19.7608 69.2167 22.2451 70.159L22.9544 68.289C20.4894 67.354 18.7317 66.5853 17.6454 65.9818L16.6741 67.7302ZM22.2502 70.1609C25.0843 71.2184 27.3864 72.2248 29.1681 73.1778L30.1114 71.4142C28.2238 70.4046 25.8325 69.3629 22.9493 68.2871L22.2502 70.1609ZM29.1765 73.1822C30.9214 74.0943 32.4336 75.3649 33.7154 77.0073L35.2921 75.7767C33.8432 73.9204 32.1128 72.4603 30.103 71.4098L29.1765 73.1822ZM33.7154 77.0073C34.9186 78.5488 35.5518 80.5173 35.5518 82.984H37.5518C37.5518 80.1601 36.8196 77.7338 35.2921 75.7767L33.7154 77.0073ZM35.5518 82.984C35.5518 85.5847 34.9141 87.8971 33.6521 89.9479L35.3554 90.9961C36.8241 88.6095 37.5518 85.9299 37.5518 82.984H35.5518ZM33.6567 89.9405C32.4044 91.9363 30.5749 93.5229 28.1224 94.6889L28.9811 96.4951C31.734 95.1864 33.8724 93.3597 35.3508 91.0035L33.6567 89.9405ZM28.1224 94.6889C25.6825 95.8488 22.7425 96.448 19.2718 96.448V98.448C22.969 98.448 26.2157 97.8098 28.9811 96.4951L28.1224 94.6889ZM115.464 51.688H116.464V50.688H115.464V51.688ZM115.464 97V98H116.464V97H115.464ZM101.256 97H100.256V98H101.256V97ZM101.256 79.336H102.256V78.336H101.256V79.336ZM87.7518 79.336V78.336H86.7518V79.336H87.7518ZM87.7518 97V98H88.7518V97H87.7518ZM73.5438 97H72.5438V98H73.5438V97ZM73.5438 51.688V50.688H72.5438V51.688H73.5438ZM87.7518 51.688H88.7518V50.688H87.7518V51.688ZM87.7518 68.008H86.7518V69.008H87.7518V68.008ZM101.256 68.008V69.008H102.256V68.008H101.256ZM101.256 51.688V50.688H100.256V51.688H101.256ZM114.464 51.688V97H116.464V51.688H114.464ZM115.464 96H101.256V98H115.464V96ZM102.256 97V79.336H100.256V97H102.256ZM101.256 78.336H87.7518V80.336H101.256V78.336ZM86.7518 79.336V97H88.7518V79.336H86.7518ZM87.7518 96H73.5438V98H87.7518V96ZM74.5438 97V51.688H72.5438V97H74.5438ZM73.5438 52.688H87.7518V50.688H73.5438V52.688ZM86.7518 51.688V68.008H88.7518V51.688H86.7518ZM87.7518 69.008H101.256V67.008H87.7518V69.008ZM102.256 68.008V51.688H100.256V68.008H102.256ZM101.256 52.688H115.464V50.688H101.256V52.688ZM164.16 94.44L163.667 95.3102L163.672 95.3127L164.16 94.44ZM155.712 86.12L154.851 86.6284L154.851 86.6284L155.712 86.12ZM164.16 53.928L164.645 54.8027L164.649 54.8007L164.16 53.928ZM187.648 53.928L187.155 54.7982L187.164 54.8027L187.648 53.928ZM196.032 62.184L195.167 62.6846L195.171 62.6924L196.032 62.184ZM196.032 86.12L195.171 85.6116L195.167 85.6194L196.032 86.12ZM187.584 94.44L187.096 93.5673L187.092 93.5698L187.584 94.44ZM182.464 81.512L183.224 82.1628L183.231 82.1539L182.464 81.512ZM182.464 66.792L181.697 67.434L181.705 67.4428L182.464 66.792ZM169.344 66.792L170.104 67.4428L170.111 67.4339L169.344 66.792ZM169.344 81.512L168.577 82.154L168.585 82.1628L169.344 81.512ZM175.936 96.448C171.834 96.448 168.077 95.4859 164.649 93.5673L163.672 95.3127C167.411 97.4048 171.506 98.448 175.936 98.448V96.448ZM164.653 93.5698C161.266 91.6517 158.576 89.0038 156.573 85.6116L154.851 86.6284C157.03 90.3188 159.972 93.2176 163.668 95.3102L164.653 93.5698ZM156.573 85.6116C154.581 82.2364 153.576 78.4251 153.576 74.152H151.576C151.576 78.7535 152.662 82.9209 154.851 86.6284L156.573 85.6116ZM153.576 74.152C153.576 69.8789 154.581 66.0676 156.573 62.6924L154.851 61.6756C152.662 65.3831 151.576 69.5505 151.576 74.152H153.576ZM156.573 62.6924C158.575 59.302 161.262 56.6775 164.645 54.8027L163.676 53.0533C159.976 55.1038 157.031 57.9834 154.851 61.6756L156.573 62.6924ZM164.649 54.8007C168.077 52.8821 171.834 51.92 175.936 51.92V49.92C171.506 49.92 167.411 50.9632 163.672 53.0553L164.649 54.8007ZM175.936 51.92C180.039 51.92 183.772 52.8821 187.156 54.7982L188.141 53.0578C184.442 50.9632 180.367 49.92 175.936 49.92V51.92ZM187.164 54.8027C190.545 56.6765 193.208 59.2985 195.167 62.6846L196.898 61.6834C194.76 57.9869 191.835 55.1048 188.133 53.0533L187.164 54.8027ZM195.171 62.6924C197.164 66.0676 198.168 69.8789 198.168 74.152H200.168C200.168 69.5505 199.082 65.3831 196.893 61.6756L195.171 62.6924ZM198.168 74.152C198.168 78.4251 197.164 82.2364 195.171 85.6116L196.893 86.6284C199.082 82.9209 200.168 78.7535 200.168 74.152H198.168ZM195.167 85.6194C193.209 89.0044 190.524 91.6494 187.096 93.5673L188.073 95.3127C191.813 93.2199 194.76 90.3183 196.898 86.6206L195.167 85.6194ZM187.092 93.5698C183.706 95.4868 179.994 96.448 175.936 96.448V98.448C180.326 98.448 184.38 97.4039 188.077 95.3102L187.092 93.5698ZM175.936 85.2C178.982 85.2 181.461 84.2195 183.224 82.1628L181.705 80.8612C180.396 82.3885 178.522 83.2 175.936 83.2V85.2ZM183.231 82.1539C184.956 80.0933 185.768 77.3907 185.768 74.152H183.768C183.768 77.0573 183.044 79.2614 181.697 80.8701L183.231 82.1539ZM185.768 74.152C185.768 70.876 184.959 68.1656 183.224 66.1412L181.705 67.4428C183.042 69.0024 183.768 71.1987 183.768 74.152H185.768ZM183.231 66.1501C181.471 64.0474 178.99 63.04 175.936 63.04V65.04C178.514 65.04 180.386 65.8673 181.697 67.4339L183.231 66.1501ZM175.936 63.04C172.845 63.04 170.341 64.0438 168.577 66.1501L170.111 67.4339C171.42 65.8708 173.31 65.04 175.936 65.04V63.04ZM168.585 66.1412C166.85 68.1656 166.04 70.876 166.04 74.152H168.04C168.04 71.1987 168.767 69.0024 170.104 67.4428L168.585 66.1412ZM166.04 74.152C166.04 77.3907 166.852 80.0933 168.577 82.1539L170.111 80.8701C168.764 79.2614 168.04 77.0573 168.04 74.152H166.04ZM168.585 82.1628C170.351 84.223 172.853 85.2 175.936 85.2V83.2C173.302 83.2 171.41 82.385 170.104 80.8612L168.585 82.1628ZM271.366 75.048L272.233 75.5459L272.237 75.539L271.366 75.048ZM265.478 80.552L265.013 79.6664L265.007 79.6696L265.478 80.552ZM250.502 82.6V81.6H249.502V82.6H250.502ZM250.502 97V98H251.502V97H250.502ZM236.294 97H235.294V98H236.294V97ZM236.294 51.688V50.688H235.294V51.688H236.294ZM268.87 55.912L268.179 56.6347L268.184 56.6396L268.87 55.912ZM250.502 63.08V62.08H249.502V63.08H250.502ZM250.502 71.4H249.502V72.4H250.502V71.4ZM272.35 67.24C272.35 69.9375 271.728 72.3694 270.495 74.557L272.237 75.539C273.649 73.0333 274.35 70.2598 274.35 67.24H272.35ZM270.499 74.5501C269.28 76.672 267.466 78.3797 265.013 79.6665L265.942 81.4375C268.695 79.9936 270.806 78.032 272.233 75.5459L270.499 74.5501ZM265.007 79.6696C262.625 80.94 259.681 81.6 256.134 81.6V83.6C259.925 83.6 263.21 82.8947 265.948 81.4344L265.007 79.6696ZM256.134 81.6H250.502V83.6H256.134V81.6ZM249.502 82.6V97H251.502V82.6H249.502ZM250.502 96H236.294V98H250.502V96ZM237.294 97V51.688H235.294V97H237.294ZM236.294 52.688H256.134V50.688H236.294V52.688ZM256.134 52.688C261.518 52.688 265.479 54.0529 268.179 56.6346L269.561 55.1894C266.372 52.1391 261.843 50.688 256.134 50.688V52.688ZM268.184 56.6396C270.939 59.2371 272.35 62.7331 272.35 67.24H274.35C274.35 62.2749 272.774 58.2189 269.556 55.1844L268.184 56.6396ZM254.534 72.4C256.146 72.4 257.54 72.0216 258.531 71.0879C259.534 70.1437 259.95 68.7966 259.95 67.24H257.95C257.95 68.4567 257.63 69.1897 257.16 69.6321C256.679 70.0851 255.866 70.4 254.534 70.4V72.4ZM259.95 67.24C259.95 65.6834 259.534 64.3363 258.531 63.3921C257.54 62.4584 256.146 62.08 254.534 62.08V64.08C255.866 64.08 256.679 64.3949 257.16 64.8479C257.63 65.2903 257.95 66.0232 257.95 67.24H259.95ZM254.534 62.08H250.502V64.08H254.534V62.08ZM249.502 63.08V71.4H251.502V63.08H249.502ZM250.502 72.4H254.534V70.4H250.502V72.4ZM41.5159 132.84L42.4637 133.159L42.907 131.84H41.5159V132.84ZM36.7559 147V148H37.4747L37.7037 147.319L36.7559 147ZM31.0159 147L30.068 147.319L30.297 148H31.0159V147ZM26.2559 132.84V131.84H24.8647L25.308 133.159L26.2559 132.84ZM30.9759 132.84L31.9337 132.553L31.72 131.84H30.9759V132.84ZM33.8959 142.58L32.938 142.867L33.8992 146.073L34.8543 142.865L33.8959 142.58ZM36.7959 132.84V131.84H36.0502L35.8374 132.555L36.7959 132.84ZM40.568 132.521L35.808 146.681L37.7037 147.319L42.4637 133.159L40.568 132.521ZM36.7559 146H31.0159V148H36.7559V146ZM31.9637 146.681L27.2037 132.521L25.308 133.159L30.068 147.319L31.9637 146.681ZM26.2559 133.84H30.9759V131.84H26.2559V133.84ZM30.018 133.127L32.938 142.867L34.8537 142.293L31.9337 132.553L30.018 133.127ZM34.8543 142.865L37.7543 133.125L35.8374 132.555L32.9374 142.295L34.8543 142.865ZM36.7959 133.84H41.5159V131.84H36.7959V133.84ZM61.5898 144.86L62.5402 144.549L62.3148 143.86H61.5898V144.86ZM56.8698 144.86V143.86H56.1447L55.9193 144.549L56.8698 144.86ZM56.1698 147V148H56.8948L57.1202 147.311L56.1698 147ZM51.5098 147L50.5706 146.656L50.0791 148H51.5098V147ZM56.6898 132.84V131.84H55.9908L55.7506 132.496L56.6898 132.84ZM61.8098 132.84L62.7493 132.498L62.5097 131.84H61.8098V132.84ZM66.9698 147V148H68.3985L67.9093 146.658L66.9698 147ZM62.2898 147L61.3393 147.311L61.5647 148H62.2898V147ZM60.5098 141.52V142.52H61.8861L61.4608 141.211L60.5098 141.52ZM59.2298 137.58L60.1808 137.271L59.2298 134.344L58.2787 137.271L59.2298 137.58ZM57.9498 141.52L56.9987 141.211L56.5734 142.52H57.9498V141.52ZM61.5898 143.86H56.8698V145.86H61.5898V143.86ZM55.9193 144.549L55.2193 146.689L57.1202 147.311L57.8202 145.171L55.9193 144.549ZM56.1698 146H51.5098V148H56.1698V146ZM52.4489 147.344L57.6289 133.184L55.7506 132.496L50.5706 146.656L52.4489 147.344ZM56.6898 133.84H61.8098V131.84H56.6898V133.84ZM60.8702 133.182L66.0302 147.342L67.9093 146.658L62.7493 132.498L60.8702 133.182ZM66.9698 146H62.2898V148H66.9698V146ZM63.2402 146.689L62.5402 144.549L60.6393 145.171L61.3393 147.311L63.2402 146.689ZM61.4608 141.211L60.1808 137.271L58.2787 137.889L59.5587 141.829L61.4608 141.211ZM58.2787 137.271L56.9987 141.211L58.9008 141.829L60.1808 137.889L58.2787 137.271ZM57.9498 142.52H60.5098V140.52H57.9498V142.52ZM85.0985 147L84.2126 147.464L84.4933 148H85.0985V147ZM82.4385 141.92L83.3244 141.456L83.0437 140.92H82.4385V141.92ZM82.4185 141.92V140.92H81.4185V141.92H82.4185ZM82.4185 147V148H83.4185V147H82.4185ZM77.9785 147H76.9785V148H77.9785V147ZM77.9785 132.84V131.84H76.9785V132.84H77.9785ZM87.5185 133.46L87.0654 134.352L87.0772 134.357L87.5185 133.46ZM89.3385 135.12L88.4683 135.613L88.4738 135.622L88.4796 135.632L89.3385 135.12ZM89.1585 140L88.3497 139.412L88.3428 139.422L89.1585 140ZM86.8985 141.58L86.59 140.629L85.4229 141.007L86.0291 142.074L86.8985 141.58ZM89.9785 147V148H91.697L90.8479 146.506L89.9785 147ZM82.4185 138.96H81.4185V139.96H82.4185V138.96ZM85.1385 138.68L85.797 139.433L85.8099 139.421L85.8225 139.41L85.1385 138.68ZM85.1185 136.88L84.4114 137.587L84.4221 137.598L84.4332 137.608L85.1185 136.88ZM82.4185 136.56V135.56H81.4185V136.56H82.4185ZM85.9844 146.536L83.3244 141.456L81.5526 142.384L84.2126 147.464L85.9844 146.536ZM82.4385 140.92H82.4185V142.92H82.4385V140.92ZM81.4185 141.92V147H83.4185V141.92H81.4185ZM82.4185 146H77.9785V148H82.4185V146ZM78.9785 147V132.84H76.9785V147H78.9785ZM77.9785 133.84H84.5785V131.84H77.9785V133.84ZM84.5785 133.84C85.6072 133.84 86.4239 134.025 87.0655 134.351L87.9716 132.569C86.9865 132.068 85.8432 131.84 84.5785 131.84V133.84ZM87.0772 134.357C87.7319 134.679 88.1786 135.101 88.4683 135.613L90.2088 134.627C89.6984 133.726 88.9318 133.041 87.9598 132.563L87.0772 134.357ZM88.4796 135.632C88.7924 136.157 88.9585 136.763 88.9585 137.48H90.9585C90.9585 136.437 90.7113 135.47 90.1975 134.608L88.4796 135.632ZM88.9585 137.48C88.9585 138.225 88.7531 138.857 88.3498 139.412L89.9673 140.588C90.6306 139.676 90.9585 138.628 90.9585 137.48H88.9585ZM88.3428 139.422C87.9659 139.953 87.4046 140.365 86.59 140.629L87.207 142.531C88.3657 142.155 89.3112 141.514 89.9742 140.578L88.3428 139.422ZM86.0291 142.074L89.1091 147.494L90.8479 146.506L87.7679 141.086L86.0291 142.074ZM89.9785 146H85.0985V148H89.9785V146ZM82.4185 139.96H84.1785V137.96H82.4185V139.96ZM84.1785 139.96C84.729 139.96 85.3286 139.842 85.797 139.433L84.48 137.927C84.5005 137.909 84.5031 137.917 84.4585 137.93C84.4108 137.944 84.3222 137.96 84.1785 137.96V139.96ZM85.8225 139.41C86.3092 138.953 86.4585 138.333 86.4585 137.76H84.4585C84.4585 137.884 84.4421 137.948 84.434 137.971C84.4279 137.989 84.4307 137.973 84.4546 137.95L85.8225 139.41ZM86.4585 137.76C86.4585 137.17 86.2709 136.591 85.8039 136.152L84.4332 137.608C84.4364 137.611 84.4374 137.612 84.4407 137.62C84.4455 137.633 84.4585 137.674 84.4585 137.76H86.4585ZM85.8256 136.173C85.364 135.711 84.7567 135.56 84.1785 135.56V137.56C84.3017 137.56 84.3705 137.576 84.4013 137.587C84.4273 137.596 84.4232 137.599 84.4114 137.587L85.8256 136.173ZM84.1785 135.56H82.4185V137.56H84.1785V135.56ZM81.4185 136.56V138.96H83.4185V136.56H81.4185ZM105.817 132.84H106.817V131.84H105.817V132.84ZM105.817 147V148H106.817V147H105.817ZM101.377 147H100.377V148H101.377V147ZM101.377 132.84V131.84H100.377V132.84H101.377ZM104.817 132.84V147H106.817V132.84H104.817ZM105.817 146H101.377V148H105.817V146ZM102.377 147V132.84H100.377V147H102.377ZM101.377 133.84H105.817V131.84H101.377V133.84ZM122.262 136.38V135.38H121.262V136.38H122.262ZM122.262 138.12H121.262V139.12H122.262V138.12ZM126.662 138.12H127.662V137.12H126.662V138.12ZM126.662 141.46V142.46H127.662V141.46H126.662ZM122.262 141.46V140.46H121.262V141.46H122.262ZM122.262 143.46H121.262V144.46H122.262V143.46ZM127.262 143.46H128.262V142.46H127.262V143.46ZM127.262 147V148H128.262V147H127.262ZM117.822 147H116.822V148H117.822V147ZM117.822 132.84V131.84H116.822V132.84H117.822ZM127.262 132.84H128.262V131.84H127.262V132.84ZM127.262 136.38V137.38H128.262V136.38H127.262ZM121.262 136.38V138.12H123.262V136.38H121.262ZM122.262 139.12H126.662V137.12H122.262V139.12ZM125.662 138.12V141.46H127.662V138.12H125.662ZM126.662 140.46H122.262V142.46H126.662V140.46ZM121.262 141.46V143.46H123.262V141.46H121.262ZM122.262 144.46H127.262V142.46H122.262V144.46ZM126.262 143.46V147H128.262V143.46H126.262ZM127.262 146H117.822V148H127.262V146ZM118.822 147V132.84H116.822V147H118.822ZM117.822 133.84H127.262V131.84H117.822V133.84ZM126.262 132.84V136.38H128.262V132.84H126.262ZM127.262 135.38H122.262V137.38H127.262V135.38ZM148.716 133.74L148.239 134.619L148.243 134.621L148.716 133.74ZM151.296 136.24L152.167 135.75L152.167 135.75L151.296 136.24ZM151.296 143.52L152.17 144.006L152.17 144.006L151.296 143.52ZM148.716 146.08L149.2 146.955L149.204 146.953L148.716 146.08ZM138.936 147H137.936V148H138.936V147ZM138.936 132.84V131.84H137.936V132.84H138.936ZM146.816 142.22L147.497 142.952L147.497 142.952L146.816 142.22ZM146.816 137.54L147.497 136.808L147.497 136.808L146.816 137.54ZM143.376 136.72V135.72H142.376V136.72H143.376ZM143.376 143.04H142.376V144.04H143.376V143.04ZM144.836 133.84C146.178 133.84 147.302 134.111 148.239 134.619L149.192 132.861C147.915 132.169 146.453 131.84 144.836 131.84V133.84ZM148.243 134.621C149.202 135.135 149.921 135.836 150.424 136.73L152.167 135.75C151.47 134.511 150.469 133.545 149.188 132.859L148.243 134.621ZM150.424 136.73C150.931 137.631 151.196 138.672 151.196 139.88H153.196C153.196 138.368 152.86 136.982 152.167 135.75L150.424 136.73ZM151.196 139.88C151.196 141.072 150.932 142.116 150.421 143.034L152.17 144.006C152.86 142.764 153.196 141.381 153.196 139.88H151.196ZM150.421 143.034C149.915 143.946 149.192 144.668 148.227 145.207L149.204 146.953C150.479 146.239 151.476 145.254 152.17 144.006L150.421 143.034ZM148.231 145.205C147.296 145.723 146.175 146 144.836 146V148C146.456 148 147.922 147.663 149.2 146.955L148.231 145.205ZM144.836 146H138.936V148H144.836V146ZM139.936 147V132.84H137.936V147H139.936ZM138.936 133.84H144.836V131.84H138.936V133.84ZM144.436 144.04C145.623 144.04 146.683 143.711 147.497 142.952L146.134 141.488C145.775 141.823 145.248 142.04 144.436 142.04V144.04ZM147.497 142.952C148.338 142.169 148.696 141.093 148.696 139.88H146.696C146.696 140.694 146.467 141.178 146.134 141.488L147.497 142.952ZM148.696 139.88C148.696 138.667 148.338 137.591 147.497 136.808L146.134 138.272C146.467 138.582 146.696 139.066 146.696 139.88H148.696ZM147.497 136.808C146.683 136.049 145.623 135.72 144.436 135.72V137.72C145.248 137.72 145.775 137.937 146.134 138.272L147.497 136.808ZM144.436 135.72H143.376V137.72H144.436V135.72ZM142.376 136.72V143.04H144.376V136.72H142.376ZM143.376 144.04H144.436V142.04H143.376V144.04ZM172.879 144.86L173.829 144.549L173.604 143.86H172.879V144.86ZM168.159 144.86V143.86H167.434L167.208 144.549L168.159 144.86ZM167.459 147V148H168.184L168.409 147.311L167.459 147ZM162.799 147L161.86 146.656L161.368 148H162.799V147ZM167.979 132.84V131.84H167.28L167.04 132.496L167.979 132.84ZM173.099 132.84L174.038 132.498L173.799 131.84H173.099V132.84ZM178.259 147V148H179.688L179.198 146.658L178.259 147ZM173.579 147L172.628 147.311L172.854 148H173.579V147ZM171.799 141.52V142.52H173.175L172.75 141.211L171.799 141.52ZM170.519 137.58L171.47 137.271L170.519 134.344L169.568 137.271L170.519 137.58ZM169.239 141.52L168.288 141.211L167.863 142.52H169.239V141.52ZM172.879 143.86H168.159V145.86H172.879V143.86ZM167.208 144.549L166.508 146.689L168.409 147.311L169.109 145.171L167.208 144.549ZM167.459 146H162.799V148H167.459V146ZM163.738 147.344L168.918 133.184L167.04 132.496L161.86 146.656L163.738 147.344ZM167.979 133.84H173.099V131.84H167.979V133.84ZM172.159 133.182L177.319 147.342L179.198 146.658L174.038 132.498L172.159 133.182ZM178.259 146H173.579V148H178.259V146ZM174.529 146.689L173.829 144.549L171.928 145.171L172.628 147.311L174.529 146.689ZM172.75 141.211L171.47 137.271L169.568 137.889L170.848 141.829L172.75 141.211ZM169.568 137.271L168.288 141.211L170.19 141.829L171.47 137.889L169.568 137.271ZM169.239 142.52H171.799V140.52H169.239V142.52ZM199.048 133.74L198.571 134.619L198.575 134.621L199.048 133.74ZM201.628 136.24L202.499 135.75L202.499 135.75L201.628 136.24ZM201.628 143.52L202.502 144.006L202.502 144.006L201.628 143.52ZM199.048 146.08L199.532 146.955L199.536 146.953L199.048 146.08ZM189.268 147H188.268V148H189.268V147ZM189.268 132.84V131.84H188.268V132.84H189.268ZM197.148 142.22L197.829 142.952L197.829 142.952L197.148 142.22ZM197.148 137.54L197.829 136.808L197.829 136.808L197.148 137.54ZM193.708 136.72V135.72H192.708V136.72H193.708ZM193.708 143.04H192.708V144.04H193.708V143.04ZM195.168 133.84C196.51 133.84 197.634 134.111 198.571 134.619L199.524 132.861C198.247 132.169 196.785 131.84 195.168 131.84V133.84ZM198.575 134.621C199.534 135.135 200.253 135.836 200.756 136.73L202.499 135.75C201.802 134.511 200.801 133.545 199.52 132.859L198.575 134.621ZM200.756 136.73C201.263 137.631 201.528 138.672 201.528 139.88H203.528C203.528 138.368 203.192 136.982 202.499 135.75L200.756 136.73ZM201.528 139.88C201.528 141.072 201.264 142.116 200.753 143.034L202.502 144.006C203.192 142.764 203.528 141.381 203.528 139.88H201.528ZM200.753 143.034C200.247 143.946 199.524 144.668 198.559 145.207L199.536 146.953C200.811 146.239 201.808 145.254 202.502 144.006L200.753 143.034ZM198.563 145.205C197.628 145.723 196.507 146 195.168 146V148C196.788 148 198.254 147.663 199.532 146.955L198.563 145.205ZM195.168 146H189.268V148H195.168V146ZM190.268 147V132.84H188.268V147H190.268ZM189.268 133.84H195.168V131.84H189.268V133.84ZM194.768 144.04C195.955 144.04 197.015 143.711 197.829 142.952L196.466 141.488C196.107 141.823 195.58 142.04 194.768 142.04V144.04ZM197.829 142.952C198.67 142.169 199.028 141.093 199.028 139.88H197.028C197.028 140.694 196.799 141.178 196.466 141.488L197.829 142.952ZM199.028 139.88C199.028 138.667 198.67 137.591 197.829 136.808L196.466 138.272C196.799 138.582 197.028 139.066 197.028 139.88H199.028ZM197.829 136.808C197.015 136.049 195.955 135.72 194.768 135.72V137.72C195.58 137.72 196.107 137.937 196.466 138.272L197.829 136.808ZM194.768 135.72H193.708V137.72H194.768V135.72ZM192.708 136.72V143.04H194.708V136.72H192.708ZM193.708 144.04H194.768V142.04H193.708V144.04ZM218.571 136.38V135.38H217.571V136.38H218.571ZM218.571 138.12H217.571V139.12H218.571V138.12ZM222.971 138.12H223.971V137.12H222.971V138.12ZM222.971 141.46V142.46H223.971V141.46H222.971ZM218.571 141.46V140.46H217.571V141.46H218.571ZM218.571 143.46H217.571V144.46H218.571V143.46ZM223.571 143.46H224.571V142.46H223.571V143.46ZM223.571 147V148H224.571V147H223.571ZM214.131 147H213.131V148H214.131V147ZM214.131 132.84V131.84H213.131V132.84H214.131ZM223.571 132.84H224.571V131.84H223.571V132.84ZM223.571 136.38V137.38H224.571V136.38H223.571ZM217.571 136.38V138.12H219.571V136.38H217.571ZM218.571 139.12H222.971V137.12H218.571V139.12ZM221.971 138.12V141.46H223.971V138.12H221.971ZM222.971 140.46H218.571V142.46H222.971V140.46ZM217.571 141.46V143.46H219.571V141.46H217.571ZM218.571 144.46H223.571V142.46H218.571V144.46ZM222.571 143.46V147H224.571V143.46H222.571ZM223.571 146H214.131V148H223.571V146ZM215.131 147V132.84H213.131V147H215.131ZM214.131 133.84H223.571V131.84H214.131V133.84ZM222.571 132.84V136.38H224.571V132.84H222.571ZM223.571 135.38H218.571V137.38H223.571V135.38ZM236.584 145.96L235.994 146.767L236.005 146.775L236.584 145.96ZM234.804 142.46V141.46H233.741L233.806 142.521L234.804 142.46ZM239.524 142.46L240.521 142.378L240.446 141.46H239.524V142.46ZM241.204 143.52L241.759 144.352L241.766 144.347L241.773 144.342L241.204 143.52ZM240.924 142.18L240.414 143.04L240.426 143.047L240.438 143.054L240.924 142.18ZM239.244 141.46L238.911 142.403L238.913 142.404L239.244 141.46ZM236.984 140.52L236.521 141.406L236.529 141.41L236.984 140.52ZM235.464 139.18L236.273 138.592L236.273 138.592L235.464 139.18ZM234.844 136.92L235.844 136.934L235.844 136.927V136.92H234.844ZM235.544 134.58L234.738 133.988L234.736 133.991L235.544 134.58ZM237.484 133.1L237.11 132.173L237.105 132.175L237.484 133.1ZM244.384 133.8L243.764 134.585L243.769 134.589L244.384 133.8ZM246.004 137.18V138.18H247.042L247.003 137.143L246.004 137.18ZM241.224 137.18L240.225 137.213L240.257 138.18H241.224V137.18ZM239.784 136.26L240.491 136.967L240.51 136.949L240.527 136.929L239.784 136.26ZM240.124 137.58L239.6 138.432L239.619 138.443L239.638 138.454L240.124 137.58ZM241.824 138.32L241.469 139.255L241.475 139.257L241.824 138.32ZM244.024 139.28L243.552 140.162L243.561 140.166L244.024 139.28ZM245.544 140.56L244.756 141.175L244.756 141.175L245.544 140.56ZM245.544 144.96L246.391 145.492L246.396 145.484L245.544 144.96ZM243.684 146.56L243.255 145.657L243.684 146.56ZM240.784 146.14C239.247 146.14 238.063 145.784 237.164 145.145L236.005 146.775C237.318 147.709 238.935 148.14 240.784 148.14V146.14ZM237.175 145.153C236.355 144.554 235.88 143.68 235.802 142.399L233.806 142.521C233.915 144.306 234.626 145.766 235.994 146.767L237.175 145.153ZM234.804 143.46H239.524V141.46H234.804V143.46ZM238.527 142.542C238.57 143.061 238.716 143.61 239.095 144.038C239.504 144.499 240.055 144.68 240.604 144.68V142.68C240.544 142.68 240.529 142.671 240.542 142.676C240.558 142.682 240.579 142.697 240.593 142.712C240.604 142.724 240.592 142.716 240.573 142.664C240.554 142.609 240.532 142.518 240.521 142.378L238.527 142.542ZM240.604 144.68C240.992 144.68 241.398 144.593 241.759 144.352L240.649 142.688C240.667 142.676 240.679 142.673 240.676 142.674C240.673 142.675 240.651 142.68 240.604 142.68V144.68ZM241.773 144.342C242.257 144.007 242.464 143.495 242.464 142.98H240.464C240.464 142.98 240.464 142.931 240.498 142.861C240.534 142.786 240.587 142.731 240.635 142.698L241.773 144.342ZM242.464 142.98C242.464 142.193 241.999 141.633 241.41 141.306L240.438 143.054C240.518 143.098 240.519 143.118 240.5 143.089C240.49 143.075 240.48 143.054 240.473 143.03C240.465 143.006 240.464 142.988 240.464 142.98H242.464ZM241.434 141.32C240.987 141.055 240.352 140.789 239.575 140.516L238.913 142.404C239.657 142.665 240.141 142.879 240.414 143.04L241.434 141.32ZM239.577 140.517C238.696 140.206 237.987 139.91 237.439 139.63L236.529 141.41C237.181 141.744 237.979 142.074 238.911 142.403L239.577 140.517ZM237.447 139.634C237.01 139.405 236.618 139.066 236.273 138.592L234.655 139.768C235.164 140.467 235.785 141.022 236.521 141.406L237.447 139.634ZM236.273 138.592C236.004 138.222 235.833 137.697 235.844 136.934L233.844 136.906C233.829 137.983 234.071 138.964 234.655 139.768L236.273 138.592ZM235.844 136.92C235.844 136.176 236.03 135.612 236.352 135.169L234.736 133.991C234.125 134.828 233.844 135.824 233.844 136.92H235.844ZM236.35 135.172C236.712 134.679 237.205 134.295 237.863 134.025L237.105 132.175C236.136 132.572 235.336 133.174 234.738 133.988L236.35 135.172ZM237.858 134.027C238.549 133.749 239.346 133.6 240.264 133.6V131.6C239.129 131.6 238.072 131.785 237.11 132.173L237.858 134.027ZM240.264 133.6C241.849 133.6 242.98 133.965 243.764 134.585L245.004 133.015C243.762 132.035 242.146 131.6 240.264 131.6V133.6ZM243.769 134.589C244.534 135.185 244.961 136.02 245.005 137.217L247.003 137.143C246.941 135.434 246.288 134.015 244.999 133.011L243.769 134.589ZM246.004 136.18H241.224V138.18H246.004V136.18ZM242.224 137.147C242.206 136.628 242.073 136.022 241.605 135.587L240.244 137.053C240.197 137.009 240.188 136.976 240.195 136.994C240.203 137.018 240.22 137.084 240.225 137.213L242.224 137.147ZM241.605 135.587C241.224 135.233 240.75 135.06 240.244 135.06V137.06C240.257 137.06 240.263 137.061 240.264 137.061C240.264 137.061 240.262 137.061 240.257 137.059C240.252 137.057 240.248 137.055 240.244 137.053C240.241 137.051 240.241 137.05 240.244 137.053L241.605 135.587ZM240.244 135.06C239.787 135.06 239.359 135.237 239.041 135.591L240.527 136.929C240.499 136.961 240.452 136.999 240.388 137.027C240.325 137.054 240.272 137.06 240.244 137.06V135.06ZM239.077 135.553C238.713 135.917 238.604 136.38 238.604 136.78H240.604C240.604 136.753 240.608 136.767 240.594 136.807C240.579 136.852 240.547 136.912 240.491 136.967L239.077 135.553ZM238.604 136.78C238.604 137.543 239.05 138.093 239.6 138.432L240.648 136.728C240.567 136.678 240.559 136.654 240.573 136.675C240.58 136.686 240.589 136.704 240.596 136.727C240.602 136.749 240.604 136.769 240.604 136.78H238.604ZM239.638 138.454C240.064 138.691 240.686 138.958 241.469 139.255L242.179 137.385C241.415 137.095 240.904 136.869 240.61 136.706L239.638 138.454ZM241.475 139.257C242.343 139.581 243.032 139.883 243.552 140.162L244.496 138.398C243.87 138.063 243.092 137.726 242.174 137.383L241.475 139.257ZM243.561 140.166C244.015 140.404 244.413 140.736 244.756 141.175L246.332 139.945C245.822 139.291 245.207 138.77 244.487 138.394L243.561 140.166ZM244.756 141.175C245.02 141.514 245.184 141.972 245.184 142.62H247.184C247.184 141.615 246.921 140.699 246.332 139.945L244.756 141.175ZM245.184 142.62C245.184 143.314 245.016 143.91 244.692 144.436L246.396 145.484C246.926 144.623 247.184 143.659 247.184 142.62H245.184ZM244.697 144.429C244.383 144.928 243.918 145.342 243.255 145.657L244.113 147.463C245.077 147.005 245.851 146.352 246.391 145.491L244.697 144.429ZM243.255 145.657C242.604 145.966 241.791 146.14 240.784 146.14V148.14C242.017 148.14 243.137 147.927 244.113 147.463L243.255 145.657Z" fill="white"/>
</svg>
