<svg width="94" height="94" viewBox="0 0 94 94" fill="none" xmlns="http://www.w3.org/2000/svg">
<mask id="mask0" style="mask-type:alpha" maskUnits="userSpaceOnUse" x="0" y="0" width="94" height="94">
<rect width="94" height="94" fill="white"/>
</mask>
<g mask="url(#mask0)">
<path d="M55.8597 71.0606H38.7111C37.453 71.0606 36.2691 70.5619 35.3776 69.6589C34.4894 68.7592 34 67.5675 34 66.3037V26.7585C34 25.4947 34.4894 24.3031 35.376 23.4033C36.2691 22.4988 37.453 22 38.7111 22H55.8597C57.1178 22 58.3017 22.4988 59.1932 23.4033C60.0814 24.3031 60.5692 25.4947 60.5692 26.7585V66.3037C60.5692 67.5675 60.0798 68.7592 59.1932 69.6589C58.3017 70.5635 57.1162 71.0606 55.8597 71.0606ZM38.7111 23.6952C37.9165 23.6952 37.1639 24.0128 36.5954 24.5886C36.022 25.1691 35.7071 25.9406 35.7071 26.7585V66.3037C35.7071 67.1217 36.022 67.8915 36.5954 68.4737C37.1639 69.0495 37.9149 69.367 38.7111 69.367H55.8597C56.6559 69.367 57.4069 69.0495 57.9754 68.4737C58.5488 67.8931 58.8637 67.1217 58.8637 66.3037V26.7585C58.8637 25.9406 58.5488 25.1707 57.9754 24.5886C57.4069 24.0128 56.6559 23.6952 55.8597 23.6952H38.7111Z" fill="white"/>
<path fill-rule="evenodd" clip-rule="evenodd" d="M50.2491 28.0737H44.0425C43.6952 28.0737 43.4126 27.7931 43.4126 27.4483V27.3777C43.4126 27.0329 43.6952 26.7522 44.0425 26.7522H50.2491C50.5963 26.7522 50.879 27.0329 50.879 27.3777V27.4483C50.8806 27.7947 50.598 28.0737 50.2491 28.0737Z" fill="white"/>
<path d="M50.2135 28.2438H44.0795C43.6176 28.2438 43.2429 27.8717 43.2429 27.4131C43.2429 26.9544 43.6176 26.5823 44.0795 26.5823H50.2151C50.677 26.5823 51.0517 26.9544 51.0517 27.4131C51.0501 27.8717 50.6754 28.2438 50.2135 28.2438ZM44.0795 26.9223C43.8066 26.9223 43.5837 27.142 43.5837 27.4147C43.5837 27.6857 43.805 27.907 44.0795 27.907H50.2151C50.488 27.907 50.7109 27.6857 50.7109 27.4147C50.7109 27.1436 50.4897 26.9223 50.2151 26.9223H44.0795V26.9223Z" fill="white"/>
<path d="M65.9099 49.7748C65.8646 48.5286 64.8455 47.5327 63.5906 47.5086L63.5196 47.507C63.0125 47.4974 62.5279 47.6449 62.1209 47.9288C62.0806 47.3803 61.8496 46.8671 61.4604 46.4677C61.0276 46.0251 60.4478 45.7717 59.8276 45.754C59.2995 45.7396 58.7939 45.8952 58.3756 46.1983C58.2594 45.661 57.9557 45.1879 57.5358 44.8543C57.1644 44.5576 56.7008 44.3716 56.1969 44.3427C56.1663 44.3411 56.1356 44.3395 56.1033 44.3395L56.0048 44.3379C55.5009 44.3283 55.0163 44.4758 54.611 44.7581L54.6029 39.6515C54.6013 38.3557 53.5386 37.3036 52.2336 37.3068H52.1545C50.8495 37.3084 49.79 38.3637 49.7933 39.6596L49.8062 48.2047L49.8078 49.5342L49.811 51.4059L47.7228 49.7074C47.6453 49.6449 47.5661 49.5872 47.4837 49.5342C46.6262 48.9857 45.5247 48.9921 44.6768 49.5342C44.5395 49.6224 44.4087 49.7235 44.2859 49.8406C43.4267 50.6601 43.2394 51.948 43.8305 52.9744C44.9933 54.992 47.2399 58.7209 49.2248 61.0175C50.8221 62.8651 53.2091 63.5756 54.9307 63.8451C55.7673 63.9766 56.5619 64.0247 57.2516 64.0231C58.2141 64.0215 58.97 63.9236 59.3447 63.8226C59.3931 63.8098 59.4448 63.7953 59.4997 63.7809C60.191 63.5965 61.4765 63.2549 62.6991 62.392C64.2141 61.3239 65.1669 59.7938 65.5303 57.8436C65.5319 57.8324 65.5336 57.8195 65.5352 57.8083C65.5465 57.765 66.0391 53.3545 65.9099 49.7748Z" fill="white"/>
<path d="M57.2339 64.4479C56.4409 64.4479 55.6447 64.387 54.8679 64.2635C53.0751 63.9828 50.5847 63.2387 48.9035 61.2932C46.896 58.9693 44.6333 55.2164 43.4624 53.1844C42.7727 51.9879 42.9924 50.4867 43.9921 49.5341C44.131 49.401 44.2844 49.2823 44.4459 49.178C45.4392 48.5413 46.7215 48.5429 47.7148 49.178C47.8165 49.2438 47.907 49.3095 47.9942 49.3785L49.3831 50.5092L49.367 39.6594C49.3654 38.92 49.6561 38.224 50.1826 37.6979C50.7091 37.1735 51.41 36.8832 52.1546 36.8816H52.2337C52.2353 36.8816 52.2369 36.8816 52.2386 36.8816C53.7761 36.8816 55.0277 38.1229 55.0294 39.6498L55.0358 44.0683C55.3459 43.9608 55.6738 43.9095 56.0113 43.9127L56.1098 43.9143C56.1454 43.9143 56.1841 43.9159 56.2213 43.9191C56.7995 43.9512 57.347 44.1613 57.8024 44.5238C58.1561 44.806 58.4355 45.1669 58.6164 45.5711C58.9959 45.401 59.4126 45.3193 59.8406 45.3305C60.5738 45.3513 61.2586 45.6496 61.769 46.1725C62.0758 46.4868 62.3019 46.8685 62.4311 47.2823C62.7768 47.1444 63.1514 47.0754 63.531 47.0818L63.602 47.0834C65.0847 47.1107 66.2863 48.2863 66.3396 49.7586C66.4704 53.372 65.9729 57.813 65.9681 57.8563C65.9649 57.8787 65.9616 57.9028 65.9568 57.9268C65.5724 59.9845 64.5614 61.6044 62.9528 62.7383C61.6672 63.6444 60.3332 63.9989 59.6161 64.1897L59.4627 64.2314C59.0815 64.3357 58.3031 64.4463 57.2565 64.4479C57.2484 64.4479 57.242 64.4479 57.2339 64.4479ZM46.082 49.5485C45.6734 49.5485 45.2664 49.6624 44.9095 49.8901C44.7932 49.9655 44.6833 50.0505 44.5832 50.1451C43.8645 50.83 43.7079 51.9061 44.2021 52.7642C45.3568 54.7689 47.5888 58.4721 49.5495 60.7415C51.0612 62.4913 53.3481 63.1681 54.9987 63.4263C55.7319 63.5418 56.4829 63.5995 57.2323 63.5995C57.2387 63.5995 57.2452 63.5995 57.2533 63.5995C58.2175 63.5979 58.9232 63.4985 59.2349 63.4135L59.3932 63.3718C60.0586 63.1953 61.2958 62.865 62.457 62.047C63.8782 61.0446 64.773 59.6044 65.117 57.7681C65.1234 57.7183 65.6112 53.3415 65.4836 49.7891C65.4464 48.7675 64.6115 47.9511 63.5827 47.9319L63.5116 47.9303C63.0965 47.9174 62.7008 48.0425 62.3649 48.2751L61.7496 48.7033L61.6947 47.9591C61.6608 47.5052 61.4734 47.0915 61.1536 46.7627C60.7999 46.4002 60.3235 46.1917 59.8148 46.1773C59.3835 46.1661 58.9701 46.2912 58.6245 46.5414L58.0931 46.9247L57.9558 46.288C57.8622 45.8565 57.6183 45.4652 57.2662 45.1861C56.9497 44.9343 56.5701 44.79 56.1696 44.7659C56.1437 44.7643 56.1179 44.7627 56.0937 44.7627L55.9935 44.7611C55.5817 44.7499 55.1876 44.8734 54.8533 45.1043L54.1831 45.5711L54.175 39.6514C54.1734 39.1382 53.9715 38.6554 53.6049 38.2913C53.2383 37.9289 52.7521 37.7284 52.2369 37.7284C52.2353 37.7284 52.2353 37.7284 52.2337 37.7284H52.1546C51.6378 37.73 51.1516 37.9305 50.7866 38.2946C50.42 38.6586 50.2197 39.143 50.2197 39.6562L50.2391 52.299L47.4548 50.0345C47.3934 49.9847 47.3272 49.9382 47.2545 49.8901C46.8976 49.6624 46.489 49.5485 46.082 49.5485Z" fill="#150717"/>
</g>
</svg>
