<svg width="94" height="94" viewBox="0 0 94 94" fill="none" xmlns="http://www.w3.org/2000/svg">
<mask id="mask0" style="mask-type:alpha" maskUnits="userSpaceOnUse" x="0" y="0" width="94" height="94">
<rect width="94" height="94" fill="white"/>
</mask>
<g mask="url(#mask0)">
<path d="M70.1012 61.2768H24.8988C22.7487 61.2768 21 59.602 21 57.5438V31.3909C21 28.9704 23.0635 27 25.5986 27H69.3999C71.9365 27 74 28.9704 74 31.3924V57.5438C74 59.602 72.2513 61.2768 70.1012 61.2768ZM25.5986 28.8188C24.0498 28.8188 22.7905 29.9722 22.7905 31.3909V57.5438C22.7905 58.6002 23.7365 59.458 24.8988 59.458H70.1012C71.2635 59.458 72.2095 58.5987 72.2095 57.5438V31.3924C72.2095 29.9737 70.9487 28.8188 69.3999 28.8188H25.5986Z" fill="white"/>
<path d="M24.8331 67C24.7092 67 24.5824 66.9742 24.46 66.9242C23.9378 66.7075 23.7185 66.0633 23.9512 65.5419L26.2013 60.5039C26.4266 60.0007 27.007 59.7733 27.5098 60.0052C28.0067 60.2326 28.226 60.8297 28.0007 61.3329L25.7343 66.4104C25.5701 66.7802 25.2106 67 24.8331 67Z" fill="white"/>
<path d="M70.3131 67C69.94 67 69.5834 66.7847 69.4163 66.4179L67.0917 61.3404C66.8619 60.8372 67.0767 60.2416 67.5706 60.0082C68.0675 59.7702 68.6554 59.9945 68.8836 60.4947L71.2083 65.5722C71.4381 66.0754 71.2232 66.671 70.7293 66.9045C70.5936 66.9696 70.4518 67 70.3131 67Z" fill="white"/>
<path d="M41.7966 48.9878C41.5429 48.9878 41.2908 48.8908 41.0983 48.6953C40.7133 48.3027 40.7133 47.6677 41.0983 47.2751L51.3876 36.8231C51.7741 36.432 52.3993 36.432 52.7857 36.8231C53.1707 37.2156 53.1707 37.8507 52.7857 38.2432L42.4964 48.6953C42.3009 48.8908 42.0487 48.9878 41.7966 48.9878Z" fill="white"/>
<path d="M41.1997 48.7604C40.8371 48.7604 40.4954 48.6179 40.2373 48.3572C39.7076 47.8176 39.7076 46.9401 40.2358 46.4005L50.5252 35.9484C51.0563 35.4119 51.9188 35.4119 52.4499 35.9484C52.9796 36.488 52.9796 37.3656 52.4514 37.9052L42.1621 48.3572C41.9039 48.6179 41.5623 48.7604 41.1997 48.7604Z" fill="white"/>
<path d="M41.1997 49.973C40.5193 49.973 39.8792 49.7047 39.3958 49.2167C38.3991 48.2012 38.3991 46.5552 39.3913 45.5442L49.6822 35.0907C50.6789 34.0828 52.2978 34.0828 53.293 35.0876C54.2897 36.1031 54.2897 37.7492 53.2974 38.7601L43.0066 49.2137C42.5202 49.7047 41.8801 49.973 41.1997 49.973ZM51.4891 36.7579C51.4443 36.7579 51.3995 36.7746 51.3667 36.8079L41.0789 47.2585C41.0162 47.3236 41.0162 47.4343 41.0818 47.501C41.1415 47.5616 41.2504 47.5661 41.3191 47.4964L51.6054 37.0474C51.6696 36.9822 51.6681 36.8716 51.6039 36.8049C51.5741 36.7746 51.5323 36.7579 51.4891 36.7579Z" fill="white"/>
<path d="M48.5959 49.8138C48.3422 49.8138 48.0901 49.7168 47.8976 49.5212C47.5126 49.1287 47.5126 48.4936 47.8976 48.1011L52.1993 43.7314C52.5857 43.3403 53.2109 43.3403 53.5973 43.7314C53.9823 44.124 53.9823 44.759 53.5973 45.1516L49.2957 49.5212C49.1017 49.7168 48.8495 49.8138 48.5959 49.8138Z" fill="white"/>
<path d="M48.5959 50.1927C48.2333 50.1927 47.8917 50.0502 47.6335 49.7895C47.1038 49.2499 47.1038 48.3723 47.632 47.8328L51.9337 43.4631C52.4649 42.9265 53.3273 42.9265 53.8585 43.4631C54.3882 44.0027 54.3882 44.8802 53.86 45.4198L49.5583 49.7895C49.3017 50.0502 48.96 50.1927 48.5959 50.1927Z" fill="white"/>
<path d="M48.596 51.4053C47.9156 51.4053 47.2755 51.137 46.792 50.649C45.7953 49.6335 45.7953 47.9875 46.7876 46.9765L51.0907 42.6053C52.0874 41.5974 53.7063 41.5974 54.7015 42.6023C55.6982 43.6178 55.6982 45.2638 54.706 46.2748L50.4029 50.6459C49.9179 51.137 49.2778 51.4053 48.596 51.4053ZM52.8991 44.2726C52.8543 44.2726 52.8096 44.2892 52.7767 44.3226L48.4766 48.6907C48.4139 48.7559 48.4139 48.8665 48.4796 48.9332C48.5407 48.9939 48.6482 48.9984 48.7168 48.9287L53.017 44.5605C53.0811 44.4954 53.0796 44.3847 53.0155 44.318C52.9841 44.2892 52.9424 44.2726 52.8991 44.2726Z" fill="white"/>
</g>
</svg>
