<svg width="94" height="94" viewBox="0 0 94 94" fill="none" xmlns="http://www.w3.org/2000/svg">
<mask id="mask0_371_1216" style="mask-type:alpha" maskUnits="userSpaceOnUse" x="0" y="0" width="94" height="94">
<rect width="94" height="94" fill="white"/>
</mask>
<g mask="url(#mask0_371_1216)">
<path d="M62.1176 68.102H31.9576C28.5742 68.102 25.8228 65.334 25.8228 61.934V47.7576C25.8228 47.3045 26.1885 46.9368 26.6392 46.9368C27.0899 46.9368 27.4557 47.3045 27.4557 47.7576V61.934C27.4557 64.4294 29.4756 66.4602 31.9576 66.4602H62.1176C64.5997 66.4602 66.6196 64.4294 66.6196 61.934V47.7576C66.6196 47.3045 66.9854 46.9368 67.4361 46.9368C67.8868 46.9368 68.2525 47.3045 68.2525 47.7576V61.934C68.2525 65.3357 65.5011 68.102 62.1176 68.102Z" fill="white"/>
<path d="M68.1708 45.4937H64.5816C64.131 45.4937 63.7652 45.126 63.7652 44.6729C63.7652 44.2197 64.131 43.852 64.5816 43.852H68.1708C69.3808 43.852 70.3671 42.862 70.3671 41.6439C70.3671 40.4273 69.3824 39.4357 68.1708 39.4357H25.8292C24.6192 39.4357 23.6329 40.4257 23.6329 41.6439C23.6329 42.862 24.6176 43.852 25.8292 43.852H29.4184C29.869 43.852 30.2348 44.2197 30.2348 44.6729C30.2348 45.126 29.869 45.4937 29.4184 45.4937H25.8292C23.7178 45.4937 22 43.7666 22 41.6455C22 39.5244 23.7178 37.7957 25.8292 37.7957H68.1708C70.2822 37.7957 72 39.5228 72 41.6455C72 43.7683 70.2822 45.4937 68.1708 45.4937Z" fill="white"/>
<path d="M67.4359 35.6792C64.0753 32.6453 56.2063 30.516 47.0358 30.516C37.8931 30.516 30.0453 32.6322 26.6667 35.6513" fill="white"/>
<path d="M49.7793 27.7581C49.7793 26.2346 48.5514 25 47.036 25C45.5207 25 44.2927 26.2346 44.2927 27.7581C44.2927 29.2816 45.5207 30.5162 47.036 30.5162C48.5514 30.5162 49.7793 29.2816 49.7793 27.7581Z" fill="white"/>
<path d="M60.452 45.4938H59.9866C59.5359 45.4938 59.1702 45.126 59.1702 44.6729C59.1702 44.2198 59.5359 43.8521 59.9866 43.8521H60.452C60.9027 43.8521 61.2685 44.2198 61.2685 44.6729C61.2685 45.126 60.9027 45.4938 60.452 45.4938ZM54.3988 45.4938H53.9334C53.4827 45.4938 53.1169 45.126 53.1169 44.6729C53.1169 44.2198 53.4827 43.8521 53.9334 43.8521H54.3988C54.8495 43.8521 55.2152 44.2198 55.2152 44.6729C55.2152 45.126 54.8495 45.4938 54.3988 45.4938Z" fill="white"/>
<path d="M52.356 61.3414C52.1372 61.3414 51.92 61.2544 51.76 61.082C49.1718 58.3009 50.6202 56.344 51.6783 54.914C52.6973 53.535 53.259 52.7765 51.7698 51.2251C51.4562 50.8984 51.466 50.3796 51.7894 50.0644C52.1143 49.7492 52.6303 49.759 52.9438 50.0841C55.3965 52.637 54.0052 54.52 52.9879 55.8925C51.969 57.2699 51.2962 58.1794 52.952 59.9591C53.2606 60.2907 53.2427 60.8095 52.9128 61.1198C52.7561 61.2675 52.5568 61.3414 52.356 61.3414Z" fill="white"/>
<path d="M47.1292 61.3414C46.9104 61.3414 46.6932 61.2544 46.5332 61.082C43.945 58.3009 45.3934 56.344 46.4515 54.914C47.4705 53.535 48.0322 52.7765 46.543 51.2251C46.2294 50.8984 46.2392 50.3796 46.5626 50.0644C46.8875 49.7492 47.4035 49.759 47.717 50.0841C50.1697 52.637 48.7784 54.52 47.7611 55.8925C46.7422 57.2699 46.0694 58.1794 47.7252 59.9591C48.0338 60.2907 48.0158 60.8095 47.686 61.1198C47.5292 61.2675 47.3284 61.3414 47.1292 61.3414Z" fill="white"/>
<path d="M41.809 61.3414C41.5902 61.3414 41.373 61.2544 41.213 61.082C38.6248 58.3009 40.0732 56.344 41.1297 54.914C42.1503 53.535 42.7104 52.7765 41.2211 51.2251C40.9076 50.8984 40.9174 50.3796 41.2407 50.0644C41.5657 49.7492 42.0817 49.759 42.3952 50.0841C44.8479 52.637 43.4566 54.52 42.4393 55.8925C41.4203 57.2699 40.7476 58.1794 42.4034 59.9591C42.712 60.2907 42.694 60.8095 42.3658 61.1198C42.2091 61.2675 42.0098 61.3414 41.809 61.3414Z" fill="white"/>
</g>
</svg>
