<svg width="314" height="171" viewBox="0 0 314 171" fill="none" xmlns="http://www.w3.org/2000/svg">
<rect width="314" height="171" fill="white"/>
<path d="M9.59233 72.0909C6.95597 72.0909 4.6946 71.1705 2.80824 69.3295C0.944602 67.4659 0.0241477 65.2045 0.046875 62.5455C0.0241477 59.9545 0.944602 57.7386 2.80824 55.8977C4.6946 54.0568 6.95597 53.1364 9.59233 53.1364C12.0923 53.1364 14.2969 54.0568 16.206 55.8977C18.1378 57.7386 19.1151 59.9545 19.1378 62.5455C19.1151 64.3182 18.6491 65.9318 17.7401 67.3864C16.8537 68.8182 15.6946 69.9659 14.2628 70.8295C12.831 71.6705 11.2741 72.0909 9.59233 72.0909ZM144.183 36.0909C144.183 43.8636 142.672 50.4205 139.649 55.7614C136.626 61.0795 132.547 65.1136 127.411 67.8636C122.274 70.5909 116.547 71.9545 110.229 71.9545C103.865 71.9545 98.1151 70.5795 92.9787 67.8295C87.8651 65.0568 83.7969 61.0114 80.7741 55.6932C77.7741 50.3523 76.2741 43.8182 76.2741 36.0909C76.2741 28.3182 77.7741 21.7727 80.7741 16.4545C83.7969 11.1136 87.8651 7.07954 92.9787 4.35227C98.1151 1.60227 103.865 0.22727 110.229 0.22727C116.547 0.22727 122.274 1.60227 127.411 4.35227C132.547 7.07954 136.626 11.1136 139.649 16.4545C142.672 21.7727 144.183 28.3182 144.183 36.0909ZM124.683 36.0909C124.683 31.9091 124.126 28.3864 123.013 25.5227C121.922 22.6364 120.297 20.4545 118.138 18.9773C116.001 17.4773 113.365 16.7273 110.229 16.7273C107.092 16.7273 104.445 17.4773 102.286 18.9773C100.149 20.4545 98.5241 22.6364 97.4105 25.5227C96.3196 28.3864 95.7741 31.9091 95.7741 36.0909C95.7741 40.2727 96.3196 43.8068 97.4105 46.6932C98.5241 49.5568 100.149 51.7386 102.286 53.2386C104.445 54.7159 107.092 55.4545 110.229 55.4545C113.365 55.4545 116.001 54.7159 118.138 53.2386C120.297 51.7386 121.922 49.5568 123.013 46.6932C124.126 43.8068 124.683 40.2727 124.683 36.0909ZM261.362 1.18182V71H245.544L220.317 34.3182H219.908V71H200.953V1.18182H217.044L241.862 37.7273H242.408V1.18182H261.362Z" fill="#FF542E"/>
<path d="M51.4645 73C51.2827 70.7273 50.4304 68.9545 48.9077 67.6818C47.4077 66.4091 45.1236 65.7727 42.0554 65.7727C40.1009 65.7727 38.4986 66.0114 37.2486 66.4886C36.0213 66.9432 35.1122 67.5682 34.5213 68.3636C33.9304 69.1591 33.6236 70.0682 33.6009 71.0909C33.5554 71.9318 33.7031 72.6932 34.044 73.375C34.4077 74.0341 34.9759 74.6364 35.7486 75.1818C36.5213 75.7045 37.5099 76.1818 38.7145 76.6136C39.919 77.0455 41.3509 77.4318 43.0099 77.7727L48.7372 79C52.6009 79.8182 55.9077 80.8977 58.6577 82.2386C61.4077 83.5795 63.6577 85.1591 65.4077 86.9773C67.1577 88.7727 68.4418 90.7955 69.2599 93.0455C70.1009 95.2955 70.5327 97.75 70.5554 100.409C70.5327 105 69.3849 108.886 67.1122 112.068C64.8395 115.25 61.5895 117.67 57.3622 119.33C53.1577 120.989 48.1009 121.818 42.1918 121.818C36.1236 121.818 30.8281 120.92 26.3054 119.125C21.8054 117.33 18.3054 114.568 15.8054 110.841C13.3281 107.091 12.0781 102.295 12.0554 96.4545H30.0554C30.169 98.5909 30.7031 100.386 31.6577 101.841C32.6122 103.295 33.9531 104.398 35.6804 105.148C37.4304 105.898 39.5099 106.273 41.919 106.273C43.9418 106.273 45.6349 106.023 46.9986 105.523C48.3622 105.023 49.3963 104.33 50.1009 103.443C50.8054 102.557 51.169 101.545 51.1918 100.409C51.169 99.3409 50.8168 98.4091 50.1349 97.6136C49.4759 96.7955 48.3849 96.0682 46.8622 95.4318C45.3395 94.7727 43.2827 94.1591 40.6918 93.5909L33.7372 92.0909C27.5554 90.75 22.6804 88.5114 19.1122 85.375C15.5668 82.2159 13.8054 77.9091 13.8281 72.4545C13.8054 68.0227 14.9872 64.1477 17.3736 60.8295C19.7827 57.4886 23.1122 54.8864 27.3622 53.0227C31.6349 51.1591 36.5327 50.2273 42.0554 50.2273C47.6918 50.2273 52.5668 51.1705 56.6804 53.0568C60.794 54.9432 63.9645 57.6023 66.1918 61.0341C68.4418 64.4432 69.5781 68.4318 69.6009 73H51.4645ZM125.766 121V51.1818H144.72V78.4545H169.811V51.1818H188.766V121H169.811V93.7273H144.72V121H125.766ZM313.402 86.0909C313.402 93.8636 311.891 100.42 308.868 105.761C305.845 111.08 301.766 115.114 296.629 117.864C291.493 120.591 285.766 121.955 279.447 121.955C273.084 121.955 267.334 120.58 262.197 117.83C257.084 115.057 253.016 111.011 249.993 105.693C246.993 100.352 245.493 93.8182 245.493 86.0909C245.493 78.3182 246.993 71.7727 249.993 66.4545C253.016 61.1136 257.084 57.0795 262.197 54.3523C267.334 51.6023 273.084 50.2273 279.447 50.2273C285.766 50.2273 291.493 51.6023 296.629 54.3523C301.766 57.0795 305.845 61.1136 308.868 66.4545C311.891 71.7727 313.402 78.3182 313.402 86.0909ZM293.902 86.0909C293.902 81.9091 293.345 78.3864 292.232 75.5227C291.141 72.6364 289.516 70.4545 287.357 68.9773C285.22 67.4773 282.584 66.7273 279.447 66.7273C276.311 66.7273 273.663 67.4773 271.504 68.9773C269.368 70.4545 267.743 72.6364 266.629 75.5227C265.538 78.3864 264.993 81.9091 264.993 86.0909C264.993 90.2727 265.538 93.8068 266.629 96.6932C267.743 99.5568 269.368 101.739 271.504 103.239C273.663 104.716 276.311 105.455 279.447 105.455C282.584 105.455 285.22 104.716 287.357 103.239C289.516 101.739 291.141 99.5568 292.232 96.6932C293.345 93.8068 293.902 90.2727 293.902 86.0909ZM136.5 171V101.182H166.636C171.818 101.182 176.352 102.205 180.239 104.25C184.125 106.295 187.148 109.17 189.307 112.875C191.466 116.58 192.545 120.909 192.545 125.864C192.545 130.864 191.432 135.193 189.205 138.852C187 142.511 183.898 145.33 179.898 147.307C175.92 149.284 171.273 150.273 165.955 150.273H147.955V135.545H162.136C164.364 135.545 166.261 135.159 167.83 134.386C169.42 133.591 170.636 132.466 171.477 131.011C172.341 129.557 172.773 127.841 172.773 125.864C172.773 123.864 172.341 122.159 171.477 120.75C170.636 119.318 169.42 118.227 167.83 117.477C166.261 116.705 164.364 116.318 162.136 116.318H155.455V171H136.5Z" fill="white"/>
<path d="M2.80824 69.3295L2.70535 69.4324L2.70662 69.4337L2.80824 69.3295ZM0.046875 62.5455L0.192385 62.5467L0.192363 62.5442L0.046875 62.5455ZM2.80824 55.8977L2.70662 55.7936L2.70599 55.7942L2.80824 55.8977ZM16.206 55.8977L16.105 56.0025L16.1056 56.0031L16.206 55.8977ZM19.1378 62.5455L19.2833 62.5473L19.2833 62.5442L19.1378 62.5455ZM17.7401 67.3864L17.6167 67.3093L17.6163 67.3098L17.7401 67.3864ZM14.2628 70.8295L14.3365 70.955L14.3379 70.9541L14.2628 70.8295ZM9.59233 71.9454C6.99393 71.9454 4.76904 71.0398 2.90986 69.2254L2.70662 69.4337C4.62017 71.3011 6.918 72.2364 9.59233 72.2364V71.9454ZM2.91112 69.2267C1.07535 67.3909 0.169966 65.1672 0.192363 62.5467L-0.0986131 62.5442C-0.12167 65.2419 0.813856 67.5409 2.70536 69.4324L2.91112 69.2267ZM0.192363 62.5442C0.169985 59.9931 1.07449 57.8148 2.91049 56.0012L2.70599 55.7942C0.814717 57.6624 -0.121689 59.916 -0.0986128 62.5467L0.192363 62.5442ZM2.90986 56.0019C4.76904 54.1875 6.99393 53.2819 9.59233 53.2819V52.9909C6.918 52.9909 4.62017 53.9262 2.70662 55.7936L2.90986 56.0019ZM9.59233 53.2819C12.0522 53.2819 14.2212 54.1859 16.105 56.0025L16.307 55.793C14.3726 53.9277 12.1325 52.9909 9.59233 52.9909V53.2819ZM16.1056 56.0031C18.0099 57.8177 18.9699 59.9965 18.9923 62.5467L19.2833 62.5442C19.2602 59.9126 18.2657 57.6595 16.3063 55.7924L16.1056 56.0031ZM18.9923 62.5436C18.9699 64.2906 18.5112 65.8781 17.6167 67.3093L17.8634 67.4635C18.7871 65.9856 19.2602 64.3457 19.2833 62.5473L18.9923 62.5436ZM17.6163 67.3098C16.742 68.7221 15.5995 69.8533 14.1876 70.705L14.3379 70.9541C15.7897 70.0785 16.9653 68.9142 17.8638 67.4629L17.6163 67.3098ZM14.1891 70.7041C12.7799 71.5317 11.2486 71.9454 9.59233 71.9454V72.2364C11.2997 72.2364 12.882 71.8092 14.3365 70.955L14.1891 70.7041ZM139.649 55.7614L139.776 55.8333L139.776 55.833L139.649 55.7614ZM127.411 67.8636L127.479 67.9921L127.479 67.9919L127.411 67.8636ZM92.9787 67.8295L92.9093 67.9574L92.91 67.9578L92.9787 67.8295ZM80.7741 55.6932L80.6473 55.7644L80.6477 55.7651L80.7741 55.6932ZM80.7741 16.4545L80.6475 16.3829L80.6474 16.3831L80.7741 16.4545ZM92.9787 4.35227L93.0472 4.48065L93.0474 4.48054L92.9787 4.35227ZM127.411 4.35227L127.342 4.48054L127.342 4.48077L127.411 4.35227ZM139.649 16.4545L139.523 16.5262L139.523 16.5264L139.649 16.4545ZM123.013 25.5227L122.877 25.5742L122.877 25.5755L123.013 25.5227ZM118.138 18.9773L118.054 19.0964L118.056 19.0973L118.138 18.9773ZM102.286 18.9773L102.368 19.0969L102.369 19.0968L102.286 18.9773ZM97.4105 25.5227L97.2748 25.4704L97.2746 25.4709L97.4105 25.5227ZM97.4105 46.6932L97.2744 46.7446L97.2749 46.7459L97.4105 46.6932ZM102.286 53.2386L102.202 53.3577L102.203 53.3587L102.286 53.2386ZM118.138 53.2386L118.221 53.3583L118.221 53.3581L118.138 53.2386ZM123.013 46.6932L122.877 46.6408L122.877 46.6414L123.013 46.6932ZM144.038 36.0909C144.038 43.8451 142.53 50.3757 139.523 55.6897L139.776 55.833C142.814 50.4652 144.329 43.8822 144.329 36.0909H144.038ZM139.523 55.6895C136.513 60.985 132.453 64.999 127.342 67.7354L127.479 67.9919C132.641 65.2283 136.74 61.1741 139.776 55.8333L139.523 55.6895ZM127.342 67.7351C122.229 70.4503 116.525 71.8091 110.229 71.8091V72.1C116.569 72.1 122.32 70.7315 127.479 67.9921L127.342 67.7351ZM110.229 71.8091C103.887 71.8091 98.1607 70.4389 93.0474 67.7013L92.91 67.9578C98.0694 70.7201 103.843 72.1 110.229 72.1V71.8091ZM93.048 67.7016C87.9596 64.9426 83.9107 60.9171 80.9006 55.6213L80.6477 55.7651C83.6831 61.1056 87.7705 65.1711 92.9093 67.9574L93.048 67.7016ZM80.901 55.6219C77.916 50.3078 76.4196 43.7996 76.4196 36.0909H76.1287C76.1287 43.8367 77.6323 50.3968 80.6473 55.7644L80.901 55.6219ZM76.4196 36.0909C76.4196 28.3365 77.9161 21.8172 80.9009 16.526L80.6474 16.3831C77.6322 21.7282 76.1287 28.2998 76.1287 36.0909H76.4196ZM80.9008 16.5262C83.9107 11.2079 87.9594 7.19414 93.0472 4.48065L92.9102 4.22389C87.7708 6.96495 83.683 11.0194 80.6475 16.3829L80.9008 16.5262ZM93.0474 4.48054C98.1607 1.74287 103.887 0.372764 110.229 0.372764V0.0817767C103.843 0.0817767 98.0694 1.46167 92.91 4.224L93.0474 4.48054ZM110.229 0.372764C116.525 0.372764 122.228 1.74279 127.342 4.48054L127.479 4.224C122.32 1.46175 116.569 0.0817767 110.229 0.0817767V0.372764ZM127.342 4.48077C132.453 7.19431 136.513 11.208 139.523 16.5262L139.776 16.3829C136.74 11.0192 132.641 6.96477 127.479 4.22377L127.342 4.48077ZM139.523 16.5264C142.53 21.8175 144.038 28.3367 144.038 36.0909H144.329C144.329 28.2997 142.814 21.7279 139.776 16.3827L139.523 16.5264ZM124.829 36.0909C124.829 31.8971 124.27 28.3553 123.148 25.47L122.877 25.5755C123.982 28.4174 124.538 31.921 124.538 36.0909H124.829ZM123.149 25.4713C122.049 22.5622 120.408 20.3541 118.22 18.8572L118.056 19.0973C120.186 20.5549 121.794 22.7105 122.877 25.5742L123.149 25.4713ZM118.221 18.8582C116.056 17.3378 113.389 16.5818 110.229 16.5818V16.8728C113.341 16.8728 115.947 17.6168 118.054 19.0963L118.221 18.8582ZM110.229 16.5818C107.069 16.5818 104.39 17.3378 102.203 18.8578L102.369 19.0968C104.499 17.6167 107.116 16.8728 110.229 16.8728V16.5818ZM102.203 18.8576C100.038 20.3544 98.3969 22.5621 97.2748 25.4704L97.5463 25.5751C98.6514 22.7107 100.26 20.5546 102.368 19.0969L102.203 18.8576ZM97.2746 25.4709C96.1755 28.3559 95.6287 31.8974 95.6287 36.0909H95.9196C95.9196 31.9208 96.4637 28.4168 97.5465 25.5745L97.2746 25.4709ZM95.6287 36.0909C95.6287 40.2845 96.1755 43.8371 97.2744 46.7446L97.5466 46.6417C96.4637 43.7765 95.9196 40.261 95.9196 36.0909H95.6287ZM97.2749 46.7459C98.3971 49.6315 100.038 51.8385 102.202 53.3577L102.369 53.1196C100.26 51.6388 98.6512 49.4822 97.5461 46.6404L97.2749 46.7459ZM102.203 53.3587C104.391 54.8556 107.069 55.6 110.229 55.6V55.3091C107.116 55.3091 104.498 54.5762 102.368 53.1186L102.203 53.3587ZM110.229 55.6C113.388 55.6 116.055 54.8556 118.221 53.3583L118.055 53.119C115.948 54.5762 113.342 55.3091 110.229 55.3091V55.6ZM118.221 53.3581C120.408 51.8388 122.049 49.6313 123.149 46.745L122.877 46.6414C121.795 49.4823 120.186 51.6385 118.055 53.1191L118.221 53.3581ZM123.149 46.7456C124.27 43.8377 124.829 40.2847 124.829 36.0909H124.538C124.538 40.2607 123.982 43.7759 122.877 46.6408L123.149 46.7456ZM261.362 1.18182H261.508V1.03632H261.362V1.18182ZM261.362 71V71.1455H261.508V71H261.362ZM245.544 71L245.424 71.0824L245.468 71.1455H245.544V71ZM220.317 34.3182L220.437 34.2357L220.393 34.1727H220.317V34.3182ZM219.908 34.3182V34.1727H219.762V34.3182H219.908ZM219.908 71V71.1455H220.053V71H219.908ZM200.953 71H200.808V71.1455H200.953V71ZM200.953 1.18182V1.03632H200.808V1.18182H200.953ZM217.044 1.18182L217.164 1.10008L217.121 1.03632H217.044V1.18182ZM241.862 37.7273L241.742 37.809L241.785 37.8728H241.862V37.7273ZM242.408 37.7273V37.8728H242.553V37.7273H242.408ZM242.408 1.18182V1.03632H242.262V1.18182H242.408ZM261.217 1.18182V71H261.508V1.18182H261.217ZM261.362 70.8545H245.544V71.1455H261.362V70.8545ZM245.664 70.9176L220.437 34.2357L220.197 34.4006L245.424 71.0824L245.664 70.9176ZM220.317 34.1727H219.908V34.4637H220.317V34.1727ZM219.762 34.3182V71H220.053V34.3182H219.762ZM219.908 70.8545H200.953V71.1455H219.908V70.8545ZM201.099 71V1.18182H200.808V71H201.099ZM200.953 1.32731H217.044V1.03632H200.953V1.32731ZM216.924 1.26355L241.742 37.809L241.983 37.6455L217.164 1.10008L216.924 1.26355ZM241.862 37.8728H242.408V37.5818H241.862V37.8728ZM242.553 37.7273V1.18182H242.262V37.7273H242.553ZM242.408 1.32731H261.362V1.03632H242.408V1.32731ZM51.4645 73L51.3195 73.0116L51.3302 73.1455H51.4645V73ZM48.9077 67.6818L48.8135 67.7928L48.8144 67.7935L48.9077 67.6818ZM37.2486 66.4886L37.2991 66.6251L37.3005 66.6246L37.2486 66.4886ZM34.5213 68.3636L34.4045 68.2769L34.4045 68.2769L34.5213 68.3636ZM33.6009 71.0909L33.7462 71.0988L33.7463 71.0941L33.6009 71.0909ZM34.044 73.375L33.9138 73.4401L33.9166 73.4453L34.044 73.375ZM35.7486 75.1818L35.6647 75.3007L35.6671 75.3023L35.7486 75.1818ZM43.0099 77.7727L43.0404 77.6305L43.0392 77.6302L43.0099 77.7727ZM48.7372 79L48.7067 79.1423L48.7071 79.1423L48.7372 79ZM65.4077 86.9773L65.3028 87.0782L65.3035 87.0788L65.4077 86.9773ZM69.2599 93.0455L69.1232 93.0952L69.1237 93.0964L69.2599 93.0455ZM70.5554 100.409L70.7009 100.41L70.7009 100.408L70.5554 100.409ZM67.1122 112.068L67.2306 112.153L67.2306 112.153L67.1122 112.068ZM57.3622 119.33L57.3091 119.194L57.3088 119.194L57.3622 119.33ZM26.3054 119.125L26.2515 119.26L26.2517 119.26L26.3054 119.125ZM15.8054 110.841L15.684 110.921L15.6846 110.922L15.8054 110.841ZM12.0554 96.4545V96.3091H11.9093L11.9099 96.4551L12.0554 96.4545ZM30.0554 96.4545L30.2007 96.4468L30.1934 96.3091H30.0554V96.4545ZM31.6577 101.841L31.536 101.921L31.536 101.921L31.6577 101.841ZM35.6804 105.148L35.6224 105.281L35.6231 105.281L35.6804 105.148ZM46.9986 105.523L47.0487 105.659L47.0487 105.659L46.9986 105.523ZM50.1009 103.443L50.2148 103.534L50.2148 103.534L50.1009 103.443ZM51.1918 100.409L51.3374 100.412L51.3372 100.406L51.1918 100.409ZM50.1349 97.6136L50.0216 97.7049L50.0245 97.7083L50.1349 97.6136ZM46.8622 95.4318L46.8044 95.5653L46.8061 95.5661L46.8622 95.4318ZM40.6918 93.5909L40.7229 93.4488L40.7224 93.4487L40.6918 93.5909ZM33.7372 92.0909L33.7064 92.2331L33.7065 92.2331L33.7372 92.0909ZM19.1122 85.375L19.0154 85.4836L19.0162 85.4843L19.1122 85.375ZM13.8281 72.4545L13.9736 72.4552L13.9736 72.4538L13.8281 72.4545ZM17.3736 60.8295L17.2556 60.7444L17.2555 60.7446L17.3736 60.8295ZM27.3622 53.0227L27.304 52.8894L27.3038 52.8895L27.3622 53.0227ZM56.6804 53.0568L56.6198 53.1891L56.6198 53.1891L56.6804 53.0568ZM66.1918 61.0341L66.0697 61.1133L66.0703 61.1142L66.1918 61.0341ZM69.6009 73V73.1455H69.7471L69.7463 72.9993L69.6009 73ZM51.6095 72.9884C51.4251 70.683 50.5582 68.8717 49.001 67.5702L48.8144 67.7935C50.3026 69.0373 51.1403 70.7715 51.3195 73.0116L51.6095 72.9884ZM49.0018 67.5709C47.4643 66.2663 45.1397 65.6272 42.0554 65.6272V65.9182C45.1074 65.9182 47.3511 66.5519 48.8135 67.7928L49.0018 67.5709ZM42.0554 65.6272C40.0906 65.6272 38.469 65.8669 37.1967 66.3527L37.3005 66.6246C38.5281 66.1558 40.1111 65.9182 42.0554 65.9182V65.6272ZM37.198 66.3522C35.9527 66.8135 35.0168 67.4526 34.4045 68.2769L34.6381 68.4504C35.2076 67.6838 36.09 67.0729 37.2991 66.6251L37.198 66.3522ZM34.4045 68.2769C33.795 69.0973 33.4788 70.0358 33.4554 71.0877L33.7463 71.0941C33.7684 70.1005 34.0658 69.2208 34.6381 68.4504L34.4045 68.2769ZM33.4556 71.0831C33.4089 71.9465 33.5605 72.7334 33.9139 73.4401L34.1742 73.3099C33.8457 72.653 33.7019 71.9172 33.7461 71.0988L33.4556 71.0831ZM33.9166 73.4453C34.2933 74.1279 34.8785 74.7457 35.6647 75.3007L35.8325 75.063C35.0733 74.527 34.5221 73.9402 34.1714 73.3047L33.9166 73.4453ZM35.6671 75.3023C36.4528 75.8339 37.4533 76.3161 38.6654 76.7506L38.7636 76.4767C37.5666 76.0476 36.5898 75.5752 35.8301 75.0613L35.6671 75.3023ZM38.6654 76.7506C39.8781 77.1853 41.3169 77.5734 42.9807 77.9152L43.0392 77.6302C41.3849 77.2903 39.96 76.9056 38.7636 76.4767L38.6654 76.7506ZM42.9795 77.915L48.7067 79.1423L48.7677 78.8577L43.0404 77.6305L42.9795 77.915ZM48.7071 79.1423C52.5623 79.9587 55.8572 81.035 58.5939 82.3694L58.7214 82.1079C55.9582 80.7605 52.6395 79.6776 48.7674 78.8577L48.7071 79.1423ZM58.5939 82.3694C61.3317 83.7044 63.5669 85.2746 65.3028 87.0782L65.5125 86.8764C63.7485 85.0436 61.4836 83.4547 58.7214 82.1079L58.5939 82.3694ZM65.3035 87.0788C67.0398 88.8602 68.3124 90.8655 69.1232 93.0952L69.3967 92.9957C68.5711 90.7254 67.2756 88.6852 65.5119 86.8757L65.3035 87.0788ZM69.1237 93.0964C69.958 95.3289 70.3873 97.7664 70.4099 100.41L70.7009 100.408C70.678 97.7336 70.2437 95.262 69.3962 92.9945L69.1237 93.0964ZM70.4099 100.408C70.3873 104.975 69.2462 108.83 66.9938 111.984L67.2306 112.153C69.5237 108.942 70.678 105.025 70.7009 100.41L70.4099 100.408ZM66.9938 111.984C64.74 115.139 61.5144 117.544 57.3091 119.194L57.4154 119.465C61.6645 117.797 64.939 115.361 67.2306 112.153L66.9938 111.984ZM57.3088 119.194C53.1256 120.845 48.0879 121.673 42.1918 121.673V121.964C48.1138 121.964 53.1897 121.132 57.4156 119.465L57.3088 119.194ZM42.1918 121.673C36.1376 121.673 30.8611 120.777 26.3591 118.99L26.2517 119.26C30.7952 121.064 36.1096 121.964 42.1918 121.964V121.673ZM26.3593 118.99C21.8843 117.204 18.4086 114.461 15.9262 110.76L15.6846 110.922C18.2022 114.676 21.7265 117.455 26.2515 119.26L26.3593 118.99ZM15.9268 110.761C13.4692 107.04 12.2235 102.275 12.2009 96.454L11.9099 96.4551C11.9327 102.316 13.1871 107.141 15.684 110.921L15.9268 110.761ZM12.0554 96.6H30.0554V96.3091H12.0554V96.6ZM29.9101 96.4623C30.0248 98.6185 30.5645 100.44 31.536 101.921L31.7793 101.761C30.8418 100.332 30.3133 98.5633 30.2007 96.4468L29.9101 96.4623ZM31.536 101.921C32.5074 103.401 33.8714 104.521 35.6225 105.281L35.7383 105.014C34.0348 104.275 32.717 103.19 31.7793 101.761L31.536 101.921ZM35.6231 105.281C37.3953 106.041 39.4953 106.418 41.919 106.418V106.127C39.5246 106.127 37.4655 105.754 35.7377 105.014L35.6231 105.281ZM41.919 106.418C43.9526 106.418 45.664 106.167 47.0487 105.659L46.9485 105.386C45.6058 105.878 43.9309 106.127 41.919 106.127V106.418ZM47.0487 105.659C48.4304 105.153 49.4895 104.446 50.2148 103.534L49.987 103.353C49.3031 104.213 48.294 104.893 46.9485 105.386L47.0487 105.659ZM50.2148 103.534C50.9392 102.622 51.3139 101.58 51.3372 100.412L51.0463 100.406C51.0242 101.511 50.6716 102.491 49.987 103.353L50.2148 103.534ZM51.3372 100.406C51.3138 99.3049 50.9496 98.3405 50.2454 97.5189L50.0245 97.7083C50.6839 98.4777 51.0243 99.3769 51.0463 100.412L51.3372 100.406ZM50.2482 97.5224C49.5677 96.6775 48.4519 95.9385 46.9183 95.2976L46.8061 95.5661C48.318 96.1979 49.384 96.9134 50.0216 97.7049L50.2482 97.5224ZM46.92 95.2983C45.3852 94.634 43.3182 94.0179 40.7229 93.4488L40.6606 93.733C43.2471 94.3002 45.2938 94.9115 46.8044 95.5653L46.92 95.2983ZM40.7224 93.4487L33.7679 91.9487L33.7065 92.2331L40.6611 93.7331L40.7224 93.4487ZM33.7681 91.9487C27.6027 90.6114 22.7527 88.3812 19.2083 85.2657L19.0162 85.4843C22.6081 88.6415 27.5081 90.8886 33.7064 92.2331L33.7681 91.9487ZM19.209 85.2664C15.6995 82.1393 13.951 77.8749 13.9736 72.4552L13.6826 72.4539C13.6598 77.9433 15.434 82.2925 19.0154 85.4836L19.209 85.2664ZM13.9736 72.4538C13.951 68.05 15.1248 64.2056 17.4917 60.9145L17.2555 60.7446C14.8496 64.0899 13.6598 67.9955 13.6826 72.4553L13.9736 72.4538ZM17.4916 60.9146C19.8836 57.5974 23.1914 55.0105 27.4206 53.156L27.3038 52.8895C23.0331 54.7622 19.6817 57.3799 17.2556 60.7444L17.4916 60.9146ZM27.4204 53.1561C31.6717 51.3018 36.549 50.3728 42.0554 50.3728V50.0818C36.5163 50.0818 31.5982 51.0164 27.304 52.8894L27.4204 53.1561ZM42.0554 50.3728C47.6758 50.3728 52.5292 51.3133 56.6198 53.1891L56.741 52.9246C52.6043 51.0276 47.7077 50.0818 42.0554 50.0818V50.3728ZM56.6198 53.1891C60.7111 55.0652 63.859 57.707 66.0697 61.1133L66.3138 60.9549C64.0699 57.4975 60.877 54.8212 56.741 52.9246L56.6198 53.1891ZM66.0703 61.1142C68.303 64.497 69.4328 68.4573 69.4554 73.0007L69.7463 72.9993C69.7235 68.4063 68.5806 64.3893 66.3132 60.9539L66.0703 61.1142ZM69.6009 72.8545H51.4645V73.1455H69.6009V72.8545ZM125.766 121H125.62V121.145H125.766V121ZM125.766 51.1818V51.0363H125.62V51.1818H125.766ZM144.72 51.1818H144.866V51.0363H144.72V51.1818ZM144.72 78.4545H144.575V78.6H144.72V78.4545ZM169.811 78.4545V78.6H169.957V78.4545H169.811ZM169.811 51.1818V51.0363H169.666V51.1818H169.811ZM188.766 51.1818H188.911V51.0363H188.766V51.1818ZM188.766 121V121.145H188.911V121H188.766ZM169.811 121H169.666V121.145H169.811V121ZM169.811 93.7273H169.957V93.5818H169.811V93.7273ZM144.72 93.7273V93.5818H144.575V93.7273H144.72ZM144.72 121V121.145H144.866V121H144.72ZM125.911 121V51.1818H125.62V121H125.911ZM125.766 51.3273H144.72V51.0363H125.766V51.3273ZM144.575 51.1818V78.4545H144.866V51.1818H144.575ZM144.72 78.6H169.811V78.309H144.72V78.6ZM169.957 78.4545V51.1818H169.666V78.4545H169.957ZM169.811 51.3273H188.766V51.0363H169.811V51.3273ZM188.62 51.1818V121H188.911V51.1818H188.62ZM188.766 120.855H169.811V121.145H188.766V120.855ZM169.957 121V93.7273H169.666V121H169.957ZM169.811 93.5818H144.72V93.8728H169.811V93.5818ZM144.575 93.7273V121H144.866V93.7273H144.575ZM144.72 120.855H125.766V121.145H144.72V120.855ZM308.868 105.761L308.994 105.833L308.995 105.833L308.868 105.761ZM296.629 117.864L296.697 117.992L296.698 117.992L296.629 117.864ZM262.197 117.83L262.128 117.957L262.129 117.958L262.197 117.83ZM249.993 105.693L249.866 105.764L249.866 105.765L249.993 105.693ZM249.993 66.4545L249.866 66.3829L249.866 66.3831L249.993 66.4545ZM262.197 54.3523L262.266 54.4806L262.266 54.4805L262.197 54.3523ZM296.629 54.3523L296.561 54.4805L296.561 54.4808L296.629 54.3523ZM308.868 66.4545L308.741 66.5262L308.741 66.5264L308.868 66.4545ZM292.232 75.5227L292.095 75.5742L292.096 75.5755L292.232 75.5227ZM287.357 68.9773L287.273 69.0964L287.274 69.0973L287.357 68.9773ZM271.504 68.9773L271.587 69.0969L271.587 69.0968L271.504 68.9773ZM266.629 75.5227L266.494 75.4704L266.493 75.4709L266.629 75.5227ZM266.629 96.6932L266.493 96.7446L266.494 96.7459L266.629 96.6932ZM271.504 103.239L271.421 103.358L271.422 103.359L271.504 103.239ZM287.357 103.239L287.439 103.358L287.44 103.358L287.357 103.239ZM292.232 96.6932L292.096 96.6408L292.096 96.6414L292.232 96.6932ZM313.256 86.0909C313.256 93.8451 311.749 100.376 308.741 105.69L308.995 105.833C312.032 100.465 313.547 93.8822 313.547 86.0909H313.256ZM308.741 105.689C305.732 110.985 301.672 114.999 296.561 117.735L296.698 117.992C301.86 115.228 305.959 111.174 308.994 105.833L308.741 105.689ZM296.561 117.735C291.447 120.45 285.744 121.809 279.447 121.809V122.1C285.787 122.1 291.538 120.732 296.697 117.992L296.561 117.735ZM279.447 121.809C273.106 121.809 267.379 120.439 262.266 117.701L262.129 117.958C267.288 120.72 273.062 122.1 279.447 122.1V121.809ZM262.267 117.702C257.178 114.943 253.129 110.917 250.119 105.621L249.866 105.765C252.902 111.106 256.989 115.171 262.128 117.957L262.267 117.702ZM250.12 105.622C247.135 100.308 245.638 93.7996 245.638 86.0909H245.347C245.347 93.8367 246.851 100.397 249.866 105.764L250.12 105.622ZM245.638 86.0909C245.638 78.3365 247.135 71.8172 250.12 66.526L249.866 66.3831C246.851 71.7282 245.347 78.2998 245.347 86.0909H245.638ZM250.12 66.5262C253.129 61.2079 257.178 57.1941 262.266 54.4806L262.129 54.2239C256.99 56.9649 252.902 61.0194 249.866 66.3829L250.12 66.5262ZM262.266 54.4805C267.379 51.7429 273.106 50.3728 279.447 50.3728V50.0818C273.062 50.0818 267.288 51.4617 262.129 54.224L262.266 54.4805ZM279.447 50.3728C285.744 50.3728 291.447 51.7428 296.561 54.4805L296.698 54.224C291.539 51.4618 285.788 50.0818 279.447 50.0818V50.3728ZM296.561 54.4808C301.672 57.1943 305.731 61.208 308.741 66.5262L308.995 66.3829C305.959 61.0192 301.86 56.9648 296.697 54.2238L296.561 54.4808ZM308.741 66.5264C311.749 71.8175 313.256 78.3367 313.256 86.0909H313.547C313.547 78.2997 312.033 71.7279 308.994 66.3827L308.741 66.5264ZM294.047 86.0909C294.047 81.8971 293.489 78.3553 292.367 75.47L292.096 75.5755C293.201 78.4174 293.756 81.921 293.756 86.0909H294.047ZM292.368 75.4713C291.268 72.5622 289.627 70.3541 287.439 68.8572L287.274 69.0973C289.405 70.5549 291.013 72.7105 292.095 75.5742L292.368 75.4713ZM287.44 68.8582C285.275 67.3378 282.608 66.5818 279.447 66.5818V66.8728C282.56 66.8728 285.166 67.6168 287.273 69.0963L287.44 68.8582ZM279.447 66.5818C276.287 66.5818 273.609 67.3378 271.421 68.8578L271.587 69.0968C273.718 67.6167 276.335 66.8728 279.447 66.8728V66.5818ZM271.422 68.8576C269.257 70.3544 267.616 72.5621 266.494 75.4704L266.765 75.5751C267.87 72.7107 269.479 70.5546 271.587 69.0969L271.422 68.8576ZM266.493 75.4709C265.394 78.3559 264.847 81.8974 264.847 86.0909H265.138C265.138 81.9208 265.682 78.4168 266.765 75.5745L266.493 75.4709ZM264.847 86.0909C264.847 90.2845 265.394 93.8371 266.493 96.7446L266.765 96.6417C265.682 93.7765 265.138 90.261 265.138 86.0909H264.847ZM266.494 96.7459C267.616 99.6315 269.257 101.838 271.421 103.358L271.588 103.12C269.479 101.639 267.87 99.4822 266.765 96.6404L266.494 96.7459ZM271.422 103.359C273.61 104.856 276.288 105.6 279.447 105.6V105.309C276.334 105.309 273.717 104.576 271.586 103.119L271.422 103.359ZM279.447 105.6C282.607 105.6 285.274 104.856 287.439 103.358L287.274 103.119C285.166 104.576 282.56 105.309 279.447 105.309V105.6ZM287.44 103.358C289.626 101.839 291.268 99.6313 292.367 96.745L292.096 96.6414C291.013 99.4823 289.405 101.638 287.274 103.119L287.44 103.358ZM292.367 96.7456C293.489 93.8377 294.047 90.2847 294.047 86.0909H293.756C293.756 90.2607 293.201 93.7759 292.096 96.6408L292.367 96.7456ZM136.5 171H136.355V171.145H136.5V171ZM136.5 101.182V101.036H136.355V101.182H136.5ZM180.239 104.25L180.171 104.379L180.171 104.379L180.239 104.25ZM189.307 112.875L189.433 112.802L189.433 112.802L189.307 112.875ZM189.205 138.852L189.08 138.777L189.08 138.777L189.205 138.852ZM179.898 147.307L179.833 147.176L179.833 147.177L179.898 147.307ZM147.955 150.273H147.809V150.418H147.955V150.273ZM147.955 135.545V135.4H147.809V135.545H147.955ZM167.83 134.386L167.894 134.517L167.895 134.516L167.83 134.386ZM171.477 131.011L171.352 130.937L171.351 130.939L171.477 131.011ZM171.477 120.75L171.352 120.824L171.353 120.826L171.477 120.75ZM167.83 117.477L167.765 117.608L167.768 117.609L167.83 117.477ZM155.455 116.318V116.173H155.309V116.318H155.455ZM155.455 171V171.145H155.6V171H155.455ZM136.645 171V101.182H136.355V171H136.645ZM136.5 101.327H166.636V101.036H136.5V101.327ZM166.636 101.327C171.799 101.327 176.309 102.346 180.171 104.379L180.306 104.121C176.396 102.063 171.838 101.036 166.636 101.036V101.327ZM180.171 104.379C184.034 106.412 187.036 109.268 189.181 112.948L189.433 112.802C187.259 109.073 184.216 106.179 180.306 104.121L180.171 104.379ZM189.181 112.948C191.325 116.627 192.4 120.931 192.4 125.864H192.691C192.691 120.887 191.606 116.532 189.433 112.802L189.181 112.948ZM192.4 125.864C192.4 130.841 191.291 135.144 189.08 138.777L189.329 138.928C191.572 135.242 192.691 130.886 192.691 125.864H192.4ZM189.08 138.777C186.89 142.411 183.809 145.211 179.833 147.176L179.962 147.437C183.986 145.448 187.11 142.611 189.329 138.927L189.08 138.777ZM179.833 147.177C175.879 149.142 171.255 150.127 165.955 150.127V150.418C171.291 150.418 175.962 149.426 179.962 147.437L179.833 147.177ZM165.955 150.127H147.955V150.418H165.955V150.127ZM148.1 150.273V135.545H147.809V150.273H148.1ZM147.955 135.691H162.136V135.4H147.955V135.691ZM162.136 135.691C164.38 135.691 166.301 135.302 167.894 134.517L167.765 134.256C166.222 135.016 164.347 135.4 162.136 135.4V135.691ZM167.895 134.516C169.509 133.709 170.747 132.565 171.603 131.084L171.351 130.939C170.526 132.367 169.331 133.473 167.764 134.256L167.895 134.516ZM171.602 131.086C172.481 129.605 172.918 127.863 172.918 125.864H172.627C172.627 127.819 172.2 129.509 171.352 130.937L171.602 131.086ZM172.918 125.864C172.918 123.842 172.482 122.11 171.601 120.674L171.353 120.826C172.2 122.208 172.627 123.885 172.627 125.864H172.918ZM171.603 120.676C170.746 119.218 169.507 118.107 167.892 117.346L167.768 117.609C169.334 118.347 170.527 119.419 171.352 120.824L171.603 120.676ZM167.894 117.347C166.301 116.562 164.38 116.173 162.136 116.173V116.464C164.347 116.464 166.222 116.847 167.765 117.608L167.894 117.347ZM162.136 116.173H155.455V116.464H162.136V116.173ZM155.309 116.318V171H155.6V116.318H155.309ZM155.455 170.855H136.5V171.145H155.455V170.855Z" fill="white"/>
</svg>
